<svg xmlns="http://www.w3.org/2000/svg" viewBox="39.95 153.95 721.93 721.93"><path fill="#121214" d="M206.000046,587.092163 
	C179.004303,587.083191 152.508530,587.085083 126.012825,587.044434 
	C119.211090,587.033936 118.914772,586.534546 121.363373,580.308044 
	C152.198654,501.897339 183.039978,423.488983 213.860291,345.072388 
	C222.873627,322.139618 231.904648,299.213043 240.724091,276.205627 
	C242.119766,272.564728 244.169785,271.607147 247.813980,271.635406 
	C266.476654,271.780212 285.142670,271.824188 303.803650,271.592743 
	C307.878967,271.542236 309.724274,273.109589 311.129486,276.657928 
	C335.162384,337.342957 359.275146,397.996338 383.389709,458.649048 
	C386.772278,467.156830 390.232147,475.634216 393.715240,484.101379 
	C394.381592,485.721222 394.855835,487.591614 396.721680,488.340698 
	C398.899658,487.433411 399.060303,485.424683 399.706421,483.797119 
	C423.359070,424.216156 446.992249,364.627472 470.611664,305.033356 
	C474.537476,295.128113 478.446198,285.215179 482.233582,275.256683 
	C483.201111,272.712646 484.641449,271.640533 487.411011,271.650726 
	C507.740936,271.725555 528.071228,271.677856 548.401428,271.696472 
	C549.367004,271.697357 550.332336,271.959564 552.466248,272.270111 
	C500.851593,399.371521 449.418335,526.026367 397.985046,652.681152 
	C397.376312,652.707397 396.767548,652.733643 396.158813,652.759949 
	C348.305817,536.223389 300.452850,419.686920 252.599854,303.150391 
	C252.087021,303.104553 251.574188,303.058716 251.061356,303.012878 
	C216.455780,390.819122 181.850204,478.625397 147.222504,566.487793 
	C149.746567,568.611206 152.340576,567.894775 154.706940,567.897217 
	C211.531006,567.955444 268.355438,568.048462 325.178772,567.841858 
	C330.934753,567.820923 334.245117,569.285522 335.679352,575.004395 
	C336.628906,578.790710 339.253937,582.093506 339.399811,587.087219 
	C294.939606,587.087219 250.719818,587.087219 206.000046,587.092163 
z"/><path fill="#121214" d="M454.986481,580.038757 
	C459.773621,567.912048 464.517517,556.181213 469.008850,544.354370 
	C470.351074,540.819946 472.437164,539.653992 476.142029,539.678162 
	C497.133484,539.814880 518.126831,539.822937 539.118652,539.710022 
	C573.850952,539.523132 607.274597,511.756470 613.511169,477.664886 
	C617.920349,453.562683 613.864929,431.129974 598.029846,411.833435 
	C582.687927,393.137756 562.626648,383.654419 538.390442,383.106384 
	C531.209045,382.944031 531.193848,382.840179 533.278809,376.040497 
	C538.059387,360.449585 542.940857,344.887207 547.466309,329.222229 
	C548.537964,325.512787 550.272095,324.584595 553.851990,324.886627 
	C615.672729,330.102234 665.086365,375.209198 675.002075,436.749969 
	C682.921875,485.903168 669.135864,528.601685 632.704590,562.835876 
	C606.914795,587.070374 575.461792,598.754822 540.074280,599.302856 
	C520.086243,599.612427 500.089539,599.359131 480.096741,599.369995 
	C473.257599,599.373657 473.207031,599.395752 473.203491,606.386292 
	C473.179291,654.535400 473.172455,702.684448 473.166077,750.833557 
	C473.165131,758.178406 473.179504,758.178528 465.647217,758.172424 
	C449.653046,758.159485 433.656891,758.003601 417.665894,758.222168 
	C412.996155,758.286011 411.632935,756.632385 411.685089,752.120972 
	C411.904572,733.130310 412.037201,714.133240 411.754333,695.145142 
	C411.654785,688.460938 414.387634,682.839294 416.672241,677.014954 
	C429.317291,644.777954 442.106598,612.597595 454.986481,580.038757 
z"/></svg>
