<?xml version="1.0" encoding="UTF-8"?>
<!DOCTYPE svg PUBLIC "-//W3C//DTD SVG 1.1//EN" "http://www.w3.org/Graphics/SVG/1.1/DTD/svg11.dtd">
<svg xmlns="http://www.w3.org/2000/svg" version="1.1" width="2048px" height="2048px" style="shape-rendering:geometricPrecision; text-rendering:geometricPrecision; image-rendering:optimizeQuality; fill-rule:evenodd; clip-rule:evenodd" xmlns:xlink="http://www.w3.org/1999/xlink">
<g><path style="opacity:1" fill="#68686c" d="M 1106.5,511.5 C 1106.5,511.833 1106.5,512.167 1106.5,512.5C 948.496,511.835 790.83,512.501 633.5,514.5C 633.5,517.167 633.5,519.833 633.5,522.5C 637.702,522.183 641.702,522.517 645.5,523.5C 641.167,523.5 636.833,523.5 632.5,523.5C 632.5,519.167 632.5,514.833 632.5,510.5C 790.528,510.171 948.528,510.504 1106.5,511.5 Z"/></g>
<g><path style="opacity:1" fill="#b0b0b0" d="M 1106.5,512.5 C 1106.5,512.167 1106.5,511.833 1106.5,511.5C 1111.51,511.334 1116.51,511.501 1121.5,512C 1122.42,512.278 1123.08,512.778 1123.5,513.5C 1117.85,512.968 1112.18,512.635 1106.5,512.5 Z"/></g>
<g><path style="opacity:1" fill="#1d1e1f" d="M 719.5,515.5 C 708.684,515.774 698.018,515.774 687.5,515.5C 687.351,516.552 687.517,517.552 688,518.5C 695.697,518.182 703.864,518.182 712.5,518.5C 712.738,522.099 711.738,522.433 709.5,519.5C 708.5,520 707.5,520.5 706.5,521C 707.654,521.914 707.487,522.747 706,523.5C 704.112,521.078 702.112,521.078 700,523.5C 698.221,521.983 698.721,521.149 701.5,521C 699.276,518.851 697.776,519.351 697,522.5C 696.282,521.549 695.449,521.383 694.5,522C 693.167,522.667 693.167,523.333 694.5,524C 689.371,525.86 689.371,526.526 694.5,526C 695.126,525.25 695.626,524.416 696,523.5C 697,524.5 698,525.5 699,526.5C 699.777,524.299 700.944,524.299 702.5,526.5C 700.252,527.324 700.086,528.324 702,529.5C 704.511,527.128 706.844,527.462 709,530.5C 709.333,529.833 709.667,529.167 710,528.5C 711.467,531.266 713.3,533.766 715.5,536C 716.744,536.456 717.577,535.956 718,534.5C 719.113,535.76 719.28,536.927 718.5,538C 719.667,538.5 720.5,539.333 721,540.5C 721.974,538.122 722.641,538.456 723,541.5C 723.333,541.167 723.667,540.833 724,540.5C 725.684,542.459 727.684,542.459 730,540.5C 730.374,541.416 730.874,542.25 731.5,543C 730.289,543.787 729.289,544.454 728.5,545C 729.022,545.95 729.689,546.784 730.5,547.5C 729.174,547.205 727.841,547.705 726.5,549C 729.282,550.153 731.949,552.153 734.5,555C 733.829,555.986 733.829,557.153 734.5,558.5C 716.319,539.58 693.986,528.913 667.5,526.5C 664.997,525.629 662.33,524.963 659.5,524.5C 654.797,524.563 650.13,524.229 645.5,523.5C 641.702,522.517 637.702,522.183 633.5,522.5C 633.5,519.833 633.5,517.167 633.5,514.5C 647.927,513.841 662.427,513.508 677,513.5C 691.516,513.501 705.683,514.167 719.5,515.5 Z"/></g>
<g><path style="opacity:1" fill="#1b1b1c" d="M 1106.5,512.5 C 1112.18,512.635 1117.85,512.968 1123.5,513.5C 1133.96,513.646 1144.3,514.646 1154.5,516.5C 1157.88,518.082 1161.54,518.749 1165.5,518.5C 1178.97,520.585 1191.97,523.919 1204.5,528.5C 1206.51,529.924 1208.85,530.59 1211.5,530.5C 1215.14,531.669 1218.81,533.002 1222.5,534.5C 1223.78,535.931 1225.45,536.598 1227.5,536.5C 1230.68,537.594 1233.68,538.928 1236.5,540.5C 1237.78,541.931 1239.45,542.598 1241.5,542.5C 1250.44,547.119 1259.44,551.786 1268.5,556.5C 1268.82,558.048 1269.82,558.715 1271.5,558.5C 1271.97,559.906 1272.97,560.573 1274.5,560.5C 1279.44,562.975 1284.1,565.975 1288.5,569.5C 1289.51,571.522 1291.17,572.855 1293.5,573.5C 1299.48,577.481 1305.14,581.814 1310.5,586.5C 1308.81,588.766 1306.64,589.1 1304,587.5C 1303.93,590.047 1303.1,592.214 1301.5,594C 1301.96,594.414 1302.29,594.914 1302.5,595.5C 1301.41,596.934 1300.08,597.934 1298.5,598.5C 1293.5,595.324 1288.83,591.658 1284.5,587.5C 1284.03,586.094 1283.03,585.427 1281.5,585.5C 1278.99,584.079 1276.66,582.412 1274.5,580.5C 1274.17,579.5 1273.5,578.833 1272.5,578.5C 1271.51,578.672 1270.84,578.338 1270.5,577.5C 1270.03,576.094 1269.03,575.427 1267.5,575.5C 1252.23,566.696 1236.56,558.696 1220.5,551.5C 1219.36,549.787 1217.7,549.12 1215.5,549.5C 1212.5,548.167 1209.5,546.833 1206.5,545.5C 1204.56,543.837 1202.23,543.171 1199.5,543.5C 1195.5,542.167 1191.5,540.833 1187.5,539.5C 1185.16,537.96 1182.5,537.294 1179.5,537.5C 1175.77,536.387 1172.1,535.387 1168.5,534.5C 1164.79,532.864 1160.79,532.198 1156.5,532.5C 1154,531.629 1151.33,530.963 1148.5,530.5C 1136.77,529.676 1125.1,528.676 1113.5,527.5C 1043.67,526.501 973.669,526.167 903.5,526.5C 902.501,602.332 902.167,678.332 902.5,754.5C 900.69,763.111 899.856,772.111 900,781.5C 899.667,753.5 899.333,725.5 899,697.5C 898.683,699.301 898.016,699.634 897,698.5C 896.175,680.593 896.342,662.76 897.5,645C 894.833,644.333 894.833,643.667 897.5,643C 896.437,633.765 896.437,624.599 897.5,615.5C 898.333,629.488 898.833,643.488 899,657.5C 899.197,652.914 899.697,648.414 900.5,644C 899.707,630.387 899.707,616.887 900.5,603.5C 899.682,588.211 899.182,572.878 899,557.5C 898.824,571.741 898.324,585.908 897.5,600C 898.029,603.72 898.362,607.386 898.5,611C 898.167,612.167 897.833,613.333 897.5,614.5C 897.167,614 896.833,613.5 896.5,613C 897.238,606.884 897.571,600.884 897.5,595C 896.833,582 896.167,569 895.5,556C 895.709,548.394 896.042,540.728 896.5,533C 894.598,531.606 894.265,529.773 895.5,527.5C 897.124,527.36 898.29,528.027 899,529.5C 900.267,527.576 900.267,525.91 899,524.5C 897.286,525.925 895.953,525.592 895,523.5C 893.143,527.38 891.81,527.046 891,522.5C 889.434,523.061 888.101,522.394 887,520.5C 886.355,521.646 885.522,522.646 884.5,523.5C 885.891,523.109 886.891,523.942 887.5,526C 887,526.5 886.5,527 886,527.5C 884.26,526.284 883.26,524.618 883,522.5C 882.667,523.833 882.333,525.167 882,526.5C 881.5,525.333 880.667,524.5 879.5,524C 880.602,521.609 879.936,521.109 877.5,522.5C 877.891,521.282 877.224,520.448 875.5,520C 876.931,519.535 878.097,518.701 879,517.5C 883.721,518.267 888.555,518.6 893.5,518.5C 895.988,517.975 898.321,517.142 900.5,516C 853.306,515.838 807.139,515.671 762,515.5C 759.167,515.667 756.333,515.833 753.5,516C 752.833,516.333 752.167,516.667 751.5,517C 753.134,517.494 754.801,517.66 756.5,517.5C 755.299,519.648 754.466,521.648 754,523.5C 753.163,521.993 751.996,521.493 750.5,522C 750.616,523.268 750.949,524.602 751.5,526C 749.671,527.538 748.171,527.038 747,524.5C 746.667,525.167 746.333,525.833 746,526.5C 744.654,523.751 743.32,523.417 742,525.5C 741.333,522.833 740.667,522.833 740,525.5C 739.667,524.5 739.333,523.5 739,522.5C 737.853,523.458 736.853,523.125 736,521.5C 735.51,520.207 735.343,518.873 735.5,517.5C 738.959,517.62 742.126,517.954 745,518.5C 746.734,517.751 748.567,517.251 750.5,517C 749.975,516.308 749.308,515.808 748.5,515.5C 739.131,515.782 729.464,515.782 719.5,515.5C 705.683,514.167 691.516,513.501 677,513.5C 662.427,513.508 647.927,513.841 633.5,514.5C 790.83,512.501 948.496,511.835 1106.5,512.5 Z"/></g>
<g><path style="opacity:1" fill="#19191f" d="M 719.5,515.5 C 729.464,515.782 739.131,515.782 748.5,515.5C 749.308,515.808 749.975,516.308 750.5,517C 748.567,517.251 746.734,517.751 745,518.5C 742.126,517.954 738.959,517.62 735.5,517.5C 735.343,518.873 735.51,520.207 736,521.5C 736.853,523.125 737.853,523.458 739,522.5C 739.333,523.5 739.667,524.5 740,525.5C 740.667,522.833 741.333,522.833 742,525.5C 743.32,523.417 744.654,523.751 746,526.5C 746.333,525.833 746.667,525.167 747,524.5C 748.171,527.038 749.671,527.538 751.5,526C 750.949,524.602 750.616,523.268 750.5,522C 751.996,521.493 753.163,521.993 754,523.5C 754.466,521.648 755.299,519.648 756.5,517.5C 754.801,517.66 753.134,517.494 751.5,517C 752.167,516.667 752.833,516.333 753.5,516C 756.333,515.833 759.167,515.667 762,515.5C 807.139,515.671 853.306,515.838 900.5,516C 898.321,517.142 895.988,517.975 893.5,518.5C 888.555,518.6 883.721,518.267 879,517.5C 878.097,518.701 876.931,519.535 875.5,520C 877.224,520.448 877.891,521.282 877.5,522.5C 879.936,521.109 880.602,521.609 879.5,524C 880.667,524.5 881.5,525.333 882,526.5C 882.333,525.167 882.667,523.833 883,522.5C 883.26,524.618 884.26,526.284 886,527.5C 886.5,527 887,526.5 887.5,526C 886.891,523.942 885.891,523.109 884.5,523.5C 885.522,522.646 886.355,521.646 887,520.5C 888.101,522.394 889.434,523.061 891,522.5C 891.81,527.046 893.143,527.38 895,523.5C 895.953,525.592 897.286,525.925 899,524.5C 900.267,525.91 900.267,527.576 899,529.5C 898.29,528.027 897.124,527.36 895.5,527.5C 894.265,529.773 894.598,531.606 896.5,533C 896.042,540.728 895.709,548.394 895.5,556C 896.167,569 896.833,582 897.5,595C 897.571,600.884 897.238,606.884 896.5,613C 896.833,613.5 897.167,614 897.5,614.5C 897.833,613.333 898.167,612.167 898.5,611C 898.362,607.386 898.029,603.72 897.5,600C 898.324,585.908 898.824,571.741 899,557.5C 899.182,572.878 899.682,588.211 900.5,603.5C 899.707,616.887 899.707,630.387 900.5,644C 899.697,648.414 899.197,652.914 899,657.5C 898.833,643.488 898.333,629.488 897.5,615.5C 896.437,624.599 896.437,633.765 897.5,643C 894.833,643.667 894.833,644.333 897.5,645C 896.342,662.76 896.175,680.593 897,698.5C 898.016,699.634 898.683,699.301 899,697.5C 899.333,725.5 899.667,753.5 900,781.5C 899.856,772.111 900.69,763.111 902.5,754.5C 902.333,871.167 902.5,987.834 903,1104.5C 905.538,1103.95 908.038,1103.62 910.5,1103.5C 910.783,1104.29 911.283,1104.96 912,1105.5C 958.948,1105.04 1006.95,1104.7 1056,1104.5C 1056.69,1106.89 1057.69,1106.89 1059,1104.5C 1061.99,1105.85 1065.16,1106.52 1068.5,1106.5C 1072.67,1105.33 1076.67,1105.33 1080.5,1106.5C 1083.16,1105.67 1085.83,1104.83 1088.5,1104C 1098.08,1103.18 1107.58,1103.35 1117,1104.5C 1118.67,1102.3 1120.67,1101.97 1123,1103.5C 1123.67,1102.83 1124.33,1102.17 1125,1101.5C 1128.95,1101.99 1131.28,1102.99 1132,1104.5C 1136.44,1104.38 1140.61,1104.05 1144.5,1103.5C 1145.54,1105.99 1146.37,1105.99 1147,1103.5C 1148.16,1104 1148.99,1104.83 1149.5,1106C 1148.71,1107.1 1148.71,1107.93 1149.5,1108.5C 1151.99,1107.98 1154.32,1107.14 1156.5,1106C 1154.47,1106.5 1152.47,1106.33 1150.5,1105.5C 1151.64,1104.57 1151.64,1103.74 1150.5,1103C 1152,1102.49 1153.16,1102.99 1154,1104.5C 1154.91,1103.67 1155.58,1102.67 1156,1101.5C 1157.59,1105.82 1160.42,1107.32 1164.5,1106C 1163.62,1106.71 1162.95,1107.54 1162.5,1108.5C 1161.17,1109.17 1159.83,1109.83 1158.5,1110.5C 1147.74,1112.7 1136.74,1114.03 1125.5,1114.5C 1120.2,1115.27 1114.87,1115.61 1109.5,1115.5C 1105.49,1115.67 1101.49,1115.5 1097.5,1115C 1096.97,1114.31 1096.31,1113.81 1095.5,1113.5C 1093.9,1114.17 1092.4,1114.5 1091,1114.5C 1090.65,1112.82 1089.65,1111.82 1088,1111.5C 1081.82,1111.79 1075.65,1112.12 1069.5,1112.5C 1068.3,1112.15 1068.3,1111.65 1069.5,1111C 1077.88,1110.2 1086.22,1110.36 1094.5,1111.5C 1096.89,1109.69 1099.56,1109.19 1102.5,1110C 1101.87,1109.25 1101.37,1108.42 1101,1107.5C 1097.21,1108.53 1093.21,1108.53 1089,1107.5C 1088.67,1108.17 1088.33,1108.83 1088,1109.5C 1048.29,1109.74 1009.62,1109.41 972,1108.5C 971.5,1109 971,1109.5 970.5,1110C 992.167,1110.33 1013.83,1110.67 1035.5,1111C 1033.44,1111.31 1031.44,1111.81 1029.5,1112.5C 1014.58,1112.54 999.745,1112.2 985,1111.5C 984.667,1112.17 984.333,1112.83 984,1113.5C 982.667,1112.83 981.333,1112.17 980,1111.5C 976.514,1111.86 972.848,1112.53 969,1113.5C 965.321,1112.11 961.488,1111.28 957.5,1111C 958.706,1109.98 958.373,1109.48 956.5,1109.5C 954.627,1109.48 954.294,1109.98 955.5,1111C 950.914,1111.2 946.414,1111.7 942,1112.5C 931.768,1111.78 921.268,1111.78 910.5,1112.5C 907.925,1109.68 906.092,1110.01 905,1113.5C 904.282,1112.55 903.449,1112.38 902.5,1113C 903.337,1114.01 903.67,1115.18 903.5,1116.5C 902.671,1123.99 902.171,1131.66 902,1139.5C 901.81,1133.58 901.31,1127.75 900.5,1122C 901.923,1119.38 901.757,1116.88 900,1114.5C 899.732,1136.74 899.899,1158.57 900.5,1180C 899.712,1183.08 899.212,1186.24 899,1189.5C 898.346,1188.3 897.846,1188.3 897.5,1189.5C 900.167,1191.5 900.167,1193.5 897.5,1195.5C 897.846,1196.7 898.346,1196.7 899,1195.5C 898.751,1200.61 899.251,1205.78 900.5,1211C 899.833,1218.33 899.167,1225.67 898.5,1233C 898.555,1239.55 899.222,1246.22 900.5,1253C 900.422,1266.7 899.755,1280.7 898.5,1295C 899.326,1319.41 899.659,1343.08 899.5,1366C 898.833,1367.67 898.167,1369.33 897.5,1371C 898.308,1371.31 898.975,1371.81 899.5,1372.5C 899.154,1373.7 898.654,1373.7 898,1372.5C 898.311,1373.93 898.145,1375.27 897.5,1376.5C 897.667,1376.83 897.833,1377.17 898,1377.5C 898.75,1376.87 899.584,1376.37 900.5,1376C 900.5,1374.33 900.5,1372.67 900.5,1371C 901.167,1370.67 901.833,1370.33 902.5,1370C 901.365,1365.25 901.198,1360.42 902,1355.5C 902.175,1360.02 902.675,1364.35 903.5,1368.5C 903.5,1369.17 903.833,1369.5 904.5,1369.5C 904.707,1395.11 907.373,1420.44 912.5,1445.5C 912.517,1447.56 912.85,1449.56 913.5,1451.5C 912.751,1452.53 912.085,1453.7 911.5,1455C 912.574,1455.74 913.241,1456.74 913.5,1458C 912.206,1458.11 911.539,1459.11 911.5,1461C 912.166,1462.67 912.166,1464.17 911.5,1465.5C 913.991,1466.54 913.991,1467.37 911.5,1468C 912.214,1471.45 914.381,1474.29 918,1476.5C 918.862,1478.09 919.529,1479.75 920,1481.5C 920.442,1479.32 921.442,1478.65 923,1479.5C 922.57,1481.13 922.404,1482.63 922.5,1484C 924.017,1485.78 924.851,1485.28 925,1482.5C 925.972,1484.3 927.139,1485.97 928.5,1487.5C 928,1488.5 927.5,1489.5 927,1490.5C 926.667,1490.17 926.333,1489.83 926,1489.5C 925.333,1490.5 925.333,1491.5 926,1492.5C 926.741,1491.36 927.575,1491.36 928.5,1492.5C 930.483,1494.98 932.65,1497.32 935,1499.5C 935.617,1500.45 935.451,1501.28 934.5,1502C 935.876,1504.54 937.043,1504.71 938,1502.5C 939.333,1503.83 940.667,1505.17 942,1506.5C 943.193,1505.02 943.693,1503.69 943.5,1502.5C 944.192,1503.03 944.692,1503.69 945,1504.5C 946.073,1503.72 947.24,1503.89 948.5,1505C 945.833,1505.67 945.833,1506.33 948.5,1507C 947.833,1507.33 947.167,1507.67 946.5,1508C 947.841,1509.29 949.174,1509.79 950.5,1509.5C 949.91,1510.8 948.91,1511.63 947.5,1512C 948.667,1512.5 949.5,1513.33 950,1514.5C 951,1513.5 952,1512.5 953,1511.5C 955.41,1514.89 957.577,1517.89 959.5,1520.5C 962.379,1520.54 965.379,1520.2 968.5,1519.5C 969.293,1520.36 968.96,1521.19 967.5,1522C 970.155,1523.76 971.488,1523.26 971.5,1520.5C 972.478,1520.98 973.311,1521.64 974,1522.5C 975,1521.17 976,1521.17 977,1522.5C 979.754,1520.89 982.587,1519.56 985.5,1518.5C 1001.74,1520.92 1018.07,1522.42 1034.5,1523C 1035.76,1523.42 1036.42,1524.25 1036.5,1525.5C 1035.52,1528.29 1035.19,1531.29 1035.5,1534.5C 937.5,1534.5 839.5,1534.5 741.5,1534.5C 740.359,1533.66 739.026,1532.99 737.5,1532.5C 715.401,1533.14 693.401,1533.31 671.5,1533C 670.235,1530.98 670.235,1528.98 671.5,1527C 672.579,1526.04 673.745,1525.21 675,1524.5C 676.264,1524.64 677.431,1524.64 678.5,1524.5C 677.965,1522.73 677.131,1522.4 676,1523.5C 676.081,1521.36 677.081,1521.03 679,1522.5C 679.667,1519.83 680.333,1519.83 681,1522.5C 682.512,1521.74 683.846,1520.74 685,1519.5C 685.293,1522.95 686.626,1523.29 689,1520.5C 690.016,1521.63 690.683,1521.3 691,1519.5C 692.714,1520.93 694.047,1520.59 695,1518.5C 696.333,1519.83 697.667,1519.83 699,1518.5C 699.667,1521.17 700.333,1521.17 701,1518.5C 701.333,1519.17 701.667,1519.83 702,1520.5C 702.448,1518.78 703.282,1518.11 704.5,1518.5C 703.189,1517.74 702.689,1516.74 703,1515.5C 704.667,1516.17 706.333,1516.83 708,1517.5C 708.661,1515.08 710.161,1513.42 712.5,1512.5C 711.975,1511.81 711.308,1511.31 710.5,1511C 712.271,1508.89 713.771,1509.05 715,1511.5C 715.414,1511.04 715.914,1510.71 716.5,1510.5C 717.167,1511.5 717.833,1512.5 718.5,1513.5C 719.59,1512.61 719.59,1511.61 718.5,1510.5C 720.461,1509.15 720.628,1507.82 719,1506.5C 717.893,1507.71 717.393,1507.38 717.5,1505.5C 717.833,1504.83 718.167,1504.17 718.5,1503.5C 719.899,1502.11 721.566,1501.11 723.5,1500.5C 724.5,1500.17 725.167,1499.5 725.5,1498.5C 727.46,1496.84 729.46,1495.18 731.5,1493.5C 733.5,1492.17 735.167,1490.5 736.5,1488.5C 738.507,1485.49 740.507,1482.49 742.5,1479.5C 743.906,1479.03 744.573,1478.03 744.5,1476.5C 745.397,1475.4 746.23,1475.4 747,1476.5C 748.149,1473.22 748.982,1469.89 749.5,1466.5C 750.859,1462.75 752.193,1459.08 753.5,1455.5C 754.473,1455.01 755.473,1454.51 756.5,1454C 755.709,1451.25 755.709,1448.42 756.5,1445.5C 759.894,1430.02 762.06,1414.35 763,1398.5C 763.5,1151.17 763.667,903.834 763.5,656.5C 764.333,901.666 764.833,1147 765,1392.5C 765.5,1258.17 765.667,1123.83 765.5,989.5C 767.237,986.992 768.07,983.992 768,980.5C 767.437,997.212 767.937,1013.71 769.5,1030C 768.339,1054.76 768.173,1079.59 769,1104.5C 770.132,1101.02 770.632,1097.35 770.5,1093.5C 770.707,1070.74 770.374,1047.9 769.5,1025C 770.167,1015 770.833,1005 771.5,995C 770.803,948.389 770.137,901.555 769.5,854.5C 768.517,893.15 768.517,931.317 769.5,969C 768.707,972.411 768.207,975.911 768,979.5C 767.878,977.563 767.045,976.23 765.5,975.5C 765.333,938.498 765.5,901.498 766,864.5C 766.59,858.507 767.09,852.507 767.5,846.5C 766.518,831.368 766.185,816.201 766.5,801C 766.552,795.656 767.219,790.489 768.5,785.5C 768.154,784.304 767.654,784.304 767,785.5C 766.833,782.833 766.667,780.167 766.5,777.5C 767.094,772.748 767.094,768.081 766.5,763.5C 766.649,761.68 767.316,760.18 768.5,759C 767.833,758.667 767.167,758.333 766.5,758C 767.833,753.333 767.833,748.667 766.5,744C 767.531,740.583 768.865,737.416 770.5,734.5C 769.178,734.33 768.011,734.663 767,735.5C 766.182,732.773 766.348,730.106 767.5,727.5C 769.35,728.242 770.016,729.242 769.5,730.5C 770.429,729.311 770.762,727.978 770.5,726.5C 769.5,726.5 768.5,726.5 767.5,726.5C 767.5,725.167 767.5,723.833 767.5,722.5C 768.5,722.5 769.5,722.5 770.5,722.5C 770.5,718.5 770.5,714.5 770.5,710.5C 767.001,710.259 766.668,711.092 769.5,713C 769.112,714.808 769.112,716.475 769.5,718C 768.584,718.374 767.75,718.874 767,719.5C 766.333,714.5 766.333,709.5 767,704.5C 767.71,705.973 768.876,706.64 770.5,706.5C 770.824,703.306 769.658,702.306 767,703.5C 766.013,700.303 766.513,697.47 768.5,695C 767.833,694.667 767.167,694.333 766.5,694C 767.938,693.781 769.271,693.281 770.5,692.5C 769.471,692.704 768.471,692.204 767.5,691C 768.602,688.599 768.769,686.099 768,683.5C 767.237,686.063 766.737,686.063 766.5,683.5C 766.667,682.833 766.833,682.167 767,681.5C 767.654,682.696 768.154,682.696 768.5,681.5C 767.975,680.808 767.308,680.308 766.5,680C 768.091,677.614 769.091,674.947 769.5,672C 768.167,670.333 768.167,668.667 769.5,667C 768.256,666.544 767.423,667.044 767,668.5C 766.326,663.775 765.826,659.275 765.5,655C 765.667,653.833 765.833,652.667 766,651.5C 766.29,653.044 766.956,654.377 768,655.5C 768.197,650.137 768.03,644.97 767.5,640C 768.328,639.085 769.328,638.419 770.5,638C 769.552,637.517 768.552,637.351 767.5,637.5C 767.207,633.779 766.541,633.945 765.5,638C 765.641,640.513 765.808,643.013 766,645.5C 765.085,644.672 764.419,643.672 764,642.5C 763.502,645.817 763.335,649.15 763.5,652.5C 762.145,633.698 759.145,615.031 754.5,596.5C 754.741,594.102 754.074,592.102 752.5,590.5C 748.046,578.921 742.046,568.254 734.5,558.5C 733.829,557.153 733.829,555.986 734.5,555C 731.949,552.153 729.282,550.153 726.5,549C 727.841,547.705 729.174,547.205 730.5,547.5C 729.689,546.784 729.022,545.95 728.5,545C 729.289,544.454 730.289,543.787 731.5,543C 730.874,542.25 730.374,541.416 730,540.5C 727.684,542.459 725.684,542.459 724,540.5C 723.667,540.833 723.333,541.167 723,541.5C 722.641,538.456 721.974,538.122 721,540.5C 720.5,539.333 719.667,538.5 718.5,538C 719.28,536.927 719.113,535.76 718,534.5C 717.577,535.956 716.744,536.456 715.5,536C 713.3,533.766 711.467,531.266 710,528.5C 709.667,529.167 709.333,529.833 709,530.5C 706.844,527.462 704.511,527.128 702,529.5C 700.086,528.324 700.252,527.324 702.5,526.5C 700.944,524.299 699.777,524.299 699,526.5C 698,525.5 697,524.5 696,523.5C 695.626,524.416 695.126,525.25 694.5,526C 689.371,526.526 689.371,525.86 694.5,524C 693.167,523.333 693.167,522.667 694.5,522C 695.449,521.383 696.282,521.549 697,522.5C 697.776,519.351 699.276,518.851 701.5,521C 698.721,521.149 698.221,521.983 700,523.5C 702.112,521.078 704.112,521.078 706,523.5C 707.487,522.747 707.654,521.914 706.5,521C 707.5,520.5 708.5,520 709.5,519.5C 711.738,522.433 712.738,522.099 712.5,518.5C 703.864,518.182 695.697,518.182 688,518.5C 687.517,517.552 687.351,516.552 687.5,515.5C 698.018,515.774 708.684,515.774 719.5,515.5 Z"/></g>
<g><path style="opacity:1" fill="#19181e" d="M 938.5,515.5 C 982.625,515.755 1026.63,515.755 1070.5,515.5C 1075.48,516.119 1080.48,516.786 1085.5,517.5C 1082.55,519.726 1079.38,520.059 1076,518.5C 1070.77,519.827 1065.43,520.827 1060,521.5C 1058.33,520.167 1056.67,520.167 1055,521.5C 1054.67,520.833 1054.33,520.167 1054,519.5C 1053.26,520.574 1052.26,521.241 1051,521.5C 1048.14,521.362 1045.3,521.362 1042.5,521.5C 1041.52,521.023 1040.69,520.357 1040,519.5C 1039.69,520.308 1039.19,520.975 1038.5,521.5C 1018.08,520.801 997.417,520.467 976.5,520.5C 975.692,520.808 975.025,521.308 974.5,522C 975.711,522.893 975.711,523.726 974.5,524.5C 973.719,523.271 973.219,521.938 973,520.5C 971.333,521.833 969.667,521.833 968,520.5C 965.266,521.362 965.099,522.195 967.5,523C 965.782,523.346 964.115,523.846 962.5,524.5C 961.396,523.369 961.729,522.535 963.5,522C 953.194,520.217 942.861,520.05 932.5,521.5C 925.359,519.19 918.026,517.857 910.5,517.5C 909.604,518.506 908.938,518.506 908.5,517.5C 918.659,516.833 928.659,516.167 938.5,515.5 Z"/></g>
<g><path style="opacity:1" fill="#b6b6b6" d="M 1154.5,516.5 C 1158.42,516.43 1162.09,517.097 1165.5,518.5C 1161.54,518.749 1157.88,518.082 1154.5,516.5 Z"/></g>
<g><path style="opacity:1" fill="#dedede" d="M 659.5,524.5 C 662.33,524.963 664.997,525.629 667.5,526.5C 665.143,526.663 662.81,526.497 660.5,526C 659.944,525.617 659.611,525.117 659.5,524.5 Z"/></g>
<g><path style="opacity:1" fill="#c8c8c8" d="M 1204.5,528.5 C 1207.15,528.41 1209.49,529.076 1211.5,530.5C 1208.85,530.59 1206.51,529.924 1204.5,528.5 Z"/></g>
<g><path style="opacity:1" fill="#cecece" d="M 1148.5,530.5 C 1151.33,530.963 1154,531.629 1156.5,532.5C 1154.14,532.663 1151.81,532.497 1149.5,532C 1148.94,531.617 1148.61,531.117 1148.5,530.5 Z"/></g>
<g><path style="opacity:1" fill="#7e7d7d" d="M 1156.5,532.5 C 1160.79,532.198 1164.79,532.864 1168.5,534.5C 1164.29,534.283 1160.29,533.617 1156.5,532.5 Z"/></g>
<g><path style="opacity:1" fill="#bdbdbd" d="M 1222.5,534.5 C 1224.55,534.402 1226.22,535.069 1227.5,536.5C 1225.45,536.598 1223.78,535.931 1222.5,534.5 Z"/></g>
<g><path style="opacity:1" fill="#939393" d="M 1179.5,537.5 C 1182.5,537.294 1185.16,537.96 1187.5,539.5C 1184.57,539.435 1181.91,538.768 1179.5,537.5 Z"/></g>
<g><path style="opacity:1" fill="#cacacc" d="M 1236.5,540.5 C 1238.55,540.402 1240.22,541.069 1241.5,542.5C 1239.45,542.598 1237.78,541.931 1236.5,540.5 Z"/></g>
<g><path style="opacity:1" fill="#808080" d="M 1199.5,543.5 C 1202.23,543.171 1204.56,543.837 1206.5,545.5C 1203.85,545.59 1201.51,544.924 1199.5,543.5 Z"/></g>
<g><path style="opacity:1" fill="#a4a6a6" d="M 1215.5,549.5 C 1217.7,549.12 1219.36,549.787 1220.5,551.5C 1218.6,551.204 1216.93,550.537 1215.5,549.5 Z"/></g>
<g><path style="opacity:1" fill="#919191" d="M 1268.5,556.5 C 1269.71,556.932 1270.71,557.599 1271.5,558.5C 1269.82,558.715 1268.82,558.048 1268.5,556.5 Z"/></g>
<g><path style="opacity:1" fill="#d0d0d0" d="M 1271.5,558.5 C 1273.03,558.427 1274.03,559.094 1274.5,560.5C 1272.97,560.573 1271.97,559.906 1271.5,558.5 Z"/></g>
<g><path style="opacity:1" fill="#929495" d="M 1288.5,569.5 C 1290.83,570.145 1292.49,571.478 1293.5,573.5C 1291.17,572.855 1289.51,571.522 1288.5,569.5 Z"/></g>
<g><path style="opacity:1" fill="#989e9e" d="M 1267.5,575.5 C 1269.03,575.427 1270.03,576.094 1270.5,577.5C 1268.97,577.573 1267.97,576.906 1267.5,575.5 Z"/></g>
<g><path style="opacity:1" fill="#dedede" d="M 1272.5,578.5 C 1273.5,578.833 1274.17,579.5 1274.5,580.5C 1273.17,580.5 1272.5,579.833 1272.5,578.5 Z"/></g>
<g><path style="opacity:1" fill="#bfbfbf" d="M 1281.5,585.5 C 1283.03,585.427 1284.03,586.094 1284.5,587.5C 1282.97,587.573 1281.97,586.906 1281.5,585.5 Z"/></g>
<g><path style="opacity:1" fill="#c0c0c0" d="M 1312.5,588.5 C 1314.5,588.5 1315.5,589.5 1315.5,591.5C 1314.17,590.833 1313.17,589.833 1312.5,588.5 Z"/></g>
<g><path style="opacity:1" fill="#afafaf" d="M 752.5,590.5 C 754.074,592.102 754.741,594.102 754.5,596.5C 753.262,594.786 752.595,592.786 752.5,590.5 Z"/></g>
<g><path style="opacity:1" fill="#c5c5c5" d="M 1324.5,599.5 C 1326.5,599.5 1327.5,600.5 1327.5,602.5C 1326.17,601.833 1325.17,600.833 1324.5,599.5 Z"/></g>
<g><path style="opacity:1" fill="#b0b0b0" d="M 1303.5,603.5 C 1305.03,603.427 1306.03,604.094 1306.5,605.5C 1304.97,605.573 1303.97,604.906 1303.5,603.5 Z"/></g>
<g><path style="opacity:1" fill="#c3c3c4" d="M 1322.5,621.5 C 1324.26,622.262 1325.26,623.596 1325.5,625.5C 1323.74,624.738 1322.74,623.404 1322.5,621.5 Z"/></g>
<g><path style="opacity:1" fill="#a6acad" d="M 1346.5,622.5 C 1348.26,623.262 1349.26,624.596 1349.5,626.5C 1347.74,625.738 1346.74,624.404 1346.5,622.5 Z"/></g>
<g><path style="opacity:1" fill="#bababa" d="M 1357.5,636.5 C 1358.91,636.973 1359.57,637.973 1359.5,639.5C 1358.09,639.027 1357.43,638.027 1357.5,636.5 Z"/></g>
<g><path style="opacity:1" fill="#a4aaa4" d="M 1359.5,639.5 C 1360.91,639.973 1361.57,640.973 1361.5,642.5C 1360.09,642.027 1359.43,641.027 1359.5,639.5 Z"/></g>
<g><path style="opacity:1" fill="#939393" d="M 1365.5,648.5 C 1366.91,648.973 1367.57,649.973 1367.5,651.5C 1366.09,651.027 1365.43,650.027 1365.5,648.5 Z"/></g>
<g><path style="opacity:1" fill="#989898" d="M 1367.5,651.5 C 1368.91,651.973 1369.57,652.973 1369.5,654.5C 1368.09,654.027 1367.43,653.027 1367.5,651.5 Z"/></g>
<g><path style="opacity:1" fill="#ababab" d="M 1369.5,654.5 C 1370.91,654.973 1371.57,655.973 1371.5,657.5C 1370.09,657.027 1369.43,656.027 1369.5,654.5 Z"/></g>
<g><path style="opacity:1" fill="#6b6b6c" d="M 1351.5,659.5 C 1354.51,660.848 1356.18,663.181 1356.5,666.5C 1354.48,664.469 1352.81,662.135 1351.5,659.5 Z"/></g>
<g><path style="opacity:1" fill="#9a9b9a" d="M 1376.5,666.5 C 1377.91,666.973 1378.57,667.973 1378.5,669.5C 1377.09,669.027 1376.43,668.027 1376.5,666.5 Z"/></g>
<g><path style="opacity:1" fill="#1f2021" d="M 1310.5,586.5 C 1311.5,586.833 1312.17,587.5 1312.5,588.5C 1313.17,589.833 1314.17,590.833 1315.5,591.5C 1319.1,593.43 1322.1,596.097 1324.5,599.5C 1325.17,600.833 1326.17,601.833 1327.5,602.5C 1334.51,608.509 1340.84,615.175 1346.5,622.5C 1346.74,624.404 1347.74,625.738 1349.5,626.5C 1352.52,629.52 1355.18,632.854 1357.5,636.5C 1357.43,638.027 1358.09,639.027 1359.5,639.5C 1359.43,641.027 1360.09,642.027 1361.5,642.5C 1363.32,644.118 1364.65,646.118 1365.5,648.5C 1365.43,650.027 1366.09,651.027 1367.5,651.5C 1367.43,653.027 1368.09,654.027 1369.5,654.5C 1369.43,656.027 1370.09,657.027 1371.5,657.5C 1373.42,660.331 1375.08,663.331 1376.5,666.5C 1376.43,668.027 1377.09,669.027 1378.5,669.5C 1382.36,675.885 1385.69,682.551 1388.5,689.5C 1389.14,692.106 1389.14,694.606 1388.5,697C 1389.9,697.41 1391.23,697.91 1392.5,698.5C 1395.68,705.55 1398.35,712.883 1400.5,720.5C 1400.86,724.915 1402.19,728.915 1404.5,732.5C 1408.19,745.935 1410.85,759.602 1412.5,773.5C 1412.44,778.731 1413.11,783.731 1414.5,788.5C 1414.5,789.5 1414.5,790.5 1414.5,791.5C 1414.63,808.846 1414.3,826.179 1413.5,843.5C 1412.48,858.586 1409.81,873.253 1405.5,887.5C 1403.87,887.175 1402.87,886.175 1402.5,884.5C 1402.91,882.469 1403.08,880.469 1403,878.5C 1402.09,879.328 1401.42,880.328 1401,881.5C 1400,880.5 1399,879.5 1398,878.5C 1395.97,878.986 1393.81,878.986 1391.5,878.5C 1391.5,876.833 1391.5,875.167 1391.5,873.5C 1401.04,820.949 1397.71,769.282 1381.5,718.5C 1381.86,715.224 1380.86,712.557 1378.5,710.5C 1374.99,701.639 1370.99,692.973 1366.5,684.5C 1366.57,682.973 1365.91,681.973 1364.5,681.5C 1361.8,676.483 1359.14,671.483 1356.5,666.5C 1356.18,663.181 1354.51,660.848 1351.5,659.5C 1343.92,647.265 1335.25,635.931 1325.5,625.5C 1325.26,623.596 1324.26,622.262 1322.5,621.5C 1316.86,616.527 1311.53,611.194 1306.5,605.5C 1306.03,604.094 1305.03,603.427 1303.5,603.5C 1301.53,602.194 1299.86,600.527 1298.5,598.5C 1300.08,597.934 1301.41,596.934 1302.5,595.5C 1302.29,594.914 1301.96,594.414 1301.5,594C 1303.1,592.214 1303.93,590.047 1304,587.5C 1306.64,589.1 1308.81,588.766 1310.5,586.5 Z"/></g>
<g><path style="opacity:1" fill="#e2e2e2" d="M 1364.5,681.5 C 1365.91,681.973 1366.57,682.973 1366.5,684.5C 1365.09,684.027 1364.43,683.027 1364.5,681.5 Z"/></g>
<g><path style="opacity:1" fill="#4e4f51" d="M 1388.5,689.5 C 1390.2,692.256 1391.54,695.256 1392.5,698.5C 1391.23,697.91 1389.9,697.41 1388.5,697C 1389.14,694.606 1389.14,692.106 1388.5,689.5 Z"/></g>
<g><path style="opacity:1" fill="#141516" d="M 765.5,975.5 C 765.5,980.167 765.5,984.833 765.5,989.5C 765.667,1123.83 765.5,1258.17 765,1392.5C 764.833,1147 764.333,901.666 763.5,656.5C 763.5,655.167 763.5,653.833 763.5,652.5C 763.335,649.15 763.502,645.817 764,642.5C 764.419,643.672 765.085,644.672 766,645.5C 765.808,643.013 765.641,640.513 765.5,638C 766.541,633.945 767.207,633.779 767.5,637.5C 768.552,637.351 769.552,637.517 770.5,638C 769.328,638.419 768.328,639.085 767.5,640C 768.03,644.97 768.197,650.137 768,655.5C 766.956,654.377 766.29,653.044 766,651.5C 765.833,652.667 765.667,653.833 765.5,655C 765.826,659.275 766.326,663.775 767,668.5C 767.423,667.044 768.256,666.544 769.5,667C 768.167,668.667 768.167,670.333 769.5,672C 769.091,674.947 768.091,677.614 766.5,680C 767.308,680.308 767.975,680.808 768.5,681.5C 768.154,682.696 767.654,682.696 767,681.5C 766.833,682.167 766.667,682.833 766.5,683.5C 766.737,686.063 767.237,686.063 768,683.5C 768.769,686.099 768.602,688.599 767.5,691C 768.471,692.204 769.471,692.704 770.5,692.5C 769.271,693.281 767.938,693.781 766.5,694C 767.167,694.333 767.833,694.667 768.5,695C 766.513,697.47 766.013,700.303 767,703.5C 769.658,702.306 770.824,703.306 770.5,706.5C 768.876,706.64 767.71,705.973 767,704.5C 766.333,709.5 766.333,714.5 767,719.5C 767.75,718.874 768.584,718.374 769.5,718C 769.112,716.475 769.112,714.808 769.5,713C 766.668,711.092 767.001,710.259 770.5,710.5C 770.5,714.5 770.5,718.5 770.5,722.5C 769.5,722.5 768.5,722.5 767.5,722.5C 767.5,723.833 767.5,725.167 767.5,726.5C 768.5,726.5 769.5,726.5 770.5,726.5C 770.762,727.978 770.429,729.311 769.5,730.5C 770.016,729.242 769.35,728.242 767.5,727.5C 766.348,730.106 766.182,732.773 767,735.5C 768.011,734.663 769.178,734.33 770.5,734.5C 768.865,737.416 767.531,740.583 766.5,744C 767.833,748.667 767.833,753.333 766.5,758C 767.167,758.333 767.833,758.667 768.5,759C 767.316,760.18 766.649,761.68 766.5,763.5C 767.094,768.081 767.094,772.748 766.5,777.5C 766.667,780.167 766.833,782.833 767,785.5C 767.654,784.304 768.154,784.304 768.5,785.5C 767.219,790.489 766.552,795.656 766.5,801C 766.185,816.201 766.518,831.368 767.5,846.5C 767.09,852.507 766.59,858.507 766,864.5C 765.5,901.498 765.333,938.498 765.5,975.5 Z"/></g>
<g><path style="opacity:1" fill="#666767" d="M 1378.5,710.5 C 1380.86,712.557 1381.86,715.224 1381.5,718.5C 1379.98,716.11 1378.98,713.443 1378.5,710.5 Z"/></g>
<g><path style="opacity:1" fill="#979798" d="M 1400.5,720.5 C 1402.41,724.216 1403.74,728.216 1404.5,732.5C 1402.19,728.915 1400.86,724.915 1400.5,720.5 Z"/></g>
<g><path style="opacity:1" fill="#abacab" d="M 1412.5,773.5 C 1413.89,778.269 1414.56,783.269 1414.5,788.5C 1413.11,783.731 1412.44,778.731 1412.5,773.5 Z"/></g>
<g><path style="opacity:1" fill="#0d0e12" d="M 903.5,526.5 C 903.5,718.5 903.5,910.5 903.5,1102.5C 932.5,1102.5 961.5,1102.5 990.5,1102.5C 964.005,1103.5 937.339,1103.83 910.5,1103.5C 908.038,1103.62 905.538,1103.95 903,1104.5C 902.5,987.834 902.333,871.167 902.5,754.5C 902.167,678.332 902.501,602.332 903.5,526.5 Z"/></g>
<g><path style="opacity:1" fill="#c8c8c8" d="M 1414.5,791.5 C 1415.17,798.158 1415.5,804.992 1415.5,812C 1415.66,822.707 1414.99,833.207 1413.5,843.5C 1414.3,826.179 1414.63,808.846 1414.5,791.5 Z"/></g>
<g><path style="opacity:1" fill="#212122" d="M 1391.5,873.5 C 1391.5,875.167 1391.5,876.833 1391.5,878.5C 1393.81,878.986 1395.97,878.986 1398,878.5C 1399,879.5 1400,880.5 1401,881.5C 1401.42,880.328 1402.09,879.328 1403,878.5C 1403.08,880.469 1402.91,882.469 1402.5,884.5C 1402.87,886.175 1403.87,887.175 1405.5,887.5C 1405.5,887.833 1405.5,888.167 1405.5,888.5C 1404.23,890.905 1403.57,893.572 1403.5,896.5C 1378.52,978.46 1328.18,1039.13 1252.5,1078.5C 1250.18,1078.99 1248.18,1079.99 1246.5,1081.5C 1234.82,1087.83 1222.49,1092.83 1209.5,1096.5C 1207.85,1096.66 1206.51,1097.33 1205.5,1098.5C 1200.73,1100.28 1195.73,1101.61 1190.5,1102.5C 1190.39,1101.88 1190.06,1101.38 1189.5,1101C 1191.22,1100.65 1192.88,1100.15 1194.5,1099.5C 1195.71,1098.73 1195.71,1097.89 1194.5,1097C 1196.6,1097.98 1198.6,1097.65 1200.5,1096C 1197.85,1093.92 1198.18,1092.25 1201.5,1091C 1200.33,1090.5 1199.5,1089.67 1199,1088.5C 1196.96,1092.42 1195.13,1092.25 1193.5,1088C 1192.21,1087.51 1190.87,1087.34 1189.5,1087.5C 1192.17,1086.5 1194.83,1085.5 1197.5,1084.5C 1200.01,1084.95 1202.01,1084.28 1203.5,1082.5C 1215.84,1077.72 1228.17,1072.72 1240.5,1067.5C 1242.23,1066.97 1243.56,1065.97 1244.5,1064.5C 1250.11,1060.69 1256.11,1057.36 1262.5,1054.5C 1264.03,1054.57 1265.03,1053.91 1265.5,1052.5C 1269.82,1049 1274.49,1046 1279.5,1043.5C 1281.75,1042.92 1283.42,1041.59 1284.5,1039.5C 1287.88,1036.12 1291.54,1033.12 1295.5,1030.5C 1297.03,1030.57 1298.03,1029.91 1298.5,1028.5C 1298.83,1027.5 1299.5,1026.83 1300.5,1026.5C 1303.09,1025.58 1305.09,1023.91 1306.5,1021.5C 1311.17,1016.17 1316.17,1011.17 1321.5,1006.5C 1323.17,1005.5 1324.5,1004.17 1325.5,1002.5C 1331.86,994.476 1338.2,986.476 1344.5,978.5C 1345.91,978.027 1346.57,977.027 1346.5,975.5C 1347.91,975.027 1348.57,974.027 1348.5,972.5C 1349.83,970.5 1351.17,968.5 1352.5,966.5C 1353.91,966.027 1354.57,965.027 1354.5,963.5C 1355.91,963.027 1356.57,962.027 1356.5,960.5C 1356.33,959.508 1356.66,958.842 1357.5,958.5C 1358.91,958.027 1359.57,957.027 1359.5,955.5C 1361.17,952.167 1362.83,948.833 1364.5,945.5C 1365.91,945.027 1366.57,944.027 1366.5,942.5C 1374.53,926.094 1381.2,909.094 1386.5,891.5C 1388.07,889.898 1388.74,887.898 1388.5,885.5C 1388.9,881.239 1389.9,877.239 1391.5,873.5 Z"/></g>
<g><path style="opacity:1" fill="#a2a2a2" d="M 1388.5,885.5 C 1388.74,887.898 1388.07,889.898 1386.5,891.5C 1386.59,889.214 1387.26,887.214 1388.5,885.5 Z"/></g>
<g><path style="opacity:1" fill="#c2c2c2" d="M 1405.5,888.5 C 1405.71,891.495 1405.04,894.162 1403.5,896.5C 1403.57,893.572 1404.23,890.905 1405.5,888.5 Z"/></g>
<g><path style="opacity:1" fill="#c6c6c6" d="M 1366.5,942.5 C 1366.57,944.027 1365.91,945.027 1364.5,945.5C 1364.43,943.973 1365.09,942.973 1366.5,942.5 Z"/></g>
<g><path style="opacity:1" fill="#a2a2a2" d="M 1359.5,955.5 C 1359.57,957.027 1358.91,958.027 1357.5,958.5C 1357.43,956.973 1358.09,955.973 1359.5,955.5 Z"/></g>
<g><path style="opacity:1" fill="#9e9e9e" d="M 1356.5,960.5 C 1356.57,962.027 1355.91,963.027 1354.5,963.5C 1354.43,961.973 1355.09,960.973 1356.5,960.5 Z"/></g>
<g><path style="opacity:1" fill="#acacad" d="M 1354.5,963.5 C 1354.57,965.027 1353.91,966.027 1352.5,966.5C 1352.43,964.973 1353.09,963.973 1354.5,963.5 Z"/></g>
<g><path style="opacity:1" fill="#adadac" d="M 1348.5,972.5 C 1348.57,974.027 1347.91,975.027 1346.5,975.5C 1346.43,973.973 1347.09,972.973 1348.5,972.5 Z"/></g>
<g><path style="opacity:1" fill="#939393" d="M 1346.5,975.5 C 1346.57,977.027 1345.91,978.027 1344.5,978.5C 1344.43,976.973 1345.09,975.973 1346.5,975.5 Z"/></g>
<g><path style="opacity:1" fill="#191e1e" d="M 765.5,989.5 C 765.5,984.833 765.5,980.167 765.5,975.5C 767.045,976.23 767.878,977.563 768,979.5C 768.207,975.911 768.707,972.411 769.5,969C 768.517,931.317 768.517,893.15 769.5,854.5C 770.137,901.555 770.803,948.389 771.5,995C 770.833,1005 770.167,1015 769.5,1025C 770.374,1047.9 770.707,1070.74 770.5,1093.5C 770.632,1097.35 770.132,1101.02 769,1104.5C 768.173,1079.59 768.339,1054.76 769.5,1030C 767.937,1013.71 767.437,997.212 768,980.5C 768.07,983.992 767.237,986.992 765.5,989.5 Z"/></g>
<g><path style="opacity:1" fill="#acacac" d="M 1325.5,1002.5 C 1324.5,1004.17 1323.17,1005.5 1321.5,1006.5C 1321.83,1004.17 1323.17,1002.83 1325.5,1002.5 Z"/></g>
<g><path style="opacity:1" fill="#646665" d="M 903.5,526.5 C 973.669,526.167 1043.67,526.501 1113.5,527.5C 1043.83,527.5 974.167,527.5 904.5,527.5C 904.5,718.833 904.5,910.167 904.5,1101.5C 971.167,1101.5 1037.83,1101.5 1104.5,1101.5C 1066.67,1102.5 1028.67,1102.83 990.5,1102.5C 961.5,1102.5 932.5,1102.5 903.5,1102.5C 903.5,910.5 903.5,718.5 903.5,526.5 Z"/></g>
<g><path style="opacity:1" fill="#888988" d="M 1306.5,1021.5 C 1305.09,1023.91 1303.09,1025.58 1300.5,1026.5C 1301.91,1024.09 1303.91,1022.42 1306.5,1021.5 Z"/></g>
<g><path style="opacity:1" fill="#9a9d9d" d="M 1298.5,1028.5 C 1298.03,1029.91 1297.03,1030.57 1295.5,1030.5C 1295.97,1029.09 1296.97,1028.43 1298.5,1028.5 Z"/></g>
<g><path style="opacity:1" fill="#6a6b6b" d="M 1284.5,1039.5 C 1283.42,1041.59 1281.75,1042.92 1279.5,1043.5C 1280.58,1041.41 1282.25,1040.08 1284.5,1039.5 Z"/></g>
<g><path style="opacity:1" fill="#a9a9a9" d="M 1265.5,1052.5 C 1265.03,1053.91 1264.03,1054.57 1262.5,1054.5C 1262.97,1053.09 1263.97,1052.43 1265.5,1052.5 Z"/></g>
<g><path style="opacity:1" fill="#aaaaaa" d="M 1244.5,1064.5 C 1243.56,1065.97 1242.23,1066.97 1240.5,1067.5C 1241.03,1065.55 1242.37,1064.55 1244.5,1064.5 Z"/></g>
<g><path style="opacity:1" fill="#d6d8d6" d="M 1252.5,1078.5 C 1251.09,1080.54 1249.09,1081.54 1246.5,1081.5C 1248.18,1079.99 1250.18,1078.99 1252.5,1078.5 Z"/></g>
<g><path style="opacity:1" fill="#959598" d="M 1203.5,1082.5 C 1202.01,1084.28 1200.01,1084.95 1197.5,1084.5C 1199.21,1083.26 1201.21,1082.59 1203.5,1082.5 Z"/></g>
<g><path style="opacity:1" fill="#848a84" d="M 1189.5,1087.5 C 1187.16,1089.04 1184.5,1089.71 1181.5,1089.5C 1183.91,1088.23 1186.57,1087.57 1189.5,1087.5 Z"/></g>
<g><path style="opacity:1" fill="#c5c5c5" d="M 1155.5,1095.5 C 1153.34,1096.41 1151.01,1097.07 1148.5,1097.5C 1148.61,1096.88 1148.94,1096.38 1149.5,1096C 1151.47,1095.5 1153.47,1095.34 1155.5,1095.5 Z"/></g>
<g><path style="opacity:1" fill="#1f2021" d="M 1189.5,1087.5 C 1190.87,1087.34 1192.21,1087.51 1193.5,1088C 1195.13,1092.25 1196.96,1092.42 1199,1088.5C 1199.5,1089.67 1200.33,1090.5 1201.5,1091C 1198.18,1092.25 1197.85,1093.92 1200.5,1096C 1198.6,1097.65 1196.6,1097.98 1194.5,1097C 1195.71,1097.89 1195.71,1098.73 1194.5,1099.5C 1192.88,1100.15 1191.22,1100.65 1189.5,1101C 1190.06,1101.38 1190.39,1101.88 1190.5,1102.5C 1182.61,1105.75 1174.27,1107.75 1165.5,1108.5C 1164.5,1108.5 1163.5,1108.5 1162.5,1108.5C 1162.95,1107.54 1163.62,1106.71 1164.5,1106C 1160.42,1107.32 1157.59,1105.82 1156,1101.5C 1155.58,1102.67 1154.91,1103.67 1154,1104.5C 1153.16,1102.99 1152,1102.49 1150.5,1103C 1151.64,1103.74 1151.64,1104.57 1150.5,1105.5C 1152.47,1106.33 1154.47,1106.5 1156.5,1106C 1154.32,1107.14 1151.99,1107.98 1149.5,1108.5C 1148.71,1107.93 1148.71,1107.1 1149.5,1106C 1148.99,1104.83 1148.16,1104 1147,1103.5C 1146.37,1105.99 1145.54,1105.99 1144.5,1103.5C 1140.61,1104.05 1136.44,1104.38 1132,1104.5C 1131.28,1102.99 1128.95,1101.99 1125,1101.5C 1124.33,1102.17 1123.67,1102.83 1123,1103.5C 1120.67,1101.97 1118.67,1102.3 1117,1104.5C 1107.58,1103.35 1098.08,1103.18 1088.5,1104C 1085.83,1104.83 1083.16,1105.67 1080.5,1106.5C 1076.67,1105.33 1072.67,1105.33 1068.5,1106.5C 1065.16,1106.52 1061.99,1105.85 1059,1104.5C 1057.69,1106.89 1056.69,1106.89 1056,1104.5C 1006.95,1104.7 958.948,1105.04 912,1105.5C 911.283,1104.96 910.783,1104.29 910.5,1103.5C 937.339,1103.83 964.005,1103.5 990.5,1102.5C 1028.67,1102.83 1066.67,1102.5 1104.5,1101.5C 1119.12,1100.23 1133.79,1098.9 1148.5,1097.5C 1151.01,1097.07 1153.34,1096.41 1155.5,1095.5C 1164.17,1093.9 1172.84,1091.9 1181.5,1089.5C 1184.5,1089.71 1187.16,1089.04 1189.5,1087.5 Z"/></g>
<g><path style="opacity:1" fill="#cbcbcb" d="M 1209.5,1096.5 C 1208.71,1098.1 1207.38,1098.77 1205.5,1098.5C 1206.51,1097.33 1207.85,1096.66 1209.5,1096.5 Z"/></g>
<g><path style="opacity:1" fill="#c3c3c4" d="M 1162.5,1108.5 C 1163.5,1108.5 1164.5,1108.5 1165.5,1108.5C 1165.39,1109.12 1165.06,1109.62 1164.5,1110C 1162.53,1110.5 1160.53,1110.66 1158.5,1110.5C 1159.83,1109.83 1161.17,1109.17 1162.5,1108.5 Z"/></g>
<g><path style="opacity:1" fill="#18191a" d="M 1109.5,1115.5 C 1109.5,1115.83 1109.5,1116.17 1109.5,1116.5C 1108.83,1116.5 1108.17,1116.5 1107.5,1116.5C 1039.5,1116.5 971.5,1116.5 903.5,1116.5C 903.67,1115.18 903.337,1114.01 902.5,1113C 903.449,1112.38 904.282,1112.55 905,1113.5C 906.092,1110.01 907.925,1109.68 910.5,1112.5C 921.268,1111.78 931.768,1111.78 942,1112.5C 946.414,1111.7 950.914,1111.2 955.5,1111C 954.294,1109.98 954.627,1109.48 956.5,1109.5C 958.373,1109.48 958.706,1109.98 957.5,1111C 961.488,1111.28 965.321,1112.11 969,1113.5C 972.848,1112.53 976.514,1111.86 980,1111.5C 981.333,1112.17 982.667,1112.83 984,1113.5C 984.333,1112.83 984.667,1112.17 985,1111.5C 999.745,1112.2 1014.58,1112.54 1029.5,1112.5C 1031.44,1111.81 1033.44,1111.31 1035.5,1111C 1013.83,1110.67 992.167,1110.33 970.5,1110C 971,1109.5 971.5,1109 972,1108.5C 1009.62,1109.41 1048.29,1109.74 1088,1109.5C 1088.33,1108.83 1088.67,1108.17 1089,1107.5C 1093.21,1108.53 1097.21,1108.53 1101,1107.5C 1101.37,1108.42 1101.87,1109.25 1102.5,1110C 1099.56,1109.19 1096.89,1109.69 1094.5,1111.5C 1086.22,1110.36 1077.88,1110.2 1069.5,1111C 1068.3,1111.65 1068.3,1112.15 1069.5,1112.5C 1075.65,1112.12 1081.82,1111.79 1088,1111.5C 1089.65,1111.82 1090.65,1112.82 1091,1114.5C 1092.4,1114.5 1093.9,1114.17 1095.5,1113.5C 1096.31,1113.81 1096.97,1114.31 1097.5,1115C 1101.49,1115.5 1105.49,1115.67 1109.5,1115.5 Z"/></g>
<g><path style="opacity:1" fill="#cfcfcf" d="M 1125.5,1114.5 C 1125.08,1115.22 1124.42,1115.72 1123.5,1116C 1118.85,1116.5 1114.18,1116.67 1109.5,1116.5C 1109.5,1116.17 1109.5,1115.83 1109.5,1115.5C 1114.87,1115.61 1120.2,1115.27 1125.5,1114.5 Z"/></g>
<g><path style="opacity:1" fill="#191e1e" d="M 769.5,1107.5 C 769.842,1118.3 770.509,1129.8 771.5,1142C 770.308,1182.37 770.308,1223.37 771.5,1265C 770.833,1266.67 770.167,1268.33 769.5,1270C 770.372,1290.64 770.372,1310.97 769.5,1331C 770.167,1331.33 770.833,1331.67 771.5,1332C 770.833,1334.33 770.167,1336.67 769.5,1339C 770.833,1341.67 770.833,1344.33 769.5,1347C 770.475,1351.83 771.141,1356.5 771.5,1361C 770.667,1361.83 769.833,1362.67 769,1363.5C 768.798,1357.23 768.965,1350.4 769.5,1343C 768.833,1342.33 768.167,1341.67 767.5,1341C 768.167,1338.33 768.833,1335.67 769.5,1333C 768.786,1298.58 768.286,1263.75 768,1228.5C 767.667,1238.5 767.333,1248.5 767,1258.5C 766.333,1244.83 766.333,1231.17 767,1217.5C 767.333,1220.83 767.667,1224.17 768,1227.5C 768.806,1224.1 769.306,1220.6 769.5,1217C 768.809,1215.93 768.309,1214.77 768,1213.5C 767.444,1215.6 766.944,1215.76 766.5,1214C 768.14,1195.39 769.14,1176.72 769.5,1158C 767.668,1141.31 767.668,1124.48 769.5,1107.5 Z"/></g>
<g><path style="opacity:1" fill="#181919" d="M 903.5,1116.5 C 903.5,1200.5 903.5,1284.5 903.5,1368.5C 902.675,1364.35 902.175,1360.02 902,1355.5C 901.198,1360.42 901.365,1365.25 902.5,1370C 901.833,1370.33 901.167,1370.67 900.5,1371C 900.5,1372.67 900.5,1374.33 900.5,1376C 899.584,1376.37 898.75,1376.87 898,1377.5C 897.833,1377.17 897.667,1376.83 897.5,1376.5C 898.145,1375.27 898.311,1373.93 898,1372.5C 898.654,1373.7 899.154,1373.7 899.5,1372.5C 898.975,1371.81 898.308,1371.31 897.5,1371C 898.167,1369.33 898.833,1367.67 899.5,1366C 899.659,1343.08 899.326,1319.41 898.5,1295C 899.755,1280.7 900.422,1266.7 900.5,1253C 899.222,1246.22 898.555,1239.55 898.5,1233C 899.167,1225.67 899.833,1218.33 900.5,1211C 899.251,1205.78 898.751,1200.61 899,1195.5C 898.346,1196.7 897.846,1196.7 897.5,1195.5C 900.167,1193.5 900.167,1191.5 897.5,1189.5C 897.846,1188.3 898.346,1188.3 899,1189.5C 899.212,1186.24 899.712,1183.08 900.5,1180C 899.899,1158.57 899.732,1136.74 900,1114.5C 901.757,1116.88 901.923,1119.38 900.5,1122C 901.31,1127.75 901.81,1133.58 902,1139.5C 902.171,1131.66 902.671,1123.99 903.5,1116.5 Z"/></g>
<g><path style="opacity:1" fill="#5a5d5c" d="M 903.5,1116.5 C 971.5,1116.5 1039.5,1116.5 1107.5,1116.5C 1040,1117.5 972.335,1117.83 904.5,1117.5C 904.5,1201.5 904.5,1285.5 904.5,1369.5C 903.833,1369.5 903.5,1369.17 903.5,1368.5C 903.5,1284.5 903.5,1200.5 903.5,1116.5 Z"/></g>
<g><path style="opacity:1" fill="#b5b8b5" d="M 912.5,1445.5 C 913.738,1447.21 914.405,1449.21 914.5,1451.5C 914.167,1451.5 913.833,1451.5 913.5,1451.5C 912.85,1449.56 912.517,1447.56 912.5,1445.5 Z"/></g>
<g><path style="opacity:1" fill="#6b6e6d" d="M 756.5,1445.5 C 755.709,1448.42 755.709,1451.25 756.5,1454C 755.473,1454.51 754.473,1455.01 753.5,1455.5C 753.899,1451.88 754.899,1448.55 756.5,1445.5 Z"/></g>
<g><path style="opacity:1" fill="#565656" d="M 749.5,1466.5 C 748.982,1469.89 748.149,1473.22 747,1476.5C 746.23,1475.4 745.397,1475.4 744.5,1476.5C 745.659,1472.85 747.326,1469.52 749.5,1466.5 Z"/></g>
<g><path style="opacity:1" fill="#a7a7a7" d="M 744.5,1476.5 C 744.573,1478.03 743.906,1479.03 742.5,1479.5C 742.427,1477.97 743.094,1476.97 744.5,1476.5 Z"/></g>
<g><path style="opacity:1" fill="#8d8e8e" d="M 925.5,1478.5 C 926.906,1478.97 927.573,1479.97 927.5,1481.5C 926.094,1481.03 925.427,1480.03 925.5,1478.5 Z"/></g>
<g><path style="opacity:1" fill="#cdcdcd" d="M 933.5,1489.5 C 935.5,1489.5 936.5,1490.5 936.5,1492.5C 935.167,1491.83 934.167,1490.83 933.5,1489.5 Z"/></g>
<g><path style="opacity:1" fill="#a8abab" d="M 736.5,1488.5 C 735.167,1490.5 733.5,1492.17 731.5,1493.5C 732.167,1490.83 733.833,1489.17 736.5,1488.5 Z"/></g>
<g><path style="opacity:1" fill="#c9c9c9" d="M 940.5,1496.5 C 942.027,1496.43 943.027,1497.09 943.5,1498.5C 941.973,1498.57 940.973,1497.91 940.5,1496.5 Z"/></g>
<g><path style="opacity:1" fill="#c7c7c7" d="M 725.5,1498.5 C 725.167,1499.5 724.5,1500.17 723.5,1500.5C 723.5,1499.17 724.167,1498.5 725.5,1498.5 Z"/></g>
<g><path style="opacity:1" fill="#949494" d="M 947.5,1501.5 C 949.23,1502.03 950.564,1503.03 951.5,1504.5C 949.368,1504.45 948.035,1503.45 947.5,1501.5 Z"/></g>
<g><path style="opacity:1" fill="#b2b5b2" d="M 718.5,1503.5 C 718.167,1504.17 717.833,1504.83 717.5,1505.5C 716.833,1505.5 716.167,1505.5 715.5,1505.5C 715.973,1504.09 716.973,1503.43 718.5,1503.5 Z"/></g>
<g><path style="opacity:1" fill="#212223" d="M 913.5,1451.5 C 913.833,1451.5 914.167,1451.5 914.5,1451.5C 915.022,1454.57 915.855,1457.57 917,1460.5C 920.118,1466.4 922.951,1472.4 925.5,1478.5C 925.427,1480.03 926.094,1481.03 927.5,1481.5C 929.853,1483.86 931.853,1486.53 933.5,1489.5C 934.167,1490.83 935.167,1491.83 936.5,1492.5C 937.833,1493.83 939.167,1495.17 940.5,1496.5C 940.973,1497.91 941.973,1498.57 943.5,1498.5C 944.833,1499.5 946.167,1500.5 947.5,1501.5C 948.035,1503.45 949.368,1504.45 951.5,1504.5C 954.669,1505.92 957.669,1507.58 960.5,1509.5C 961.78,1510.93 963.447,1511.6 965.5,1511.5C 969.248,1512.86 972.914,1514.19 976.5,1515.5C 978.838,1517.04 981.505,1517.71 984.5,1517.5C 985.167,1517.5 985.5,1517.83 985.5,1518.5C 982.587,1519.56 979.754,1520.89 977,1522.5C 976,1521.17 975,1521.17 974,1522.5C 973.311,1521.64 972.478,1520.98 971.5,1520.5C 971.488,1523.26 970.155,1523.76 967.5,1522C 968.96,1521.19 969.293,1520.36 968.5,1519.5C 965.379,1520.2 962.379,1520.54 959.5,1520.5C 957.577,1517.89 955.41,1514.89 953,1511.5C 952,1512.5 951,1513.5 950,1514.5C 949.5,1513.33 948.667,1512.5 947.5,1512C 948.91,1511.63 949.91,1510.8 950.5,1509.5C 949.174,1509.79 947.841,1509.29 946.5,1508C 947.167,1507.67 947.833,1507.33 948.5,1507C 945.833,1506.33 945.833,1505.67 948.5,1505C 947.24,1503.89 946.073,1503.72 945,1504.5C 944.692,1503.69 944.192,1503.03 943.5,1502.5C 943.693,1503.69 943.193,1505.02 942,1506.5C 940.667,1505.17 939.333,1503.83 938,1502.5C 937.043,1504.71 935.876,1504.54 934.5,1502C 935.451,1501.28 935.617,1500.45 935,1499.5C 932.65,1497.32 930.483,1494.98 928.5,1492.5C 927.575,1491.36 926.741,1491.36 926,1492.5C 925.333,1491.5 925.333,1490.5 926,1489.5C 926.333,1489.83 926.667,1490.17 927,1490.5C 927.5,1489.5 928,1488.5 928.5,1487.5C 927.139,1485.97 925.972,1484.3 925,1482.5C 924.851,1485.28 924.017,1485.78 922.5,1484C 922.404,1482.63 922.57,1481.13 923,1479.5C 921.442,1478.65 920.442,1479.32 920,1481.5C 919.529,1479.75 918.862,1478.09 918,1476.5C 914.381,1474.29 912.214,1471.45 911.5,1468C 913.991,1467.37 913.991,1466.54 911.5,1465.5C 912.166,1464.17 912.166,1462.67 911.5,1461C 911.539,1459.11 912.206,1458.11 913.5,1458C 913.241,1456.74 912.574,1455.74 911.5,1455C 912.085,1453.7 912.751,1452.53 913.5,1451.5 Z"/></g>
<g><path style="opacity:1" fill="#d5d5d5" d="M 705.5,1510.5 C 704.71,1511.4 703.71,1512.07 702.5,1512.5C 702.821,1510.95 703.821,1510.29 705.5,1510.5 Z"/></g>
<g><path style="opacity:1" fill="#bcbcbc" d="M 960.5,1509.5 C 962.553,1509.4 964.22,1510.07 965.5,1511.5C 963.447,1511.6 961.78,1510.93 960.5,1509.5 Z"/></g>
<g><path style="opacity:1" fill="#d1d1d1" d="M 976.5,1515.5 C 979.428,1515.57 982.095,1516.23 984.5,1517.5C 981.505,1517.71 978.838,1517.04 976.5,1515.5 Z"/></g>
<g><path style="opacity:1" fill="#8d8e8e" d="M 696.5,1514.5 C 692.406,1516.28 688.073,1517.61 683.5,1518.5C 683.611,1517.88 683.944,1517.38 684.5,1517C 688.447,1515.85 692.447,1515.01 696.5,1514.5 Z"/></g>
<g><path style="opacity:1" fill="#1f1f21" d="M 715.5,1505.5 C 716.167,1505.5 716.833,1505.5 717.5,1505.5C 717.393,1507.38 717.893,1507.71 719,1506.5C 720.628,1507.82 720.461,1509.15 718.5,1510.5C 719.59,1511.61 719.59,1512.61 718.5,1513.5C 717.833,1512.5 717.167,1511.5 716.5,1510.5C 715.914,1510.71 715.414,1511.04 715,1511.5C 713.771,1509.05 712.271,1508.89 710.5,1511C 711.308,1511.31 711.975,1511.81 712.5,1512.5C 710.161,1513.42 708.661,1515.08 708,1517.5C 706.333,1516.83 704.667,1516.17 703,1515.5C 702.689,1516.74 703.189,1517.74 704.5,1518.5C 703.282,1518.11 702.448,1518.78 702,1520.5C 701.667,1519.83 701.333,1519.17 701,1518.5C 700.333,1521.17 699.667,1521.17 699,1518.5C 697.667,1519.83 696.333,1519.83 695,1518.5C 694.047,1520.59 692.714,1520.93 691,1519.5C 690.683,1521.3 690.016,1521.63 689,1520.5C 686.626,1523.29 685.293,1522.95 685,1519.5C 683.846,1520.74 682.512,1521.74 681,1522.5C 680.333,1519.83 679.667,1519.83 679,1522.5C 677.081,1521.03 676.081,1521.36 676,1523.5C 677.131,1522.4 677.965,1522.73 678.5,1524.5C 677.431,1524.64 676.264,1524.64 675,1524.5C 673.745,1525.21 672.579,1526.04 671.5,1527C 670.235,1528.98 670.235,1530.98 671.5,1533C 693.401,1533.31 715.401,1533.14 737.5,1532.5C 739.026,1532.99 740.359,1533.66 741.5,1534.5C 705.167,1534.5 668.833,1534.5 632.5,1534.5C 632.335,1531.15 632.502,1527.82 633,1524.5C 633.5,1524 634,1523.5 634.5,1523C 650.924,1522.37 667.257,1520.87 683.5,1518.5C 688.073,1517.61 692.406,1516.28 696.5,1514.5C 698.214,1513.26 700.214,1512.59 702.5,1512.5C 703.71,1512.07 704.71,1511.4 705.5,1510.5C 708.768,1508.87 712.101,1507.2 715.5,1505.5 Z"/></g>
<g><path style="opacity:1" fill="#242525" d="M 1036.5,1525.5 C 1036.5,1528.83 1036.5,1532.17 1036.5,1535.5C 901.666,1535.83 766.999,1535.5 632.5,1534.5C 668.833,1534.5 705.167,1534.5 741.5,1534.5C 839.5,1534.5 937.5,1534.5 1035.5,1534.5C 1035.19,1531.29 1035.52,1528.29 1036.5,1525.5 Z"/></g>
</svg>
