<?xml version="1.0" encoding="UTF-8"?>
<!DOCTYPE svg PUBLIC "-//W3C//DTD SVG 1.1//EN" "http://www.w3.org/Graphics/SVG/1.1/DTD/svg11.dtd">
<svg xmlns="http://www.w3.org/2000/svg" version="1.1" width="2048px" height="2048px" style="shape-rendering:geometricPrecision; text-rendering:geometricPrecision; image-rendering:optimizeQuality; fill-rule:evenodd; clip-rule:evenodd" xmlns:xlink="http://www.w3.org/1999/xlink">
<g><path style="opacity:1" fill="#232424" d="M 511.5,512.5 C 603.332,511.501 695.332,511.167 787.5,511.5C 695.449,513.094 603.449,513.427 511.5,512.5 Z"/></g>
<g><path style="opacity:1" fill="#1a1a1e" d="M 787.5,511.5 C 789.5,511.5 791.5,511.5 793.5,511.5C 793.5,515.5 793.5,519.5 793.5,523.5C 789.298,523.183 785.298,523.517 781.5,524.5C 770.315,525.892 758.982,527.225 747.5,528.5C 745.597,528.796 743.93,529.463 742.5,530.5C 728.245,533.813 714.912,539.48 702.5,547.5C 698.698,542.966 696.365,543.632 695.5,549.5C 694.127,549.343 692.793,549.51 691.5,550C 692.784,551.297 692.617,552.464 691,553.5C 690.667,553.167 690.333,552.833 690,552.5C 684.171,553.723 684.338,554.89 690.5,556C 691.252,556.671 691.586,557.504 691.5,558.5C 691.5,558.833 691.5,559.167 691.5,559.5C 690.5,559.833 689.833,560.5 689.5,561.5C 688.833,562.833 688.167,564.167 687.5,565.5C 685.461,566.911 684.461,568.911 684.5,571.5C 683.341,573.855 682.341,576.188 681.5,578.5C 679.882,581.171 679.215,584.171 679.5,587.5C 678.232,589.905 677.565,592.572 677.5,595.5C 677.5,602.5 677.5,609.5 677.5,616.5C 677.565,619.428 678.232,622.095 679.5,624.5C 680.834,632.14 682.5,639.807 684.5,647.5C 684.5,649.167 684.5,650.833 684.5,652.5C 683.366,654.966 683.199,657.633 684,660.5C 684.654,659.304 685.154,659.304 685.5,660.5C 684.05,661.85 683.383,663.516 683.5,665.5C 686.765,665.3 688.765,666.8 689.5,670C 689.108,671.011 688.441,671.511 687.5,671.5C 687.709,672.086 688.043,672.586 688.5,673C 687.642,674.788 686.642,676.622 685.5,678.5C 684.5,678 683.5,677.5 682.5,677C 682.943,675.482 682.276,674.315 680.5,673.5C 679.692,673.808 679.025,674.308 678.5,675C 680.068,680.627 679.068,680.961 675.5,676C 675.833,675.667 676.167,675.333 676.5,675C 673.773,672.759 673.106,670.093 674.5,667C 673.929,665.795 673.262,664.628 672.5,663.5C 671.197,664.718 670.197,664.385 669.5,662.5C 668.692,662.808 668.025,663.308 667.5,664C 668.641,664.741 668.641,665.575 667.5,666.5C 668.025,667.192 668.692,667.692 669.5,668C 668.748,668.671 668.414,669.504 668.5,670.5C 664.691,664.767 662.025,658.433 660.5,651.5C 660.34,649.847 659.674,648.514 658.5,647.5C 656.987,643.823 655.321,640.156 653.5,636.5C 653.598,634.447 652.931,632.78 651.5,631.5C 648.394,626.95 646.061,621.95 644.5,616.5C 644.759,614.011 643.759,612.344 641.5,611.5C 639.25,608.001 637.25,604.335 635.5,600.5C 635.573,598.973 634.906,597.973 633.5,597.5C 631.992,595.819 630.992,593.819 630.5,591.5C 630.167,590.5 629.5,589.833 628.5,589.5C 626.5,586.5 624.5,583.5 622.5,580.5C 622.573,578.973 621.906,577.973 620.5,577.5C 620.167,576.833 619.833,576.167 619.5,575.5C 618.833,574.167 617.833,573.167 616.5,572.5C 611.843,566.177 606.51,560.51 600.5,555.5C 599.833,554.167 598.833,553.167 597.5,552.5C 596.5,551.833 595.5,551.167 594.5,550.5C 593.415,548.413 591.749,547.08 589.5,546.5C 586.996,545.416 584.663,544.083 582.5,542.5C 581.71,541.599 580.71,540.932 579.5,540.5C 572.739,538.025 566.073,535.359 559.5,532.5C 557.898,530.926 555.898,530.259 553.5,530.5C 540.067,527.175 526.4,525.009 512.5,524C 511.54,520.27 511.207,516.437 511.5,512.5C 603.449,513.427 695.449,513.094 787.5,511.5 Z"/></g>
<g><path style="opacity:1" fill="#1b1c1e" d="M 1535.5,511.5 C 1535.5,515.167 1535.5,518.833 1535.5,522.5C 1531.96,522.753 1528.63,523.419 1525.5,524.5C 1516.2,525.785 1506.87,527.451 1497.5,529.5C 1497.17,529.5 1496.83,529.5 1496.5,529.5C 1496.57,527.589 1497.57,526.422 1499.5,526C 1496.8,525.947 1494.13,526.447 1491.5,527.5C 1490.83,527.167 1490.17,526.833 1489.5,526.5C 1490.9,524.83 1492.9,523.996 1495.5,524C 1494.43,522.716 1493.09,522.383 1491.5,523C 1490,521.5 1488.5,520 1487,518.5C 1485.51,519.253 1485.35,520.086 1486.5,521C 1483.07,521.728 1480.41,520.561 1478.5,517.5C 1476.32,516.892 1474.32,517.559 1472.5,519.5C 1471.83,518.833 1471.17,518.167 1470.5,517.5C 1470.21,519.217 1469.54,521.217 1468.5,523.5C 1467.83,521.833 1467.17,520.167 1466.5,518.5C 1464.35,519.758 1462.18,519.758 1460,518.5C 1458.53,518.903 1457.19,519.57 1456,520.5C 1455.52,519.552 1455.35,518.552 1455.5,517.5C 1452.31,517.176 1451.31,518.342 1452.5,521C 1452,521.167 1451.5,521.333 1451,521.5C 1448.88,519.203 1446.38,517.536 1443.5,516.5C 1442.33,516.919 1441.33,517.585 1440.5,518.5C 1439.37,516.926 1439.2,515.259 1440,513.5C 1440.74,514.574 1441.74,515.241 1443,515.5C 1444.23,514.385 1445.4,514.385 1446.5,515.5C 1447.94,512.956 1449.44,512.956 1451,515.5C 1453.32,514.5 1456.15,513.833 1459.5,513.5C 1461.5,513.667 1463.5,513.833 1465.5,514C 1466,514.5 1466.5,515 1467,515.5C 1469.41,512.895 1471.91,512.895 1474.5,515.5C 1475.19,514.975 1475.69,514.308 1476,513.5C 1477.67,516.167 1479.33,516.167 1481,513.5C 1481.67,514.167 1482.33,514.833 1483,515.5C 1483.74,514.359 1484.57,514.359 1485.5,515.5C 1486.5,514.833 1487.5,514.167 1488.5,513.5C 1489.83,514.5 1491.17,515.5 1492.5,516.5C 1493.77,514.171 1495.77,513.005 1498.5,513C 1456.16,512.167 1413.83,512.333 1371.5,513.5C 1371.83,514.167 1372.17,514.833 1372.5,515.5C 1369.81,517.83 1367.31,517.83 1365,515.5C 1362.26,516.282 1359.43,516.782 1356.5,517C 1355.62,518.356 1355.29,519.856 1355.5,521.5C 1354.07,519.706 1352.41,518.039 1350.5,516.5C 1343.65,517.652 1336.82,517.652 1330,516.5C 1328.34,516.388 1327.17,517.054 1326.5,518.5C 1330.69,523.935 1329.36,524.935 1322.5,521.5C 1321.83,523.5 1321.17,525.5 1320.5,527.5C 1319.62,526.24 1318.62,525.074 1317.5,524C 1318.5,523.667 1319.5,523.333 1320.5,523C 1319.84,520.273 1318.68,517.773 1317,515.5C 1315.99,516.337 1314.82,516.67 1313.5,516.5C 1313.52,518.143 1312.85,519.476 1311.5,520.5C 1312.83,521.833 1314.17,523.167 1315.5,524.5C 1314.5,525.5 1313.5,526.5 1312.5,527.5C 1311.3,527.154 1311.3,526.654 1312.5,526C 1310.08,525.085 1308.08,523.585 1306.5,521.5C 1305.83,523.5 1305.17,525.5 1304.5,527.5C 1301.11,525.306 1300.77,522.639 1303.5,519.5C 1303.33,518.167 1303.17,516.833 1303,515.5C 1301.47,515.888 1299.81,515.888 1298,515.5C 1298.07,519.351 1297.57,523.351 1296.5,527.5C 1293.83,524.833 1291.17,524.833 1288.5,527.5C 1286.42,525.007 1284.59,522.341 1283,519.5C 1281.04,522.018 1280.37,524.684 1281,527.5C 1279.44,524.956 1277.94,524.956 1276.5,527.5C 1275.17,524.833 1273.83,524.833 1272.5,527.5C 1271.83,526.833 1271.17,526.167 1270.5,525.5C 1269.33,527.365 1269.67,529.032 1271.5,530.5C 1271,531.5 1270.5,532.5 1270,533.5C 1265.27,528.138 1264.44,528.805 1267.5,535.5C 1266.88,537.116 1265.88,538.449 1264.5,539.5C 1262.4,537.466 1260.07,537.132 1257.5,538.5C 1258.17,539.167 1258.83,539.833 1259.5,540.5C 1258.48,541.354 1257.64,542.354 1257,543.5C 1255.98,541.624 1255.15,539.624 1254.5,537.5C 1253.5,538.5 1252.5,539.5 1251.5,540.5C 1253.17,542.833 1255.17,544.833 1257.5,546.5C 1255.82,547.728 1255.49,549.061 1256.5,550.5C 1256.17,550.5 1255.83,550.5 1255.5,550.5C 1254.83,550.5 1254.5,550.167 1254.5,549.5C 1254.57,547.973 1253.91,546.973 1252.5,546.5C 1251.83,546.5 1251.5,546.167 1251.5,545.5C 1250.74,543.738 1249.4,542.738 1247.5,542.5C 1247.03,541.094 1246.03,540.427 1244.5,540.5C 1241.77,539.134 1239.1,537.801 1236.5,536.5C 1235.49,535.326 1234.15,534.66 1232.5,534.5C 1223.49,532.398 1214.49,530.231 1205.5,528C 1190.37,526.612 1175.37,524.779 1160.5,522.5C 1160.5,518.833 1160.5,515.167 1160.5,511.5C 1285.5,511.5 1410.5,511.5 1535.5,511.5 Z"/></g>
<g><path style="opacity:1" fill="#797a79" d="M 1535.5,511.5 C 1536.48,515.634 1536.82,519.968 1536.5,524.5C 1532.83,524.5 1529.17,524.5 1525.5,524.5C 1528.63,523.419 1531.96,522.753 1535.5,522.5C 1535.5,518.833 1535.5,515.167 1535.5,511.5 Z"/></g>
<g><path style="opacity:1" fill="#19191e" d="M 1496.5,529.5 C 1492.79,529.59 1489.45,530.59 1486.5,532.5C 1484.23,533.319 1481.89,533.985 1479.5,534.5C 1477.85,534.66 1476.51,535.326 1475.5,536.5C 1469.04,539.465 1462.71,542.799 1456.5,546.5C 1455.29,546.932 1454.29,547.599 1453.5,548.5C 1450.83,550.833 1448.17,553.167 1445.5,555.5C 1443.97,555.427 1442.97,556.094 1442.5,557.5C 1442.5,558.167 1442.17,558.5 1441.5,558.5C 1439.5,559.833 1437.83,561.5 1436.5,563.5C 1436.5,564.167 1436.17,564.5 1435.5,564.5C 1434.09,564.973 1433.43,565.973 1433.5,567.5C 1428.93,572.977 1424.59,578.643 1420.5,584.5C 1419.09,584.973 1418.43,585.973 1418.5,587.5C 1417.83,587.5 1417.5,587.833 1417.5,588.5C 1415.24,589.344 1414.24,591.011 1414.5,593.5C 1413.6,594.29 1412.93,595.29 1412.5,596.5C 1411.49,598.544 1410.49,600.544 1409.5,602.5C 1407.09,603.68 1406.09,605.68 1406.5,608.5C 1403.38,615.727 1400.05,622.727 1396.5,629.5C 1395.83,629.5 1395.5,629.833 1395.5,630.5C 1393.47,632.86 1391.63,635.527 1390,638.5C 1389.42,633.379 1388.42,633.379 1387,638.5C 1385.54,631.531 1384.21,631.865 1383,639.5C 1381.81,638.437 1381.31,637.103 1381.5,635.5C 1379.74,635.357 1378.07,635.691 1376.5,636.5C 1373.24,635.631 1372.9,634.297 1375.5,632.5C 1372.52,631.13 1369.85,631.63 1367.5,634C 1368.36,637.288 1368.36,640.788 1367.5,644.5C 1367.79,646.044 1368.46,647.377 1369.5,648.5C 1368.12,650.635 1367.12,652.968 1366.5,655.5C 1364.7,652.904 1363.37,653.237 1362.5,656.5C 1363.45,658.455 1364.79,660.122 1366.5,661.5C 1370.74,656.211 1372.24,657.211 1371,664.5C 1370.67,664.167 1370.33,663.833 1370,663.5C 1368.98,666.028 1367.82,666.028 1366.5,663.5C 1365.17,664.833 1363.83,666.167 1362.5,667.5C 1360.67,665.193 1359.01,665.526 1357.5,668.5C 1358.33,669.415 1359.33,670.081 1360.5,670.5C 1363.16,668.98 1363.82,669.48 1362.5,672C 1362.9,673.897 1363.9,675.397 1365.5,676.5C 1364.31,677.429 1362.98,677.762 1361.5,677.5C 1361.62,674.795 1360.62,674.128 1358.5,675.5C 1353.83,680.167 1349.17,684.833 1344.5,689.5C 1343.17,691.5 1343.17,693.5 1344.5,695.5C 1346.17,697.167 1347.83,698.833 1349.5,700.5C 1347.75,702.754 1345.58,704.42 1343,705.5C 1342.17,705.167 1341.33,704.833 1340.5,704.5C 1341.59,703.391 1341.59,702.391 1340.5,701.5C 1338.31,702.859 1336.64,704.692 1335.5,707C 1336.55,707.492 1337.55,707.326 1338.5,706.5C 1339.17,708.167 1339.83,709.833 1340.5,711.5C 1341.73,710.349 1341.73,709.183 1340.5,708C 1341,707.5 1341.5,707 1342,706.5C 1342.9,708.626 1344.07,710.626 1345.5,712.5C 1344.27,713.281 1342.94,713.781 1341.5,714C 1341.83,714.333 1342.17,714.667 1342.5,715C 1341.36,716.973 1340.03,718.807 1338.5,720.5C 1338.83,721.167 1339.17,721.833 1339.5,722.5C 1337.9,722.61 1336.24,722.943 1334.5,723.5C 1334.74,721.435 1334.24,719.435 1333,717.5C 1331.93,718.618 1330.76,719.618 1329.5,720.5C 1330.81,721.258 1331.31,722.258 1331,723.5C 1329.37,723.146 1327.54,723.146 1325.5,723.5C 1325.76,722.022 1325.43,720.689 1324.5,719.5C 1323.17,719.167 1321.83,718.833 1320.5,718.5C 1319.92,720.637 1318.92,722.47 1317.5,724C 1319.02,725.351 1320.35,726.851 1321.5,728.5C 1319.47,730.599 1319.13,732.932 1320.5,735.5C 1321.6,734.385 1322.77,734.385 1324,735.5C 1324.95,734.978 1325.78,734.311 1326.5,733.5C 1328.83,735.833 1331.17,738.167 1333.5,740.5C 1332.17,741.833 1330.83,743.167 1329.5,744.5C 1330.83,745.833 1332.17,747.167 1333.5,748.5C 1331.9,750.179 1331.23,752.179 1331.5,754.5C 1337.31,754.233 1338.31,755.9 1334.5,759.5C 1333.17,758.167 1331.83,758.167 1330.5,759.5C 1327.59,761.907 1325.25,764.74 1323.5,768C 1323.49,769.812 1324.16,771.312 1325.5,772.5C 1324.31,773.853 1322.98,775.02 1321.5,776C 1326.71,781.415 1326.21,782.582 1320,779.5C 1319.32,781.479 1319.82,783.146 1321.5,784.5C 1318.9,787.768 1315.57,789.768 1311.5,790.5C 1312.17,791.167 1312.83,791.833 1313.5,792.5C 1312.27,793.59 1311.44,794.924 1311,796.5C 1309.73,796.384 1308.4,796.051 1307,795.5C 1306.5,796 1306,796.5 1305.5,797C 1306.93,797.465 1308.1,798.299 1309,799.5C 1309.31,798.692 1309.81,798.025 1310.5,797.5C 1311.96,799.138 1312.29,800.805 1311.5,802.5C 1314.17,803.833 1314.17,805.167 1311.5,806.5C 1314.1,808.297 1313.76,809.631 1310.5,810.5C 1309.83,810.167 1309.17,809.833 1308.5,809.5C 1307.53,811.396 1307.2,813.396 1307.5,815.5C 1308.82,815.67 1309.99,815.337 1311,814.5C 1311.48,815.448 1311.65,816.448 1311.5,817.5C 1310.13,817.343 1308.79,817.51 1307.5,818C 1309.8,819.263 1310.63,821.097 1310,823.5C 1308.51,822.259 1307.68,822.759 1307.5,825C 1307.91,828.106 1308.91,828.272 1310.5,825.5C 1311.43,826.689 1311.76,828.022 1311.5,829.5C 1309.52,829.383 1307.85,830.05 1306.5,831.5C 1305.52,831.023 1304.69,830.357 1304,829.5C 1302.98,832.028 1301.82,832.028 1300.5,829.5C 1299.19,830.816 1297.69,831.816 1296,832.5C 1295.51,834.134 1295.34,835.801 1295.5,837.5C 1296.98,837.238 1298.31,837.571 1299.5,838.5C 1296.37,838.984 1293.71,840.317 1291.5,842.5C 1293.21,844.543 1295.21,846.21 1297.5,847.5C 1299.61,846.502 1300.61,845.169 1300.5,843.5C 1300.94,847.809 1302.28,848.309 1304.5,845C 1303.98,844.439 1303.64,843.772 1303.5,843C 1304.5,841.5 1305.5,840 1306.5,838.5C 1307.43,840.766 1308.77,842.766 1310.5,844.5C 1308.3,846.528 1306.3,848.695 1304.5,851C 1307.09,853.853 1307.09,856.686 1304.5,859.5C 1305.84,861.375 1305.34,862.708 1303,863.5C 1302.86,861.479 1302.69,859.645 1302.5,858C 1303.5,857 1304.5,856 1305.5,855C 1304.55,854.383 1303.72,854.549 1303,855.5C 1302,853.5 1301,851.5 1300,849.5C 1298.26,850.848 1296.43,852.848 1294.5,855.5C 1293.17,852.833 1291.83,852.833 1290.5,855.5C 1289.83,853.5 1289.17,851.5 1288.5,849.5C 1287.59,850.328 1286.92,851.328 1286.5,852.5C 1287.31,854.071 1287.64,855.738 1287.5,857.5C 1288.83,857.5 1290.17,857.5 1291.5,857.5C 1292.06,863.276 1289.39,866.276 1283.5,866.5C 1285.81,868.328 1285.47,869.994 1282.5,871.5C 1280.85,870.294 1279.35,868.961 1278,867.5C 1279.01,871.33 1279.51,875.33 1279.5,879.5C 1276.64,879.342 1273.97,880.008 1271.5,881.5C 1270.33,881.081 1269.33,880.415 1268.5,879.5C 1267.27,880.145 1265.93,880.311 1264.5,880C 1266.32,881.315 1267.98,882.815 1269.5,884.5C 1268.31,885.853 1266.98,887.02 1265.5,888C 1266.81,890.355 1267.81,892.855 1268.5,895.5C 1270.09,892.728 1271.09,892.894 1271.5,896C 1270.82,898.524 1269.49,900.691 1267.5,902.5C 1269.01,903.739 1270.17,903.405 1271,901.5C 1271.22,902.938 1271.72,904.271 1272.5,905.5C 1273.5,903.522 1273.84,901.189 1273.5,898.5C 1273.83,898.167 1274.17,897.833 1274.5,897.5C 1275.5,898.5 1276.5,899.5 1277.5,900.5C 1274.83,903.167 1274.83,905.833 1277.5,908.5C 1276.27,909.281 1274.94,909.781 1273.5,910C 1274.87,911.6 1275.87,913.433 1276.5,915.5C 1277.17,914.833 1277.83,914.167 1278.5,913.5C 1279.21,916.366 1279.87,919.2 1280.5,922C 1277.83,922.333 1277.17,921.333 1278.5,919C 1277.97,918.308 1277.31,917.808 1276.5,917.5C 1276.68,920.801 1276.02,924.134 1274.5,927.5C 1274,923.634 1273,919.967 1271.5,916.5C 1272.17,915.833 1272.83,915.167 1273.5,914.5C 1271.6,913.534 1269.6,913.201 1267.5,913.5C 1267.5,914.833 1267.5,916.167 1267.5,917.5C 1266.13,917.343 1264.79,917.51 1263.5,918C 1265.96,920.177 1266.96,922.677 1266.5,925.5C 1265.83,924.833 1265.17,924.167 1264.5,923.5C 1263.53,925.396 1263.2,927.396 1263.5,929.5C 1259.75,929.501 1258.75,931.167 1260.5,934.5C 1261.17,934.167 1261.83,933.833 1262.5,933.5C 1264.5,935.5 1266.5,937.5 1268.5,939.5C 1269.24,938.009 1269.91,936.509 1270.5,935C 1270.17,934.667 1269.83,934.333 1269.5,934C 1270.79,933.51 1272.13,933.343 1273.5,933.5C 1273.03,929.03 1274.03,928.53 1276.5,932C 1275.17,932.667 1275.17,933.333 1276.5,934C 1274.01,934.705 1274.01,935.538 1276.5,936.5C 1276.5,937.5 1276.5,938.5 1276.5,939.5C 1275.33,940.514 1274.66,941.847 1274.5,943.5C 1273.95,946.746 1272.95,949.746 1271.5,952.5C 1270.07,953.78 1269.4,955.447 1269.5,957.5C 1268.5,960.167 1267.5,962.833 1266.5,965.5C 1265.07,966.78 1264.4,968.447 1264.5,970.5C 1262.69,975.941 1260.69,981.274 1258.5,986.5C 1257.33,987.514 1256.66,988.847 1256.5,990.5C 1256.12,992.698 1255.46,994.698 1254.5,996.5C 1252.73,998.792 1251.73,1001.46 1251.5,1004.5C 1250.5,1007.17 1249.5,1009.83 1248.5,1012.5C 1247.07,1013.78 1246.4,1015.45 1246.5,1017.5C 1244.67,1021.86 1243,1026.19 1241.5,1030.5C 1240.07,1031.78 1239.4,1033.45 1239.5,1035.5C 1239.5,1036.17 1239.17,1036.5 1238.5,1036.5C 1237.46,1032.42 1235.46,1028.75 1232.5,1025.5C 1231.19,1032.06 1231.19,1038.56 1232.5,1045C 1231.79,1047.52 1230.96,1050.02 1230,1052.5C 1229.17,1050 1228,1049.83 1226.5,1052C 1227.41,1053.7 1227.74,1055.53 1227.5,1057.5C 1225.4,1057.52 1223.57,1056.86 1222,1055.5C 1219.81,1055.26 1217.65,1055.76 1215.5,1057C 1215.62,1058.79 1215.62,1060.62 1215.5,1062.5C 1216.17,1063.17 1216.83,1063.83 1217.5,1064.5C 1215.5,1065.17 1213.5,1065.83 1211.5,1066.5C 1213.44,1069.46 1216.11,1071.13 1219.5,1071.5C 1219.24,1073.79 1219.58,1075.96 1220.5,1078C 1219.97,1078.69 1219.31,1079.19 1218.5,1079.5C 1218.17,1078.83 1217.83,1078.17 1217.5,1077.5C 1215.5,1078.83 1213.5,1080.17 1211.5,1081.5C 1212.31,1083.28 1213.48,1083.94 1215,1083.5C 1215.49,1084.55 1215.33,1085.55 1214.5,1086.5C 1215.03,1087.19 1215.69,1087.69 1216.5,1088C 1214.83,1089 1213.5,1090.33 1212.5,1092C 1212.83,1092.33 1213.17,1092.67 1213.5,1093C 1212.21,1093.49 1210.87,1093.66 1209.5,1093.5C 1209.76,1092.02 1209.43,1090.69 1208.5,1089.5C 1207.83,1091.5 1207.17,1093.5 1206.5,1095.5C 1204.98,1093.49 1204.32,1091.49 1204.5,1089.5C 1203.41,1091.77 1201.91,1092.1 1200,1090.5C 1193.58,1092.93 1193.42,1094.26 1199.5,1094.5C 1199.5,1096.83 1199.5,1099.17 1199.5,1101.5C 1201.35,1101.27 1202.19,1101.94 1202,1103.5C 1200.83,1104.89 1199.33,1105.73 1197.5,1106C 1198.65,1106.91 1198.49,1107.75 1197,1108.5C 1195.7,1107.22 1194.54,1107.38 1193.5,1109C 1195.05,1112.15 1196.88,1112.32 1199,1109.5C 1199.49,1110.79 1199.66,1112.13 1199.5,1113.5C 1197.12,1113.22 1194.96,1113.22 1193,1113.5C 1191.68,1110.97 1190.52,1110.97 1189.5,1113.5C 1190.29,1115.49 1191.46,1115.82 1193,1114.5C 1194.49,1115.25 1194.65,1116.09 1193.5,1117C 1194.65,1117.64 1195.65,1118.48 1196.5,1119.5C 1197.17,1118.83 1197.83,1118.17 1198.5,1117.5C 1199.23,1119.34 1199.9,1121.17 1200.5,1123C 1200.04,1123.41 1199.71,1123.91 1199.5,1124.5C 1196.83,1125.17 1194.17,1125.83 1191.5,1126.5C 1193.97,1126.74 1196.63,1127.41 1199.5,1128.5C 1199.65,1130.97 1199.98,1133.63 1200.5,1136.5C 1198.98,1138.89 1197.98,1141.56 1197.5,1144.5C 1196.49,1147.26 1195.49,1149.92 1194.5,1152.5C 1192.93,1154.51 1191.93,1156.84 1191.5,1159.5C 1190.87,1162.4 1189.87,1165.06 1188.5,1167.5C 1187.26,1169.21 1186.59,1171.21 1186.5,1173.5C 1183.72,1182.51 1180.39,1191.18 1176.5,1199.5C 1174.93,1201.51 1173.93,1203.84 1173.5,1206.5C 1172.87,1209.4 1171.87,1212.06 1170.5,1214.5C 1169.26,1216.21 1168.59,1218.21 1168.5,1220.5C 1166.67,1224.86 1165,1229.19 1163.5,1233.5C 1162.6,1234.29 1161.93,1235.29 1161.5,1236.5C 1161.1,1240.12 1160.1,1243.45 1158.5,1246.5C 1157.07,1247.78 1156.4,1249.45 1156.5,1251.5C 1155.34,1254.98 1154.01,1258.32 1152.5,1261.5C 1151.26,1263.21 1150.59,1265.21 1150.5,1267.5C 1149.12,1270.91 1147.79,1274.24 1146.5,1277.5C 1145.13,1279.25 1144.13,1281.25 1143.5,1283.5C 1142.9,1286.97 1141.9,1290.3 1140.5,1293.5C 1139.07,1294.78 1138.4,1296.45 1138.5,1298.5C 1137.01,1302.98 1135.34,1307.32 1133.5,1311.5C 1132.6,1312.29 1131.93,1313.29 1131.5,1314.5C 1131.59,1317.15 1130.92,1319.49 1129.5,1321.5C 1127.93,1323.1 1127.26,1325.1 1127.5,1327.5C 1125.82,1331.54 1124.16,1335.54 1122.5,1339.5C 1121.26,1341.21 1120.59,1343.21 1120.5,1345.5C 1119.17,1348.83 1117.83,1352.17 1116.5,1355.5C 1115.13,1357.25 1114.13,1359.25 1113.5,1361.5C 1113.07,1364.78 1112.07,1367.78 1110.5,1370.5C 1109.26,1372.21 1108.59,1374.21 1108.5,1376.5C 1107.01,1380.98 1105.34,1385.32 1103.5,1389.5C 1102.6,1390.29 1101.93,1391.29 1101.5,1392.5C 1101.02,1396.08 1100.02,1399.42 1098.5,1402.5C 1097.07,1403.78 1096.4,1405.45 1096.5,1407.5C 1093.73,1416.5 1090.39,1425.17 1086.5,1433.5C 1085.13,1435.25 1084.13,1437.25 1083.5,1439.5C 1081.46,1448.31 1078.46,1456.64 1074.5,1464.5C 1073.13,1466.25 1072.13,1468.25 1071.5,1470.5C 1071.23,1472.97 1070.57,1475.3 1069.5,1477.5C 1068.07,1478.78 1067.4,1480.45 1067.5,1482.5C 1065.68,1486.81 1064.01,1491.15 1062.5,1495.5C 1061.13,1497.25 1060.13,1499.25 1059.5,1501.5C 1058.77,1505.79 1057.43,1509.79 1055.5,1513.5C 1054.33,1514.51 1053.66,1515.85 1053.5,1517.5C 1052.95,1520.75 1051.95,1523.75 1050.5,1526.5C 1049.07,1527.78 1048.4,1529.45 1048.5,1531.5C 1047.77,1532.71 1047.43,1534.04 1047.5,1535.5C 1034.82,1535.83 1022.15,1535.5 1009.5,1534.5C 1008.35,1531.03 1007.01,1527.7 1005.5,1524.5C 1005.33,1523.18 1005.66,1522.01 1006.5,1521C 1005.31,1520.3 1004.31,1519.47 1003.5,1518.5C 1002.32,1516.32 1001.32,1513.99 1000.5,1511.5C 1000.6,1509.45 999.931,1507.78 998.5,1506.5C 994.548,1498.66 991.548,1490.32 989.5,1481.5C 989.068,1480.29 988.401,1479.29 987.5,1478.5C 985.657,1474.32 983.99,1469.98 982.5,1465.5C 982.598,1463.45 981.931,1461.78 980.5,1460.5C 978.928,1457.78 977.928,1454.78 977.5,1451.5C 976.87,1449.25 975.87,1447.25 974.5,1445.5C 972.99,1442.32 971.657,1438.98 970.5,1435.5C 970.598,1433.45 969.931,1431.78 968.5,1430.5C 966.99,1426.15 965.324,1421.81 963.5,1417.5C 963.598,1415.45 962.931,1413.78 961.5,1412.5C 960.677,1410.01 959.677,1407.68 958.5,1405.5C 958.405,1403.21 957.738,1401.21 956.5,1399.5C 954.873,1396.37 953.54,1393.04 952.5,1389.5C 952.598,1387.45 951.931,1385.78 950.5,1384.5C 948.99,1381.32 947.657,1377.98 946.5,1374.5C 946.598,1372.45 945.931,1370.78 944.5,1369.5C 942.844,1365.54 941.177,1361.54 939.5,1357.5C 940.962,1354.36 940.295,1352.36 937.5,1351.5C 936.323,1349.32 935.323,1346.99 934.5,1344.5C 934.598,1342.45 933.931,1340.78 932.5,1339.5C 931.89,1338.61 931.557,1337.61 931.5,1336.5C 933.388,1337.28 935.388,1337.28 937.5,1336.5C 937.644,1331.61 937.978,1326.61 938.5,1321.5C 939.167,1325.5 939.833,1329.5 940.5,1333.5C 941.854,1331.82 943.521,1331.32 945.5,1332C 945.167,1332.33 944.833,1332.67 944.5,1333C 946.209,1334.92 947.543,1337.08 948.5,1339.5C 949.425,1340.64 950.259,1340.64 951,1339.5C 952.347,1343.37 953.514,1343.37 954.5,1339.5C 955.183,1339.86 955.85,1340.2 956.5,1340.5C 960.225,1347.04 962.892,1354.04 964.5,1361.5C 964.932,1362.71 965.599,1363.71 966.5,1364.5C 966.5,1364.83 966.5,1365.17 966.5,1365.5C 967.032,1368.46 967.699,1368.79 968.5,1366.5C 970.245,1364.97 971.245,1362.97 971.5,1360.5C 973.389,1351.4 976.389,1342.73 980.5,1334.5C 981.931,1333.22 982.598,1331.55 982.5,1329.5C 983.635,1326.1 984.968,1322.76 986.5,1319.5C 988.065,1317.49 989.065,1315.16 989.5,1312.5C 990.261,1308.22 991.595,1304.22 993.5,1300.5C 994.674,1299.49 995.34,1298.15 995.5,1296.5C 996.015,1294.11 996.681,1291.77 997.5,1289.5C 999.403,1286.7 1001.4,1283.87 1003.5,1281C 1002.75,1280.33 1002.41,1279.5 1002.5,1278.5C 1002.26,1277.21 1002.6,1276.21 1003.5,1275.5C 1005.07,1273.9 1005.74,1271.9 1005.5,1269.5C 1006.67,1268.49 1007.34,1267.15 1007.5,1265.5C 1008.23,1261.2 1009.57,1257.2 1011.5,1253.5C 1012.67,1252.49 1013.34,1251.15 1013.5,1249.5C 1013.93,1246.22 1014.93,1243.22 1016.5,1240.5C 1018.07,1238.9 1018.74,1236.9 1018.5,1234.5C 1020.92,1226.56 1023.92,1218.9 1027.5,1211.5C 1029.58,1208.95 1030.92,1205.95 1031.5,1202.5C 1031.77,1200.03 1032.43,1197.7 1033.5,1195.5C 1035.58,1192.95 1036.92,1189.95 1037.5,1186.5C 1039.21,1178.71 1041.87,1171.38 1045.5,1164.5C 1047.58,1161.95 1048.92,1158.95 1049.5,1155.5C 1053.6,1142.54 1058.26,1129.87 1063.5,1117.5C 1065.07,1115.49 1066.07,1113.16 1066.5,1110.5C 1068.66,1101.85 1071.66,1093.52 1075.5,1085.5C 1077.25,1083.97 1078.25,1081.97 1078.5,1079.5C 1079.26,1075.22 1080.59,1071.22 1082.5,1067.5C 1083.67,1066.49 1084.34,1065.15 1084.5,1063.5C 1085.05,1060.25 1086.05,1057.25 1087.5,1054.5C 1089.24,1052.61 1090.24,1050.27 1090.5,1047.5C 1091.53,1043.38 1092.86,1039.38 1094.5,1035.5C 1095.91,1035.03 1096.57,1034.03 1096.5,1032.5C 1097.23,1028.2 1098.57,1024.2 1100.5,1020.5C 1101.67,1019.49 1102.34,1018.15 1102.5,1016.5C 1104.54,1007.7 1107.54,999.363 1111.5,991.5C 1113.25,989.967 1114.25,987.967 1114.5,985.5C 1114.77,983.035 1115.43,980.701 1116.5,978.5C 1118.4,976.302 1119.4,973.636 1119.5,970.5C 1119.5,969.833 1119.83,969.5 1120.5,969.5C 1121.12,969.611 1121.62,969.944 1122,970.5C 1122.47,968.754 1123.14,967.087 1124,965.5C 1125,964.167 1126,964.167 1127,965.5C 1128.17,963.411 1129.5,961.411 1131,959.5C 1131.67,960.833 1132.33,960.833 1133,959.5C 1133.35,956.424 1134.01,953.424 1135,950.5C 1137.05,952.836 1138.88,952.836 1140.5,950.5C 1139.05,949.646 1137.72,948.646 1136.5,947.5C 1135.19,948.816 1133.69,949.816 1132,950.5C 1131.24,947.635 1132.08,945.302 1134.5,943.5C 1135.19,944.025 1135.69,944.692 1136,945.5C 1136.32,943.939 1137.15,942.772 1138.5,942C 1137.17,941 1137.17,940 1138.5,939C 1139.83,938.667 1141.17,938.333 1142.5,938C 1141.57,936.605 1141.57,935.105 1142.5,933.5C 1144.52,931.469 1146.19,929.135 1147.5,926.5C 1145.52,925.725 1144.69,924.391 1145,922.5C 1146.27,922.616 1147.6,922.949 1149,923.5C 1149.21,919.887 1148.21,916.554 1146,913.5C 1145.67,913.833 1145.33,914.167 1145,914.5C 1145.31,913.065 1145.14,911.732 1144.5,910.5C 1144.81,909.692 1145.31,909.025 1146,908.5C 1146.97,910.734 1148.3,912.734 1150,914.5C 1152.35,912.256 1151.85,911.089 1148.5,911C 1150.84,908.731 1150.17,907.231 1146.5,906.5C 1147.87,905.059 1149.37,903.726 1151,902.5C 1151.33,902.833 1151.67,903.167 1152,903.5C 1152.54,900.471 1153.21,897.471 1154,894.5C 1155.07,895.28 1156.24,895.113 1157.5,894C 1157.04,893.586 1156.71,893.086 1156.5,892.5C 1157.5,891.167 1158.5,889.833 1159.5,888.5C 1157.99,887.138 1156.49,886.804 1155,887.5C 1153.99,885.975 1153.49,884.308 1153.5,882.5C 1156.37,882.623 1158.87,883.623 1161,885.5C 1160.85,884.175 1161.02,883.008 1161.5,882C 1158.96,880.901 1158.96,879.735 1161.5,878.5C 1163.83,879.841 1165.5,879.174 1166.5,876.5C 1166.58,874.908 1166.25,873.241 1165.5,871.5C 1167.66,866.105 1169.16,860.439 1170,854.5C 1171.33,853.833 1172.33,852.833 1173,851.5C 1173.33,852.167 1173.67,852.833 1174,853.5C 1175.14,851.749 1175.64,849.916 1175.5,848C 1176.74,847.544 1177.58,848.044 1178,849.5C 1178.64,848.354 1179.48,847.354 1180.5,846.5C 1179.41,845.391 1179.41,844.391 1180.5,843.5C 1181.19,844.025 1181.69,844.692 1182,845.5C 1182.83,844 1184,842.833 1185.5,842C 1184.55,841.383 1183.72,841.549 1183,842.5C 1182.06,841.737 1181.56,840.737 1181.5,839.5C 1183.63,835.869 1186.3,832.702 1189.5,830C 1188.55,829.383 1187.72,829.549 1187,830.5C 1186.1,828.374 1184.93,826.374 1183.5,824.5C 1184.83,823.167 1186.17,821.833 1187.5,820.5C 1185.46,819.497 1185.12,818.163 1186.5,816.5C 1188.17,815.5 1189.5,814.167 1190.5,812.5C 1189.68,811.614 1188.68,811.281 1187.5,811.5C 1187.65,812.552 1187.48,813.552 1187,814.5C 1186.73,812.899 1186.23,811.399 1185.5,810C 1186.45,809.383 1187.28,809.549 1188,810.5C 1187.33,807.707 1187.99,805.04 1190,802.5C 1191.34,803.214 1192.68,802.88 1194,801.5C 1194.83,799.5 1195.67,797.5 1196.5,795.5C 1197.19,796.025 1197.69,796.692 1198,797.5C 1199.31,795.868 1199.81,794.201 1199.5,792.5C 1198.83,791.833 1198.17,791.167 1197.5,790.5C 1198.59,789.169 1199.93,788.336 1201.5,788C 1199.1,787.492 1198.43,786.325 1199.5,784.5C 1198.5,783.5 1197.5,782.5 1196.5,781.5C 1195.76,782.991 1195.09,784.491 1194.5,786C 1195.55,787.388 1195.72,788.888 1195,790.5C 1194.67,789.833 1194.33,789.167 1194,788.5C 1193.84,785.084 1193.84,781.751 1194,778.5C 1197.25,780.097 1200.09,779.597 1202.5,777C 1202.06,775.238 1201.56,775.405 1201,777.5C 1199.35,776.047 1197.52,775.047 1195.5,774.5C 1196.02,772.694 1196.69,771.028 1197.5,769.5C 1198.27,770.66 1199.27,771.66 1200.5,772.5C 1201.19,770.445 1202.35,768.779 1204,767.5C 1204.35,768.672 1204.19,769.838 1203.5,771C 1203.61,772.28 1204.28,773.113 1205.5,773.5C 1206.78,771.156 1206.78,768.49 1205.5,765.5C 1206.83,765.5 1208.17,765.5 1209.5,765.5C 1209.34,766.873 1209.51,768.207 1210,769.5C 1210.71,768.027 1211.88,767.36 1213.5,767.5C 1213.67,764.15 1213.5,760.817 1213,757.5C 1212.03,759.26 1210.87,759.594 1209.5,758.5C 1210.76,757.618 1211.93,756.618 1213,755.5C 1213.18,752.118 1213.68,748.785 1214.5,745.5C 1215.19,748.408 1216.36,751.075 1218,753.5C 1219.1,752.033 1220.6,751.199 1222.5,751C 1223.45,748.41 1225.12,746.41 1227.5,745C 1226.17,743 1224.5,741.333 1222.5,740C 1223.62,739.751 1224.62,739.251 1225.5,738.5C 1224.17,737.833 1222.83,737.167 1221.5,736.5C 1221.67,736.167 1221.83,735.833 1222,735.5C 1223.3,734.888 1224.47,734.554 1225.5,734.5C 1222.28,733.552 1221.95,732.219 1224.5,730.5C 1221.64,729.694 1221.14,728.361 1223,726.5C 1225,729.167 1227,729.167 1229,726.5C 1230.43,726.694 1231.93,726.694 1233.5,726.5C 1234.51,726.938 1234.51,727.604 1233.5,728.5C 1234.5,729.5 1235.5,730.5 1236.5,731.5C 1237.13,729.433 1238.13,727.6 1239.5,726C 1238.87,725.25 1238.37,724.416 1238,723.5C 1237,726.167 1236,726.167 1235,723.5C 1232.11,726.424 1230.94,726.09 1231.5,722.5C 1230.17,721.167 1228.83,721.167 1227.5,722.5C 1230.14,724.064 1229.97,725.397 1227,726.5C 1225.68,725.12 1224.34,724.786 1223,725.5C 1222.5,724.333 1221.67,723.5 1220.5,723C 1222.08,722.293 1223.58,721.46 1225,720.5C 1225.33,720.833 1225.67,721.167 1226,721.5C 1227.02,719.624 1227.85,717.624 1228.5,715.5C 1229.54,717.991 1230.37,717.991 1231,715.5C 1231.16,713.144 1231.16,710.811 1231,708.5C 1232.55,706.854 1234.22,706.521 1236,707.5C 1236.5,707 1237,706.5 1237.5,706C 1233.76,705.001 1233.76,703.668 1237.5,702C 1235.95,702.522 1234.45,702.355 1233,701.5C 1231.78,702.272 1230.78,703.272 1230,704.5C 1229.32,702.641 1228.32,700.974 1227,699.5C 1226.33,698.167 1226.33,696.833 1227,695.5C 1228.04,697.567 1229.54,698.734 1231.5,699C 1230.36,698.259 1230.36,697.425 1231.5,696.5C 1230.5,695.667 1229.5,694.833 1228.5,694C 1229.19,692.933 1229.69,691.766 1230,690.5C 1231.3,691.784 1232.46,691.617 1233.5,690C 1231.5,689.665 1229.83,688.832 1228.5,687.5C 1229.05,684.254 1230.05,681.254 1231.5,678.5C 1233.25,676.967 1234.25,674.967 1234.5,672.5C 1235.23,668.195 1236.57,664.195 1238.5,660.5C 1239.67,659.486 1240.34,658.153 1240.5,656.5C 1240.77,654.035 1241.43,651.701 1242.5,649.5C 1244.21,648.365 1244.88,646.698 1244.5,644.5C 1245.67,643.486 1246.34,642.153 1246.5,640.5C 1248.96,631.588 1251.96,622.921 1255.5,614.5C 1257.21,613.365 1257.88,611.698 1257.5,609.5C 1262.22,594.49 1263.56,579.157 1261.5,563.5C 1262.96,560.358 1262.3,558.358 1259.5,557.5C 1258.83,556.167 1258.17,554.833 1257.5,553.5C 1257.44,552.391 1257.11,551.391 1256.5,550.5C 1255.49,549.061 1255.82,547.728 1257.5,546.5C 1255.17,544.833 1253.17,542.833 1251.5,540.5C 1252.5,539.5 1253.5,538.5 1254.5,537.5C 1255.15,539.624 1255.98,541.624 1257,543.5C 1257.64,542.354 1258.48,541.354 1259.5,540.5C 1258.83,539.833 1258.17,539.167 1257.5,538.5C 1260.07,537.132 1262.4,537.466 1264.5,539.5C 1265.88,538.449 1266.88,537.116 1267.5,535.5C 1264.44,528.805 1265.27,528.138 1270,533.5C 1270.5,532.5 1271,531.5 1271.5,530.5C 1269.67,529.032 1269.33,527.365 1270.5,525.5C 1271.17,526.167 1271.83,526.833 1272.5,527.5C 1273.83,524.833 1275.17,524.833 1276.5,527.5C 1277.94,524.956 1279.44,524.956 1281,527.5C 1280.37,524.684 1281.04,522.018 1283,519.5C 1284.59,522.341 1286.42,525.007 1288.5,527.5C 1291.17,524.833 1293.83,524.833 1296.5,527.5C 1297.57,523.351 1298.07,519.351 1298,515.5C 1299.81,515.888 1301.47,515.888 1303,515.5C 1303.17,516.833 1303.33,518.167 1303.5,519.5C 1300.77,522.639 1301.11,525.306 1304.5,527.5C 1305.17,525.5 1305.83,523.5 1306.5,521.5C 1308.08,523.585 1310.08,525.085 1312.5,526C 1311.3,526.654 1311.3,527.154 1312.5,527.5C 1313.5,526.5 1314.5,525.5 1315.5,524.5C 1314.17,523.167 1312.83,521.833 1311.5,520.5C 1312.85,519.476 1313.52,518.143 1313.5,516.5C 1314.82,516.67 1315.99,516.337 1317,515.5C 1318.68,517.773 1319.84,520.273 1320.5,523C 1319.5,523.333 1318.5,523.667 1317.5,524C 1318.62,525.074 1319.62,526.24 1320.5,527.5C 1321.17,525.5 1321.83,523.5 1322.5,521.5C 1329.36,524.935 1330.69,523.935 1326.5,518.5C 1327.17,517.054 1328.34,516.388 1330,516.5C 1336.82,517.652 1343.65,517.652 1350.5,516.5C 1352.41,518.039 1354.07,519.706 1355.5,521.5C 1355.29,519.856 1355.62,518.356 1356.5,517C 1359.43,516.782 1362.26,516.282 1365,515.5C 1367.31,517.83 1369.81,517.83 1372.5,515.5C 1372.17,514.833 1371.83,514.167 1371.5,513.5C 1413.83,512.333 1456.16,512.167 1498.5,513C 1495.77,513.005 1493.77,514.171 1492.5,516.5C 1491.17,515.5 1489.83,514.5 1488.5,513.5C 1487.5,514.167 1486.5,514.833 1485.5,515.5C 1484.57,514.359 1483.74,514.359 1483,515.5C 1482.33,514.833 1481.67,514.167 1481,513.5C 1479.33,516.167 1477.67,516.167 1476,513.5C 1475.69,514.308 1475.19,514.975 1474.5,515.5C 1471.91,512.895 1469.41,512.895 1467,515.5C 1466.5,515 1466,514.5 1465.5,514C 1463.5,513.833 1461.5,513.667 1459.5,513.5C 1456.15,513.833 1453.32,514.5 1451,515.5C 1449.44,512.956 1447.94,512.956 1446.5,515.5C 1445.4,514.385 1444.23,514.385 1443,515.5C 1441.74,515.241 1440.74,514.574 1440,513.5C 1439.2,515.259 1439.37,516.926 1440.5,518.5C 1441.33,517.585 1442.33,516.919 1443.5,516.5C 1446.38,517.536 1448.88,519.203 1451,521.5C 1451.5,521.333 1452,521.167 1452.5,521C 1451.31,518.342 1452.31,517.176 1455.5,517.5C 1455.35,518.552 1455.52,519.552 1456,520.5C 1457.19,519.57 1458.53,518.903 1460,518.5C 1462.18,519.758 1464.35,519.758 1466.5,518.5C 1467.17,520.167 1467.83,521.833 1468.5,523.5C 1469.54,521.217 1470.21,519.217 1470.5,517.5C 1471.17,518.167 1471.83,518.833 1472.5,519.5C 1474.32,517.559 1476.32,516.892 1478.5,517.5C 1480.41,520.561 1483.07,521.728 1486.5,521C 1485.35,520.086 1485.51,519.253 1487,518.5C 1488.5,520 1490,521.5 1491.5,523C 1493.09,522.383 1494.43,522.716 1495.5,524C 1492.9,523.996 1490.9,524.83 1489.5,526.5C 1490.17,526.833 1490.83,527.167 1491.5,527.5C 1494.13,526.447 1496.8,525.947 1499.5,526C 1497.57,526.422 1496.57,527.589 1496.5,529.5 Z"/></g>
<g><path style="opacity:1" fill="#c1c1c1" d="M 793.5,511.5 C 794.485,515.634 794.818,519.968 794.5,524.5C 790.167,524.5 785.833,524.5 781.5,524.5C 785.298,523.517 789.298,523.183 793.5,523.5C 793.5,519.5 793.5,515.5 793.5,511.5 Z"/></g>
<g><path style="opacity:1" fill="#d0d3d4" d="M 747.5,528.5 C 746.365,530.213 744.698,530.88 742.5,530.5C 743.93,529.463 745.597,528.796 747.5,528.5 Z"/></g>
<g><path style="opacity:1" fill="#a8a8a8" d="M 553.5,530.5 C 555.898,530.259 557.898,530.926 559.5,532.5C 557.214,532.405 555.214,531.738 553.5,530.5 Z"/></g>
<g><path style="opacity:1" fill="#c2c2c2" d="M 1496.5,529.5 C 1496.83,529.5 1497.17,529.5 1497.5,529.5C 1494.06,530.945 1490.4,531.945 1486.5,532.5C 1489.45,530.59 1492.79,529.59 1496.5,529.5 Z"/></g>
<g><path style="opacity:1" fill="#d3d3d4" d="M 1232.5,534.5 C 1234.15,534.66 1235.49,535.326 1236.5,536.5C 1234.62,536.771 1233.29,536.104 1232.5,534.5 Z"/></g>
<g><path style="opacity:1" fill="#c7c7c7" d="M 1479.5,534.5 C 1478.71,536.104 1477.38,536.771 1475.5,536.5C 1476.51,535.326 1477.85,534.66 1479.5,534.5 Z"/></g>
<g><path style="opacity:1" fill="#e0e0e0" d="M 579.5,540.5 C 580.71,540.932 581.71,541.599 582.5,542.5C 580.821,542.715 579.821,542.048 579.5,540.5 Z"/></g>
<g><path style="opacity:1" fill="#c1c1c1" d="M 1244.5,540.5 C 1246.03,540.427 1247.03,541.094 1247.5,542.5C 1245.97,542.573 1244.97,541.906 1244.5,540.5 Z"/></g>
<g><path style="opacity:1" fill="#9f9f9f" d="M 1247.5,542.5 C 1249.4,542.738 1250.74,543.738 1251.5,545.5C 1249.6,545.262 1248.26,544.262 1247.5,542.5 Z"/></g>
<g><path style="opacity:1" fill="#303131" d="M 702.5,547.5 C 699.167,551.5 695.5,555.167 691.5,558.5C 691.586,557.504 691.252,556.671 690.5,556C 684.338,554.89 684.171,553.723 690,552.5C 690.333,552.833 690.667,553.167 691,553.5C 692.617,552.464 692.784,551.297 691.5,550C 692.793,549.51 694.127,549.343 695.5,549.5C 696.365,543.632 698.698,542.966 702.5,547.5 Z"/></g>
<g><path style="opacity:1" fill="#18191a" d="M 1355.5,521.5 C 1357.89,521.145 1360.22,520.478 1362.5,519.5C 1363.5,519.667 1364.5,519.833 1365.5,520C 1364.3,520.654 1364.3,521.154 1365.5,521.5C 1367.28,519.553 1369.28,519.22 1371.5,520.5C 1368.73,522.625 1368.9,524.291 1372,525.5C 1372.95,525.095 1373.61,524.428 1374,523.5C 1374.33,523.833 1374.67,524.167 1375,524.5C 1375.49,522.866 1375.66,521.199 1375.5,519.5C 1376.98,519.762 1378.31,519.429 1379.5,518.5C 1377.38,517.851 1375.38,517.017 1373.5,516C 1377.3,514.95 1381.14,514.116 1385,513.5C 1394.64,514.405 1403.97,514.405 1413,513.5C 1413.88,515.513 1415.21,515.513 1417,513.5C 1419,514.833 1421,514.833 1423,513.5C 1425.07,514.264 1427.24,514.764 1429.5,515C 1427.04,514.927 1424.71,515.76 1422.5,517.5C 1419.85,515.979 1417.51,516.312 1415.5,518.5C 1416.91,519.243 1418.24,520.077 1419.5,521C 1418.5,521.333 1417.5,521.667 1416.5,522C 1417.34,523.011 1417.67,524.178 1417.5,525.5C 1421.5,525.5 1423.5,523.5 1423.5,519.5C 1425.2,519.66 1426.87,519.494 1428.5,519C 1427.3,518.346 1427.3,517.846 1428.5,517.5C 1429.19,519.274 1430.02,520.941 1431,522.5C 1432.47,520.085 1434.63,519.085 1437.5,519.5C 1437.69,521.103 1437.19,522.437 1436,523.5C 1434.93,522.72 1433.76,522.887 1432.5,524C 1434.63,524.898 1436.63,526.065 1438.5,527.5C 1440.5,524.972 1442.17,525.305 1443.5,528.5C 1442.62,530.748 1442.96,532.915 1444.5,535C 1443.17,537 1441.5,538.667 1439.5,540C 1440.86,542.129 1440.53,542.629 1438.5,541.5C 1435.79,544.69 1433.29,547.356 1431,549.5C 1429.33,548.165 1427.66,546.831 1426,545.5C 1424.31,547.359 1422.81,549.359 1421.5,551.5C 1424.49,557.578 1423.82,558.411 1419.5,554C 1418.67,553.312 1418,553.479 1417.5,554.5C 1418.65,556.149 1419.98,557.649 1421.5,559C 1420.23,559.309 1419.07,559.809 1418,560.5C 1416.98,559.313 1415.81,558.313 1414.5,557.5C 1413.42,558.365 1413.25,559.365 1414,560.5C 1419.09,562.443 1420.42,565.777 1418,570.5C 1417.37,568.469 1416.2,566.802 1414.5,565.5C 1411.73,567.601 1409.73,570.268 1408.5,573.5C 1407.47,571.96 1406.13,571.46 1404.5,572C 1404.98,575.018 1405.98,577.852 1407.5,580.5C 1406.17,582.5 1404.5,584.167 1402.5,585.5C 1401.57,584.311 1401.24,582.978 1401.5,581.5C 1400.02,581.762 1398.69,581.429 1397.5,580.5C 1393.86,576.86 1390.19,573.194 1386.5,569.5C 1385.83,571.5 1385.17,573.5 1384.5,575.5C 1383.72,574.271 1383.22,572.938 1383,571.5C 1382.26,570.359 1381.43,570.359 1380.5,571.5C 1378.83,569.833 1377.17,568.167 1375.5,566.5C 1379.07,564.678 1381.4,565.678 1382.5,569.5C 1383.43,568.311 1383.76,566.978 1383.5,565.5C 1386.65,565.731 1389.65,566.231 1392.5,567C 1392.03,559.532 1392.03,552.365 1392.5,545.5C 1393.83,546.833 1395.17,548.167 1396.5,549.5C 1399.17,546.833 1401.83,544.167 1404.5,541.5C 1405.83,542.833 1407.17,544.167 1408.5,545.5C 1410.33,543.193 1411.99,543.526 1413.5,546.5C 1410.44,548.019 1408.94,550.352 1409,553.5C 1410.79,551.771 1412.96,551.104 1415.5,551.5C 1415.16,548.856 1415.83,546.523 1417.5,544.5C 1413.73,540.745 1410.4,536.745 1407.5,532.5C 1407.79,530.956 1408.46,529.623 1409.5,528.5C 1408.5,527.5 1407.5,526.5 1406.5,525.5C 1405.69,527.423 1405.19,529.423 1405,531.5C 1402.98,529.316 1400.82,527.316 1398.5,525.5C 1397.83,527.5 1397.17,529.5 1396.5,531.5C 1394.5,529.5 1392.5,527.5 1390.5,525.5C 1389.41,526.868 1389.74,528.035 1391.5,529C 1390.35,529.645 1389.35,530.478 1388.5,531.5C 1386.79,529.457 1384.79,527.79 1382.5,526.5C 1381.83,528.167 1381.17,529.833 1380.5,531.5C 1379.17,530.167 1377.83,528.833 1376.5,527.5C 1375.17,528.833 1373.83,530.167 1372.5,531.5C 1370.97,529.342 1369.47,529.675 1368,532.5C 1367.5,532 1367,531.5 1366.5,531C 1370.77,528.074 1370.44,526.241 1365.5,525.5C 1365.66,527.527 1365.5,529.527 1365,531.5C 1361.73,529.744 1359.9,527.077 1359.5,523.5C 1357.52,523.843 1356.18,523.176 1355.5,521.5 Z"/></g>
<g><path style="opacity:1" fill="#cacccc" d="M 1252.5,546.5 C 1253.91,546.973 1254.57,547.973 1254.5,549.5C 1253.09,549.027 1252.43,548.027 1252.5,546.5 Z"/></g>
<g><path style="opacity:1" fill="#dddddd" d="M 1456.5,546.5 C 1456.18,548.048 1455.18,548.715 1453.5,548.5C 1454.29,547.599 1455.29,546.932 1456.5,546.5 Z"/></g>
<g><path style="opacity:1" fill="#b4b5b5" d="M 589.5,546.5 C 591.749,547.08 593.415,548.413 594.5,550.5C 592.251,549.92 590.585,548.587 589.5,546.5 Z"/></g>
<g><path style="opacity:1" fill="#d5d5d5" d="M 1255.5,550.5 C 1255.83,550.5 1256.17,550.5 1256.5,550.5C 1257.11,551.391 1257.44,552.391 1257.5,553.5C 1256.09,553.027 1255.43,552.027 1255.5,550.5 Z"/></g>
<g><path style="opacity:1" fill="#e3e4e4" d="M 597.5,552.5 C 598.833,553.167 599.833,554.167 600.5,555.5C 598.5,555.5 597.5,554.5 597.5,552.5 Z"/></g>
<g><path style="opacity:1" fill="#d3d5d5" d="M 1445.5,555.5 C 1445.03,556.906 1444.03,557.573 1442.5,557.5C 1442.97,556.094 1443.97,555.427 1445.5,555.5 Z"/></g>
<g><path style="opacity:1" fill="#747474" d="M 1259.5,557.5 C 1262.3,558.358 1262.96,560.358 1261.5,563.5C 1260.26,561.786 1259.59,559.786 1259.5,557.5 Z"/></g>
<g><path style="opacity:1" fill="#eeeeee" d="M 691.5,559.5 C 691.5,560.833 690.833,561.5 689.5,561.5C 689.833,560.5 690.5,559.833 691.5,559.5 Z"/></g>
<g><path style="opacity:1" fill="#e1e1e3" d="M 1441.5,558.5 C 1440.83,561.167 1439.17,562.833 1436.5,563.5C 1437.83,561.5 1439.5,559.833 1441.5,558.5 Z"/></g>
<g><path style="opacity:1" fill="#d1d1d1" d="M 1435.5,564.5 C 1435.57,566.027 1434.91,567.027 1433.5,567.5C 1433.43,565.973 1434.09,564.973 1435.5,564.5 Z"/></g>
<g><path style="opacity:1" fill="#e3e3e3" d="M 687.5,565.5 C 687.008,567.819 686.008,569.819 684.5,571.5C 684.461,568.911 685.461,566.911 687.5,565.5 Z"/></g>
<g><path style="opacity:1" fill="#dfdfdf" d="M 616.5,572.5 C 617.833,573.167 618.833,574.167 619.5,575.5C 617.5,575.5 616.5,574.5 616.5,572.5 Z"/></g>
<g><path style="opacity:1" fill="#d5d5d7" d="M 620.5,577.5 C 621.906,577.973 622.573,578.973 622.5,580.5C 621.094,580.027 620.427,579.027 620.5,577.5 Z"/></g>
<g><path style="opacity:1" fill="#dddddd" d="M 681.5,578.5 C 681.324,581.727 680.657,584.727 679.5,587.5C 679.215,584.171 679.882,581.171 681.5,578.5 Z"/></g>
<g><path style="opacity:1" fill="#e2e6e9" d="M 1420.5,584.5 C 1420.57,586.027 1419.91,587.027 1418.5,587.5C 1418.43,585.973 1419.09,584.973 1420.5,584.5 Z"/></g>
<g><path style="opacity:1" fill="#d9d9db" d="M 628.5,589.5 C 629.5,589.833 630.167,590.5 630.5,591.5C 629.167,591.5 628.5,590.833 628.5,589.5 Z"/></g>
<g><path style="opacity:1" fill="#777777" d="M 1417.5,588.5 C 1417.25,590.674 1416.25,592.341 1414.5,593.5C 1414.24,591.011 1415.24,589.344 1417.5,588.5 Z"/></g>
<g><path style="opacity:1" fill="#a8a8a9" d="M 679.5,587.5 C 679.663,589.857 679.497,592.19 679,594.5C 678.617,595.056 678.117,595.389 677.5,595.5C 677.565,592.572 678.232,589.905 679.5,587.5 Z"/></g>
<g><path style="opacity:1" fill="#dadada" d="M 1414.5,593.5 C 1414.71,595.179 1414.05,596.179 1412.5,596.5C 1412.93,595.29 1413.6,594.29 1414.5,593.5 Z"/></g>
<g><path style="opacity:1" fill="#d8d8d8" d="M 633.5,597.5 C 634.906,597.973 635.573,598.973 635.5,600.5C 634.094,600.027 633.427,599.027 633.5,597.5 Z"/></g>
<g><path style="opacity:1" fill="#77797a" d="M 1409.5,602.5 C 1409.01,604.819 1408.01,606.819 1406.5,608.5C 1406.09,605.68 1407.09,603.68 1409.5,602.5 Z"/></g>
<g><path style="opacity:1" fill="#707570" d="M 641.5,611.5 C 643.759,612.344 644.759,614.011 644.5,616.5C 643.11,615.101 642.11,613.434 641.5,611.5 Z"/></g>
<g><path style="opacity:1" fill="#999999" d="M 1257.5,609.5 C 1257.88,611.698 1257.21,613.365 1255.5,614.5C 1255.8,612.597 1256.46,610.93 1257.5,609.5 Z"/></g>
<g><path style="opacity:1" fill="#949494" d="M 677.5,616.5 C 678.117,616.611 678.617,616.944 679,617.5C 679.497,619.81 679.663,622.143 679.5,624.5C 678.232,622.095 677.565,619.428 677.5,616.5 Z"/></g>
<g><path style="opacity:1" fill="#d8d8db" d="M 1396.5,629.5 C 1396.77,631.38 1396.1,632.713 1394.5,633.5C 1394.56,632.391 1394.89,631.391 1395.5,630.5C 1395.5,629.833 1395.83,629.5 1396.5,629.5 Z"/></g>
<g><path style="opacity:1" fill="#c7c7c7" d="M 651.5,631.5 C 652.931,632.78 653.598,634.447 653.5,636.5C 652.069,635.22 651.402,633.553 651.5,631.5 Z"/></g>
<g><path style="opacity:1" fill="#aeaeae" d="M 1246.5,640.5 C 1246.34,642.153 1245.67,643.486 1244.5,644.5C 1244.23,642.62 1244.9,641.287 1246.5,640.5 Z"/></g>
<g><path style="opacity:1" fill="#d6d6d6" d="M 1391.5,641.5 C 1391.6,643.553 1390.93,645.22 1389.5,646.5C 1389.4,644.447 1390.07,642.78 1391.5,641.5 Z"/></g>
<g><path style="opacity:1" fill="#9d9d9d" d="M 1244.5,644.5 C 1244.88,646.698 1244.21,648.365 1242.5,649.5C 1242.4,647.447 1243.07,645.78 1244.5,644.5 Z"/></g>
<g><path style="opacity:1" fill="#d7d7d7" d="M 658.5,647.5 C 659.674,648.514 660.34,649.847 660.5,651.5C 658.896,650.713 658.229,649.38 658.5,647.5 Z"/></g>
<g><path style="opacity:1" fill="#8a898d" d="M 684.5,647.5 C 685.738,649.214 686.405,651.214 686.5,653.5C 685.833,653.167 685.167,652.833 684.5,652.5C 684.5,650.833 684.5,649.167 684.5,647.5 Z"/></g>
<g><path style="opacity:1" fill="#9a9d9d" d="M 1240.5,656.5 C 1240.34,658.153 1239.67,659.486 1238.5,660.5C 1238.23,658.62 1238.9,657.287 1240.5,656.5 Z"/></g>
<g><path style="opacity:1" fill="#dcdcdc" d="M 1384.5,658.5 C 1384.84,660.483 1384.18,661.817 1382.5,662.5C 1382.99,661.005 1383.66,659.671 1384.5,658.5 Z"/></g>
<g><path style="opacity:1" fill="#c1c1c2" d="M 689.5,664.5 C 691.245,666.033 692.245,668.033 692.5,670.5C 690.755,668.967 689.755,666.967 689.5,664.5 Z"/></g>
<g><path style="opacity:1" fill="#646465" d="M 1381.5,666.5 C 1380.54,670.395 1379.2,674.061 1377.5,677.5C 1377.11,674.534 1377.78,671.868 1379.5,669.5C 1379.17,668.833 1378.83,668.167 1378.5,667.5C 1379.39,667.483 1380.39,667.149 1381.5,666.5 Z"/></g>
<g><path style="opacity:1" fill="#7b7b7b" d="M 1234.5,672.5 C 1234.25,674.967 1233.25,676.967 1231.5,678.5C 1231.46,675.911 1232.46,673.911 1234.5,672.5 Z"/></g>
<g><path style="opacity:1" fill="#969696" d="M 696.5,681.5 C 697.537,682.93 698.204,684.597 698.5,686.5C 696.787,685.365 696.12,683.698 696.5,681.5 Z"/></g>
<g><path style="opacity:1" fill="#b4b6b4" d="M 1374.5,684.5 C 1374.6,686.553 1373.93,688.22 1372.5,689.5C 1372.4,687.447 1373.07,685.78 1374.5,684.5 Z"/></g>
<g><path style="opacity:1" fill="#a3a6a6" d="M 1228.5,687.5 C 1228.34,689.153 1227.67,690.486 1226.5,691.5C 1226.23,689.62 1226.9,688.287 1228.5,687.5 Z"/></g>
<g><path style="opacity:1" fill="#d9d9d9" d="M 1372.5,689.5 C 1372.84,691.483 1372.18,692.817 1370.5,693.5C 1370.99,692.005 1371.66,690.671 1372.5,689.5 Z"/></g>
<g><path style="opacity:1" fill="#dbdbdb" d="M 1226.5,691.5 C 1226.6,693.553 1225.93,695.22 1224.5,696.5C 1224.4,694.447 1225.07,692.78 1226.5,691.5 Z"/></g>
<g><path style="opacity:1" fill="#5d5e5e" d="M 1369.5,697.5 C 1368.59,701.936 1366.92,705.936 1364.5,709.5C 1364.76,706.234 1365.76,703.234 1367.5,700.5C 1365.78,697.185 1366.45,696.185 1369.5,697.5 Z"/></g>
<g><path style="opacity:1" fill="#ababab" d="M 1222.5,703.5 C 1222.01,705.819 1221.01,707.819 1219.5,709.5C 1219.46,706.911 1220.46,704.911 1222.5,703.5 Z"/></g>
<g><path style="opacity:1" fill="#9e9e9e" d="M 708.5,712.5 C 709.931,713.78 710.598,715.447 710.5,717.5C 708.787,716.365 708.12,714.698 708.5,712.5 Z"/></g>
<g><path style="opacity:1" fill="#a9aca9" d="M 1216.5,718.5 C 1216.57,720.027 1215.91,721.027 1214.5,721.5C 1214.43,719.973 1215.09,718.973 1216.5,718.5 Z"/></g>
<g><path style="opacity:1" fill="#c6c6c6" d="M 1361.5,718.5 C 1361.61,721.216 1360.61,723.216 1358.5,724.5C 1359.13,722.25 1360.13,720.25 1361.5,718.5 Z"/></g>
<g><path style="opacity:1" fill="#1c1d1e" d="M 1228.5,687.5 C 1229.83,688.832 1231.5,689.665 1233.5,690C 1232.46,691.617 1231.3,691.784 1230,690.5C 1229.69,691.766 1229.19,692.933 1228.5,694C 1229.5,694.833 1230.5,695.667 1231.5,696.5C 1230.36,697.425 1230.36,698.259 1231.5,699C 1229.54,698.734 1228.04,697.567 1227,695.5C 1226.33,696.833 1226.33,698.167 1227,699.5C 1228.32,700.974 1229.32,702.641 1230,704.5C 1230.78,703.272 1231.78,702.272 1233,701.5C 1234.45,702.355 1235.95,702.522 1237.5,702C 1233.76,703.668 1233.76,705.001 1237.5,706C 1237,706.5 1236.5,707 1236,707.5C 1234.22,706.521 1232.55,706.854 1231,708.5C 1231.16,710.811 1231.16,713.144 1231,715.5C 1230.37,717.991 1229.54,717.991 1228.5,715.5C 1227.85,717.624 1227.02,719.624 1226,721.5C 1225.67,721.167 1225.33,720.833 1225,720.5C 1223.58,721.46 1222.08,722.293 1220.5,723C 1221.67,723.5 1222.5,724.333 1223,725.5C 1224.34,724.786 1225.68,725.12 1227,726.5C 1229.97,725.397 1230.14,724.064 1227.5,722.5C 1228.83,721.167 1230.17,721.167 1231.5,722.5C 1230.94,726.09 1232.11,726.424 1235,723.5C 1236,726.167 1237,726.167 1238,723.5C 1238.37,724.416 1238.87,725.25 1239.5,726C 1238.13,727.6 1237.13,729.433 1236.5,731.5C 1235.5,730.5 1234.5,729.5 1233.5,728.5C 1234.51,727.604 1234.51,726.938 1233.5,726.5C 1231.93,726.694 1230.43,726.694 1229,726.5C 1227,729.167 1225,729.167 1223,726.5C 1221.14,728.361 1221.64,729.694 1224.5,730.5C 1221.95,732.219 1222.28,733.552 1225.5,734.5C 1224.47,734.554 1223.3,734.888 1222,735.5C 1221.83,735.833 1221.67,736.167 1221.5,736.5C 1222.83,737.167 1224.17,737.833 1225.5,738.5C 1224.62,739.251 1223.62,739.751 1222.5,740C 1224.5,741.333 1226.17,743 1227.5,745C 1225.12,746.41 1223.45,748.41 1222.5,751C 1220.6,751.199 1219.1,752.033 1218,753.5C 1216.36,751.075 1215.19,748.408 1214.5,745.5C 1213.68,748.785 1213.18,752.118 1213,755.5C 1211.93,756.618 1210.76,757.618 1209.5,758.5C 1210.87,759.594 1212.03,759.26 1213,757.5C 1213.5,760.817 1213.67,764.15 1213.5,767.5C 1211.88,767.36 1210.71,768.027 1210,769.5C 1209.51,768.207 1209.34,766.873 1209.5,765.5C 1208.17,765.5 1206.83,765.5 1205.5,765.5C 1206.78,768.49 1206.78,771.156 1205.5,773.5C 1204.28,773.113 1203.61,772.28 1203.5,771C 1204.19,769.838 1204.35,768.672 1204,767.5C 1202.35,768.779 1201.19,770.445 1200.5,772.5C 1199.27,771.66 1198.27,770.66 1197.5,769.5C 1197.83,768.167 1198.17,766.833 1198.5,765.5C 1200.54,756.696 1203.54,748.363 1207.5,740.5C 1209.01,738.819 1210.01,736.819 1210.5,734.5C 1211.37,730 1212.71,725.667 1214.5,721.5C 1215.91,721.027 1216.57,720.027 1216.5,718.5C 1216.93,715.215 1217.93,712.215 1219.5,709.5C 1221.01,707.819 1222.01,705.819 1222.5,703.5C 1222.77,701.035 1223.43,698.701 1224.5,696.5C 1225.93,695.22 1226.6,693.553 1226.5,691.5C 1227.67,690.486 1228.34,689.153 1228.5,687.5 Z"/></g>
<g><path style="opacity:1" fill="#a8a8a8" d="M 714.5,727.5 C 715.931,728.78 716.598,730.447 716.5,732.5C 714.787,731.365 714.12,729.698 714.5,727.5 Z"/></g>
<g><path style="opacity:1" fill="#bbbcbb" d="M 692.5,731.5 C 693.931,732.78 694.598,734.447 694.5,736.5C 693.069,735.22 692.402,733.553 692.5,731.5 Z"/></g>
<g><path style="opacity:1" fill="#afafaf" d="M 1210.5,734.5 C 1210.01,736.819 1209.01,738.819 1207.5,740.5C 1207.46,737.911 1208.46,735.911 1210.5,734.5 Z"/></g>
<g><path style="opacity:1" fill="#d2d2d2" d="M 719.5,741.5 C 721.104,742.287 721.771,743.62 721.5,745.5C 720.326,744.486 719.66,743.153 719.5,741.5 Z"/></g>
<g><path style="opacity:1" fill="#6c7070" d="M 699.5,749.5 C 700.558,750.6 701.392,751.934 702,753.5C 702.333,753.167 702.667,752.833 703,752.5C 703.47,753.577 703.303,754.577 702.5,755.5C 700.461,754.089 699.461,752.089 699.5,749.5 Z"/></g>
<g><path style="opacity:1" fill="#d7d7d8" d="M 1348.5,752.5 C 1348.71,754.179 1348.05,755.179 1346.5,755.5C 1346.93,754.29 1347.6,753.29 1348.5,752.5 Z"/></g>
<g><path style="opacity:1" fill="#dcdcdc" d="M 725.5,757.5 C 727.048,757.821 727.715,758.821 727.5,760.5C 726.599,759.71 725.932,758.71 725.5,757.5 Z"/></g>
<g><path style="opacity:1" fill="#1b1b1d" d="M 1395.5,630.5 C 1394.89,631.391 1394.56,632.391 1394.5,633.5C 1393.89,636.327 1392.89,638.993 1391.5,641.5C 1390.07,642.78 1389.4,644.447 1389.5,646.5C 1387.82,650.587 1386.16,654.587 1384.5,658.5C 1383.66,659.671 1382.99,661.005 1382.5,662.5C 1382.57,663.959 1382.23,665.292 1381.5,666.5C 1380.39,667.149 1379.39,667.483 1378.5,667.5C 1378.83,668.167 1379.17,668.833 1379.5,669.5C 1377.78,671.868 1377.11,674.534 1377.5,677.5C 1376.32,679.679 1375.32,682.013 1374.5,684.5C 1373.07,685.78 1372.4,687.447 1372.5,689.5C 1371.66,690.671 1370.99,692.005 1370.5,693.5C 1370.17,694.833 1369.83,696.167 1369.5,697.5C 1366.45,696.185 1365.78,697.185 1367.5,700.5C 1365.76,703.234 1364.76,706.234 1364.5,709.5C 1363.95,712.746 1362.95,715.746 1361.5,718.5C 1360.13,720.25 1359.13,722.25 1358.5,724.5C 1356.12,734.321 1352.79,743.654 1348.5,752.5C 1347.6,753.29 1346.93,754.29 1346.5,755.5C 1344.13,765.298 1340.79,774.632 1336.5,783.5C 1335.33,784.514 1334.66,785.847 1334.5,787.5C 1333.95,790.746 1332.95,793.746 1331.5,796.5C 1330.13,798.25 1329.13,800.25 1328.5,802.5C 1328.23,804.965 1327.57,807.299 1326.5,809.5C 1325.07,810.78 1324.4,812.447 1324.5,814.5C 1323.33,815.514 1322.66,816.847 1322.5,818.5C 1321.95,821.746 1320.95,824.746 1319.5,827.5C 1318.13,829.25 1317.13,831.25 1316.5,833.5C 1316.1,837.116 1315.1,840.45 1313.5,843.5C 1312.13,845.25 1311.13,847.25 1310.5,849.5C 1308.12,859.321 1304.79,868.654 1300.5,877.5C 1299.6,878.29 1298.93,879.29 1298.5,880.5C 1298.23,882.965 1297.57,885.299 1296.5,887.5C 1295.07,888.78 1294.4,890.447 1294.5,892.5C 1293.33,893.514 1292.66,894.847 1292.5,896.5C 1291.95,899.746 1290.95,902.746 1289.5,905.5C 1287.93,907.509 1286.93,909.843 1286.5,912.5C 1286.44,913.609 1286.11,914.609 1285.5,915.5C 1284.78,917.246 1283.78,917.912 1282.5,917.5C 1283.25,918.736 1283.58,920.07 1283.5,921.5C 1282.07,922.78 1281.4,924.447 1281.5,926.5C 1280.5,929.167 1279.5,931.833 1278.5,934.5C 1277.83,935.167 1277.17,935.833 1276.5,936.5C 1274.01,935.538 1274.01,934.705 1276.5,934C 1275.17,933.333 1275.17,932.667 1276.5,932C 1274.03,928.53 1273.03,929.03 1273.5,933.5C 1272.13,933.343 1270.79,933.51 1269.5,934C 1269.83,934.333 1270.17,934.667 1270.5,935C 1269.91,936.509 1269.24,938.009 1268.5,939.5C 1266.5,937.5 1264.5,935.5 1262.5,933.5C 1261.83,933.833 1261.17,934.167 1260.5,934.5C 1258.75,931.167 1259.75,929.501 1263.5,929.5C 1263.2,927.396 1263.53,925.396 1264.5,923.5C 1265.17,924.167 1265.83,924.833 1266.5,925.5C 1266.96,922.677 1265.96,920.177 1263.5,918C 1264.79,917.51 1266.13,917.343 1267.5,917.5C 1267.5,916.167 1267.5,914.833 1267.5,913.5C 1269.6,913.201 1271.6,913.534 1273.5,914.5C 1272.83,915.167 1272.17,915.833 1271.5,916.5C 1273,919.967 1274,923.634 1274.5,927.5C 1276.02,924.134 1276.68,920.801 1276.5,917.5C 1277.31,917.808 1277.97,918.308 1278.5,919C 1277.17,921.333 1277.83,922.333 1280.5,922C 1279.87,919.2 1279.21,916.366 1278.5,913.5C 1277.83,914.167 1277.17,914.833 1276.5,915.5C 1275.87,913.433 1274.87,911.6 1273.5,910C 1274.94,909.781 1276.27,909.281 1277.5,908.5C 1274.83,905.833 1274.83,903.167 1277.5,900.5C 1276.5,899.5 1275.5,898.5 1274.5,897.5C 1274.17,897.833 1273.83,898.167 1273.5,898.5C 1273.84,901.189 1273.5,903.522 1272.5,905.5C 1271.72,904.271 1271.22,902.938 1271,901.5C 1270.17,903.405 1269.01,903.739 1267.5,902.5C 1269.49,900.691 1270.82,898.524 1271.5,896C 1271.09,892.894 1270.09,892.728 1268.5,895.5C 1267.81,892.855 1266.81,890.355 1265.5,888C 1266.98,887.02 1268.31,885.853 1269.5,884.5C 1267.98,882.815 1266.32,881.315 1264.5,880C 1265.93,880.311 1267.27,880.145 1268.5,879.5C 1269.33,880.415 1270.33,881.081 1271.5,881.5C 1273.97,880.008 1276.64,879.342 1279.5,879.5C 1279.51,875.33 1279.01,871.33 1278,867.5C 1279.35,868.961 1280.85,870.294 1282.5,871.5C 1285.47,869.994 1285.81,868.328 1283.5,866.5C 1289.39,866.276 1292.06,863.276 1291.5,857.5C 1290.17,857.5 1288.83,857.5 1287.5,857.5C 1287.64,855.738 1287.31,854.071 1286.5,852.5C 1286.92,851.328 1287.59,850.328 1288.5,849.5C 1289.17,851.5 1289.83,853.5 1290.5,855.5C 1291.83,852.833 1293.17,852.833 1294.5,855.5C 1296.43,852.848 1298.26,850.848 1300,849.5C 1301,851.5 1302,853.5 1303,855.5C 1303.72,854.549 1304.55,854.383 1305.5,855C 1304.5,856 1303.5,857 1302.5,858C 1302.69,859.645 1302.86,861.479 1303,863.5C 1305.34,862.708 1305.84,861.375 1304.5,859.5C 1307.09,856.686 1307.09,853.853 1304.5,851C 1306.3,848.695 1308.3,846.528 1310.5,844.5C 1308.77,842.766 1307.43,840.766 1306.5,838.5C 1305.5,840 1304.5,841.5 1303.5,843C 1303.64,843.772 1303.98,844.439 1304.5,845C 1302.28,848.309 1300.94,847.809 1300.5,843.5C 1300.61,845.169 1299.61,846.502 1297.5,847.5C 1295.21,846.21 1293.21,844.543 1291.5,842.5C 1293.71,840.317 1296.37,838.984 1299.5,838.5C 1298.31,837.571 1296.98,837.238 1295.5,837.5C 1295.34,835.801 1295.51,834.134 1296,832.5C 1297.69,831.816 1299.19,830.816 1300.5,829.5C 1301.82,832.028 1302.98,832.028 1304,829.5C 1304.69,830.357 1305.52,831.023 1306.5,831.5C 1307.85,830.05 1309.52,829.383 1311.5,829.5C 1311.76,828.022 1311.43,826.689 1310.5,825.5C 1308.91,828.272 1307.91,828.106 1307.5,825C 1307.68,822.759 1308.51,822.259 1310,823.5C 1310.63,821.097 1309.8,819.263 1307.5,818C 1308.79,817.51 1310.13,817.343 1311.5,817.5C 1311.65,816.448 1311.48,815.448 1311,814.5C 1309.99,815.337 1308.82,815.67 1307.5,815.5C 1307.2,813.396 1307.53,811.396 1308.5,809.5C 1309.17,809.833 1309.83,810.167 1310.5,810.5C 1313.76,809.631 1314.1,808.297 1311.5,806.5C 1314.17,805.167 1314.17,803.833 1311.5,802.5C 1312.29,800.805 1311.96,799.138 1310.5,797.5C 1309.81,798.025 1309.31,798.692 1309,799.5C 1308.1,798.299 1306.93,797.465 1305.5,797C 1306,796.5 1306.5,796 1307,795.5C 1308.4,796.051 1309.73,796.384 1311,796.5C 1311.44,794.924 1312.27,793.59 1313.5,792.5C 1312.83,791.833 1312.17,791.167 1311.5,790.5C 1315.57,789.768 1318.9,787.768 1321.5,784.5C 1319.82,783.146 1319.32,781.479 1320,779.5C 1326.21,782.582 1326.71,781.415 1321.5,776C 1322.98,775.02 1324.31,773.853 1325.5,772.5C 1324.16,771.312 1323.49,769.812 1323.5,768C 1325.25,764.74 1327.59,761.907 1330.5,759.5C 1331.83,758.167 1333.17,758.167 1334.5,759.5C 1338.31,755.9 1337.31,754.233 1331.5,754.5C 1331.23,752.179 1331.9,750.179 1333.5,748.5C 1332.17,747.167 1330.83,745.833 1329.5,744.5C 1330.83,743.167 1332.17,741.833 1333.5,740.5C 1331.17,738.167 1328.83,735.833 1326.5,733.5C 1325.78,734.311 1324.95,734.978 1324,735.5C 1322.77,734.385 1321.6,734.385 1320.5,735.5C 1319.13,732.932 1319.47,730.599 1321.5,728.5C 1320.35,726.851 1319.02,725.351 1317.5,724C 1318.92,722.47 1319.92,720.637 1320.5,718.5C 1321.83,718.833 1323.17,719.167 1324.5,719.5C 1325.43,720.689 1325.76,722.022 1325.5,723.5C 1327.54,723.146 1329.37,723.146 1331,723.5C 1331.31,722.258 1330.81,721.258 1329.5,720.5C 1330.76,719.618 1331.93,718.618 1333,717.5C 1334.24,719.435 1334.74,721.435 1334.5,723.5C 1336.24,722.943 1337.9,722.61 1339.5,722.5C 1339.17,721.833 1338.83,721.167 1338.5,720.5C 1340.03,718.807 1341.36,716.973 1342.5,715C 1342.17,714.667 1341.83,714.333 1341.5,714C 1342.94,713.781 1344.27,713.281 1345.5,712.5C 1344.07,710.626 1342.9,708.626 1342,706.5C 1341.5,707 1341,707.5 1340.5,708C 1341.73,709.183 1341.73,710.349 1340.5,711.5C 1339.83,709.833 1339.17,708.167 1338.5,706.5C 1337.55,707.326 1336.55,707.492 1335.5,707C 1336.64,704.692 1338.31,702.859 1340.5,701.5C 1341.59,702.391 1341.59,703.391 1340.5,704.5C 1341.33,704.833 1342.17,705.167 1343,705.5C 1345.58,704.42 1347.75,702.754 1349.5,700.5C 1347.83,698.833 1346.17,697.167 1344.5,695.5C 1343.17,693.5 1343.17,691.5 1344.5,689.5C 1349.17,684.833 1353.83,680.167 1358.5,675.5C 1360.62,674.128 1361.62,674.795 1361.5,677.5C 1362.98,677.762 1364.31,677.429 1365.5,676.5C 1363.9,675.397 1362.9,673.897 1362.5,672C 1363.82,669.48 1363.16,668.98 1360.5,670.5C 1359.33,670.081 1358.33,669.415 1357.5,668.5C 1359.01,665.526 1360.67,665.193 1362.5,667.5C 1363.83,666.167 1365.17,664.833 1366.5,663.5C 1367.82,666.028 1368.98,666.028 1370,663.5C 1370.33,663.833 1370.67,664.167 1371,664.5C 1372.24,657.211 1370.74,656.211 1366.5,661.5C 1364.79,660.122 1363.45,658.455 1362.5,656.5C 1363.37,653.237 1364.7,652.904 1366.5,655.5C 1367.12,652.968 1368.12,650.635 1369.5,648.5C 1368.46,647.377 1367.79,646.044 1367.5,644.5C 1368.36,640.788 1368.36,637.288 1367.5,634C 1369.85,631.63 1372.52,631.13 1375.5,632.5C 1372.9,634.297 1373.24,635.631 1376.5,636.5C 1378.07,635.691 1379.74,635.357 1381.5,635.5C 1381.31,637.103 1381.81,638.437 1383,639.5C 1384.21,631.865 1385.54,631.531 1387,638.5C 1388.42,633.379 1389.42,633.379 1390,638.5C 1391.63,635.527 1393.47,632.86 1395.5,630.5 Z"/></g>
<g><path style="opacity:1" fill="#c0c1c0" d="M 705.5,764.5 C 706.87,766.25 707.87,768.25 708.5,770.5C 706.386,769.216 705.386,767.216 705.5,764.5 Z"/></g>
<g><path style="opacity:1" fill="#989a99" d="M 1198.5,765.5 C 1198.17,766.833 1197.83,768.167 1197.5,769.5C 1196.69,771.028 1196.02,772.694 1195.5,774.5C 1195.17,774.5 1194.83,774.5 1194.5,774.5C 1194.69,770.898 1196.03,767.898 1198.5,765.5 Z"/></g>
<g><path style="opacity:1" fill="#737474" d="M 1192.5,781.5 C 1192.25,783.967 1191.25,785.967 1189.5,787.5C 1189.39,784.784 1190.39,782.784 1192.5,781.5 Z"/></g>
<g><path style="opacity:1" fill="#bebfbf" d="M 1336.5,783.5 C 1336.77,785.38 1336.1,786.713 1334.5,787.5C 1334.66,785.847 1335.33,784.514 1336.5,783.5 Z"/></g>
<g><path style="opacity:1" fill="#c6c6c6" d="M 737.5,787.5 C 739.104,788.287 739.771,789.62 739.5,791.5C 738.326,790.486 737.66,789.153 737.5,787.5 Z"/></g>
<g><path style="opacity:1" fill="#707071" d="M 717.5,794.5 C 719.308,795.918 719.975,797.918 719.5,800.5C 718.262,798.786 717.595,796.786 717.5,794.5 Z"/></g>
<g><path style="opacity:1" fill="#b1b1b1" d="M 1186.5,796.5 C 1186.34,798.153 1185.67,799.486 1184.5,800.5C 1184.23,798.62 1184.9,797.287 1186.5,796.5 Z"/></g>
<g><path style="opacity:1" fill="#c1c1c1" d="M 1331.5,796.5 C 1331.61,799.216 1330.61,801.216 1328.5,802.5C 1329.13,800.25 1330.13,798.25 1331.5,796.5 Z"/></g>
<g><path style="opacity:1" fill="#d1d3d1" d="M 743.5,802.5 C 745.104,803.287 745.771,804.62 745.5,806.5C 744.326,805.486 743.66,804.153 743.5,802.5 Z"/></g>
<g><path style="opacity:1" fill="#dcdcdd" d="M 723.5,810.5 C 724.931,811.78 725.598,813.447 725.5,815.5C 724.069,814.22 723.402,812.553 723.5,810.5 Z"/></g>
<g><path style="opacity:1" fill="#1d1d1f" d="M 1194.5,774.5 C 1194.83,774.5 1195.17,774.5 1195.5,774.5C 1197.52,775.047 1199.35,776.047 1201,777.5C 1201.56,775.405 1202.06,775.238 1202.5,777C 1200.09,779.597 1197.25,780.097 1194,778.5C 1193.84,781.751 1193.84,785.084 1194,788.5C 1194.33,789.167 1194.67,789.833 1195,790.5C 1195.72,788.888 1195.55,787.388 1194.5,786C 1195.09,784.491 1195.76,782.991 1196.5,781.5C 1197.5,782.5 1198.5,783.5 1199.5,784.5C 1198.43,786.325 1199.1,787.492 1201.5,788C 1199.93,788.336 1198.59,789.169 1197.5,790.5C 1198.17,791.167 1198.83,791.833 1199.5,792.5C 1199.81,794.201 1199.31,795.868 1198,797.5C 1197.69,796.692 1197.19,796.025 1196.5,795.5C 1195.67,797.5 1194.83,799.5 1194,801.5C 1192.68,802.88 1191.34,803.214 1190,802.5C 1187.99,805.04 1187.33,807.707 1188,810.5C 1187.28,809.549 1186.45,809.383 1185.5,810C 1186.23,811.399 1186.73,812.899 1187,814.5C 1187.48,813.552 1187.65,812.552 1187.5,811.5C 1188.68,811.281 1189.68,811.614 1190.5,812.5C 1189.5,814.167 1188.17,815.5 1186.5,816.5C 1185.12,818.163 1185.46,819.497 1187.5,820.5C 1186.17,821.833 1184.83,823.167 1183.5,824.5C 1184.93,826.374 1186.1,828.374 1187,830.5C 1187.72,829.549 1188.55,829.383 1189.5,830C 1186.3,832.702 1183.63,835.869 1181.5,839.5C 1181.56,840.737 1182.06,841.737 1183,842.5C 1183.72,841.549 1184.55,841.383 1185.5,842C 1184,842.833 1182.83,844 1182,845.5C 1181.69,844.692 1181.19,844.025 1180.5,843.5C 1179.41,844.391 1179.41,845.391 1180.5,846.5C 1179.48,847.354 1178.64,848.354 1178,849.5C 1177.58,848.044 1176.74,847.544 1175.5,848C 1175.64,849.916 1175.14,851.749 1174,853.5C 1173.67,852.833 1173.33,852.167 1173,851.5C 1172.33,852.833 1171.33,853.833 1170,854.5C 1169.16,860.439 1167.66,866.105 1165.5,871.5C 1166.25,873.241 1166.58,874.908 1166.5,876.5C 1165.5,879.174 1163.83,879.841 1161.5,878.5C 1158.96,879.735 1158.96,880.901 1161.5,882C 1161.02,883.008 1160.85,884.175 1161,885.5C 1158.87,883.623 1156.37,882.623 1153.5,882.5C 1153.49,884.308 1153.99,885.975 1155,887.5C 1156.49,886.804 1157.99,887.138 1159.5,888.5C 1158.5,889.833 1157.5,891.167 1156.5,892.5C 1156.71,893.086 1157.04,893.586 1157.5,894C 1156.24,895.113 1155.07,895.28 1154,894.5C 1153.21,897.471 1152.54,900.471 1152,903.5C 1151.67,903.167 1151.33,902.833 1151,902.5C 1149.37,903.726 1147.87,905.059 1146.5,906.5C 1150.17,907.231 1150.84,908.731 1148.5,911C 1151.85,911.089 1152.35,912.256 1150,914.5C 1148.3,912.734 1146.97,910.734 1146,908.5C 1145.31,909.025 1144.81,909.692 1144.5,910.5C 1145.14,911.732 1145.31,913.065 1145,914.5C 1145.33,914.167 1145.67,913.833 1146,913.5C 1148.21,916.554 1149.21,919.887 1149,923.5C 1147.6,922.949 1146.27,922.616 1145,922.5C 1144.69,924.391 1145.52,925.725 1147.5,926.5C 1146.19,929.135 1144.52,931.469 1142.5,933.5C 1141.57,935.105 1141.57,936.605 1142.5,938C 1141.17,938.333 1139.83,938.667 1138.5,939C 1137.17,940 1137.17,941 1138.5,942C 1137.15,942.772 1136.32,943.939 1136,945.5C 1135.69,944.692 1135.19,944.025 1134.5,943.5C 1132.08,945.302 1131.24,947.635 1132,950.5C 1133.69,949.816 1135.19,948.816 1136.5,947.5C 1137.72,948.646 1139.05,949.646 1140.5,950.5C 1138.88,952.836 1137.05,952.836 1135,950.5C 1134.01,953.424 1133.35,956.424 1133,959.5C 1132.33,960.833 1131.67,960.833 1131,959.5C 1129.5,961.411 1128.17,963.411 1127,965.5C 1126,964.167 1125,964.167 1124,965.5C 1123.14,967.087 1122.47,968.754 1122,970.5C 1121.62,969.944 1121.12,969.611 1120.5,969.5C 1121.1,966.032 1122.1,962.699 1123.5,959.5C 1124.93,958.22 1125.6,956.553 1125.5,954.5C 1130.66,941.525 1135.66,928.525 1140.5,915.5C 1142.58,912.947 1143.92,909.947 1144.5,906.5C 1144.77,904.035 1145.43,901.701 1146.5,899.5C 1148.21,898.365 1148.88,896.698 1148.5,894.5C 1149.67,893.486 1150.34,892.153 1150.5,890.5C 1151.1,887.032 1152.1,883.699 1153.5,880.5C 1155.21,879.365 1155.88,877.698 1155.5,875.5C 1156.83,872.167 1158.17,868.833 1159.5,865.5C 1161.09,863.887 1162.09,861.887 1162.5,859.5C 1163.37,855 1164.71,850.667 1166.5,846.5C 1167.91,846.027 1168.57,845.027 1168.5,843.5C 1168.93,840.215 1169.93,837.215 1171.5,834.5C 1173.25,832.967 1174.25,830.967 1174.5,828.5C 1174.98,824.916 1175.98,821.583 1177.5,818.5C 1179.25,816.967 1180.25,814.967 1180.5,812.5C 1181.26,808.216 1182.59,804.216 1184.5,800.5C 1185.67,799.486 1186.34,798.153 1186.5,796.5C 1186.93,793.215 1187.93,790.215 1189.5,787.5C 1191.25,785.967 1192.25,783.967 1192.5,781.5C 1192.39,778.921 1193.06,776.588 1194.5,774.5 Z"/></g>
<g><path style="opacity:1" fill="#c8c9c6" d="M 1326.5,809.5 C 1326.6,811.553 1325.93,813.22 1324.5,814.5C 1324.4,812.447 1325.07,810.78 1326.5,809.5 Z"/></g>
<g><path style="opacity:1" fill="#7f8182" d="M 1180.5,812.5 C 1180.25,814.967 1179.25,816.967 1177.5,818.5C 1177.39,815.784 1178.39,813.784 1180.5,812.5 Z"/></g>
<g><path style="opacity:1" fill="#b4b4b4" d="M 1324.5,814.5 C 1324.77,816.38 1324.1,817.713 1322.5,818.5C 1322.66,816.847 1323.33,815.514 1324.5,814.5 Z"/></g>
<g><path style="opacity:1" fill="#c2c2c6" d="M 729.5,825.5 C 730.931,826.78 731.598,828.447 731.5,830.5C 730.069,829.22 729.402,827.553 729.5,825.5 Z"/></g>
<g><path style="opacity:1" fill="#bebebe" d="M 1319.5,827.5 C 1319.61,830.216 1318.61,832.216 1316.5,833.5C 1317.13,831.25 1318.13,829.25 1319.5,827.5 Z"/></g>
<g><path style="opacity:1" fill="#747474" d="M 1174.5,828.5 C 1174.25,830.967 1173.25,832.967 1171.5,834.5C 1171.39,831.784 1172.39,829.784 1174.5,828.5 Z"/></g>
<g><path style="opacity:1" fill="#879289" d="M 756.5,834.5 C 757.931,835.78 758.598,837.447 758.5,839.5C 756.787,838.365 756.12,836.698 756.5,834.5 Z"/></g>
<g><path style="opacity:1" fill="#b9b9b9" d="M 735.5,840.5 C 736.931,841.78 737.598,843.447 737.5,845.5C 736.069,844.22 735.402,842.553 735.5,840.5 Z"/></g>
<g><path style="opacity:1" fill="#a9a9a9" d="M 1168.5,843.5 C 1168.57,845.027 1167.91,846.027 1166.5,846.5C 1166.43,844.973 1167.09,843.973 1168.5,843.5 Z"/></g>
<g><path style="opacity:1" fill="#e1e1e2" d="M 1313.5,843.5 C 1313.61,846.216 1312.61,848.216 1310.5,849.5C 1311.13,847.25 1312.13,845.25 1313.5,843.5 Z"/></g>
<g><path style="opacity:1" fill="#d0d1d1" d="M 742.5,858.5 C 743.401,859.29 744.068,860.29 744.5,861.5C 742.952,861.179 742.285,860.179 742.5,858.5 Z"/></g>
<g><path style="opacity:1" fill="#939793" d="M 1162.5,859.5 C 1162.09,861.887 1161.09,863.887 1159.5,865.5C 1159.39,862.784 1160.39,860.784 1162.5,859.5 Z"/></g>
<g><path style="opacity:1" fill="#e9e9e9" d="M 768.5,864.5 C 769.931,865.78 770.598,867.447 770.5,869.5C 769.069,868.22 768.402,866.553 768.5,864.5 Z"/></g>
<g><path style="opacity:1" fill="#cacacb" d="M 746.5,868.5 C 747.931,869.78 748.598,871.447 748.5,873.5C 747.069,872.22 746.402,870.553 746.5,868.5 Z"/></g>
<g><path style="opacity:1" fill="#ababab" d="M 748.5,873.5 C 749.674,874.514 750.34,875.847 750.5,877.5C 748.896,876.713 748.229,875.38 748.5,873.5 Z"/></g>
<g><path style="opacity:1" fill="#e3e3e3" d="M 1300.5,877.5 C 1300.71,879.179 1300.05,880.179 1298.5,880.5C 1298.93,879.29 1299.6,878.29 1300.5,877.5 Z"/></g>
<g><path style="opacity:1" fill="#abb0b0" d="M 1155.5,875.5 C 1155.88,877.698 1155.21,879.365 1153.5,880.5C 1153.8,878.597 1154.46,876.93 1155.5,875.5 Z"/></g>
<g><path style="opacity:1" fill="#d4d4d4" d="M 773.5,878.5 C 775.104,879.287 775.771,880.62 775.5,882.5C 774.326,881.486 773.66,880.153 773.5,878.5 Z"/></g>
<g><path style="opacity:1" fill="#cbcbcb" d="M 753.5,886.5 C 754.931,887.78 755.598,889.447 755.5,891.5C 754.069,890.22 753.402,888.553 753.5,886.5 Z"/></g>
<g><path style="opacity:1" fill="#ccd0cc" d="M 1296.5,887.5 C 1296.6,889.553 1295.93,891.22 1294.5,892.5C 1294.4,890.447 1295.07,888.78 1296.5,887.5 Z"/></g>
<g><path style="opacity:1" fill="#a0a0a3" d="M 1150.5,890.5 C 1150.34,892.153 1149.67,893.486 1148.5,894.5C 1148.23,892.62 1148.9,891.287 1150.5,890.5 Z"/></g>
<g><path style="opacity:1" fill="#cdcdce" d="M 778.5,891.5 C 780.539,892.911 781.539,894.911 781.5,897.5C 779.992,895.819 778.992,893.819 778.5,891.5 Z"/></g>
<g><path style="opacity:1" fill="#adaead" d="M 1294.5,892.5 C 1294.77,894.38 1294.1,895.713 1292.5,896.5C 1292.66,894.847 1293.33,893.514 1294.5,892.5 Z"/></g>
<g><path style="opacity:1" fill="#8e9190" d="M 1148.5,894.5 C 1148.88,896.698 1148.21,898.365 1146.5,899.5C 1146.4,897.447 1147.07,895.78 1148.5,894.5 Z"/></g>
<g><path style="opacity:1" fill="#c5c6c6" d="M 759.5,901.5 C 760.931,902.78 761.598,904.447 761.5,906.5C 760.069,905.22 759.402,903.553 759.5,901.5 Z"/></g>
<g><path style="opacity:1" fill="#cecece" d="M 1289.5,905.5 C 1289.45,908.346 1288.45,910.68 1286.5,912.5C 1286.93,909.843 1287.93,907.509 1289.5,905.5 Z"/></g>
<g><path style="opacity:1" fill="#808080" d="M 1144.5,906.5 C 1143.92,909.947 1142.58,912.947 1140.5,915.5C 1140.69,911.898 1142.03,908.898 1144.5,906.5 Z"/></g>
<g><path style="opacity:1" fill="#727272" d="M 785.5,908.5 C 787.293,910.426 788.293,912.759 788.5,915.5C 785.29,913.853 784.29,911.52 785.5,908.5 Z"/></g>
<g><path style="opacity:1" fill="#686b6b" d="M 1285.5,915.5 C 1285.41,917.786 1284.74,919.786 1283.5,921.5C 1283.58,920.07 1283.25,918.736 1282.5,917.5C 1283.78,917.912 1284.78,917.246 1285.5,915.5 Z"/></g>
<g><path style="opacity:1" fill="#cfcfcf" d="M 1283.5,921.5 C 1283.6,923.553 1282.93,925.22 1281.5,926.5C 1281.4,924.447 1282.07,922.78 1283.5,921.5 Z"/></g>
<g><path style="opacity:1" fill="#dddddd" d="M 792.5,925.5 C 793.931,926.78 794.598,928.447 794.5,930.5C 793.069,929.22 792.402,927.553 792.5,925.5 Z"/></g>
<g><path style="opacity:1" fill="#a9aaaa" d="M 771.5,931.5 C 772.931,932.78 773.598,934.447 773.5,936.5C 772.069,935.22 771.402,933.553 771.5,931.5 Z"/></g>
<g><path style="opacity:1" fill="#d5d8d8" d="M 1278.5,934.5 C 1278.6,936.553 1277.93,938.22 1276.5,939.5C 1276.5,938.5 1276.5,937.5 1276.5,936.5C 1277.17,935.833 1277.83,935.167 1278.5,934.5 Z"/></g>
<g><path style="opacity:1" fill="#8c8c8c" d="M 797.5,938.5 C 799.065,940.509 800.065,942.843 800.5,945.5C 798.166,943.824 797.166,941.491 797.5,938.5 Z"/></g>
<g><path style="opacity:1" fill="#bfbfbf" d="M 1276.5,939.5 C 1276.77,941.38 1276.1,942.713 1274.5,943.5C 1274.66,941.847 1275.33,940.514 1276.5,939.5 Z"/></g>
<g><path style="opacity:1" fill="#757878" d="M 777.5,946.5 C 778.309,947.469 779.309,948.302 780.5,949C 779.663,950.011 779.33,951.178 779.5,952.5C 778.262,950.786 777.595,948.786 777.5,946.5 Z"/></g>
<g><path style="opacity:1" fill="#c7c7c7" d="M 1271.5,952.5 C 1271.6,954.553 1270.93,956.22 1269.5,957.5C 1269.4,955.447 1270.07,953.78 1271.5,952.5 Z"/></g>
<g><path style="opacity:1" fill="#9c9f9c" d="M 803.5,953.5 C 804.931,954.78 805.598,956.447 805.5,958.5C 803.787,957.365 803.12,955.698 803.5,953.5 Z"/></g>
<g><path style="opacity:1" fill="#e6e6e6" d="M 1125.5,954.5 C 1125.6,956.553 1124.93,958.22 1123.5,959.5C 1123.4,957.447 1124.07,955.78 1125.5,954.5 Z"/></g>
<g><path style="opacity:1" fill="#929292" d="M 805.5,958.5 C 806.537,959.93 807.204,961.597 807.5,963.5C 805.787,962.365 805.12,960.698 805.5,958.5 Z"/></g>
<g><path style="opacity:1" fill="#a1a1a1" d="M 784.5,964.5 C 785.674,965.514 786.34,966.847 786.5,968.5C 784.896,967.713 784.229,966.38 784.5,964.5 Z"/></g>
<g><path style="opacity:1" fill="#cbcbcb" d="M 808.5,967.5 C 810.104,968.287 810.771,969.62 810.5,971.5C 809.326,970.486 808.66,969.153 808.5,967.5 Z"/></g>
<g><path style="opacity:1" fill="#cbcbcb" d="M 1266.5,965.5 C 1266.6,967.553 1265.93,969.22 1264.5,970.5C 1264.4,968.447 1265.07,966.78 1266.5,965.5 Z"/></g>
<g><path style="opacity:1" fill="#848787" d="M 1119.5,970.5 C 1119.4,973.636 1118.4,976.302 1116.5,978.5C 1116.73,975.458 1117.73,972.792 1119.5,970.5 Z"/></g>
<g><path style="opacity:1" fill="#aaadaa" d="M 815.5,983.5 C 816.931,984.78 817.598,986.447 817.5,988.5C 815.787,987.365 815.12,985.698 815.5,983.5 Z"/></g>
<g><path style="opacity:1" fill="#dadada" d="M 1258.5,986.5 C 1258.77,988.38 1258.1,989.713 1256.5,990.5C 1256.66,988.847 1257.33,987.514 1258.5,986.5 Z"/></g>
<g><path style="opacity:1" fill="#737475" d="M 1114.5,985.5 C 1114.25,987.967 1113.25,989.967 1111.5,991.5C 1111.39,988.784 1112.39,986.784 1114.5,985.5 Z"/></g>
<g><path style="opacity:1" fill="#ced8d8" d="M 1254.5,996.5 C 1254.27,999.542 1253.27,1002.21 1251.5,1004.5C 1251.73,1001.46 1252.73,998.792 1254.5,996.5 Z"/></g>
<g><path style="opacity:1" fill="#9b9b9e" d="M 822.5,1001.5 C 823.537,1002.93 824.204,1004.6 824.5,1006.5C 822.787,1005.36 822.12,1003.7 822.5,1001.5 Z"/></g>
<g><path style="opacity:1" fill="#b3b3b4" d="M 801.5,1007.5 C 802.931,1008.78 803.598,1010.45 803.5,1012.5C 802.069,1011.22 801.402,1009.55 801.5,1007.5 Z"/></g>
<g><path style="opacity:1" fill="#d0d4d1" d="M 1248.5,1012.5 C 1248.6,1014.55 1247.93,1016.22 1246.5,1017.5C 1246.4,1015.45 1247.07,1013.78 1248.5,1012.5 Z"/></g>
<g><path style="opacity:1" fill="#b8b8ba" d="M 1102.5,1016.5 C 1102.34,1018.15 1101.67,1019.49 1100.5,1020.5C 1100.23,1018.62 1100.9,1017.29 1102.5,1016.5 Z"/></g>
<g><path style="opacity:1" fill="#727272" d="M 807.5,1022.5 C 809.308,1023.92 809.975,1025.92 809.5,1028.5C 808.262,1026.79 807.595,1024.79 807.5,1022.5 Z"/></g>
<g><path style="opacity:1" fill="#9a9a9a" d="M 833.5,1029.5 C 834.931,1030.78 835.598,1032.45 835.5,1034.5C 833.787,1033.36 833.12,1031.7 833.5,1029.5 Z"/></g>
<g><path style="opacity:1" fill="#6b6d6d" d="M 811.5,1032.5 C 813.308,1033.92 813.975,1035.92 813.5,1038.5C 812.262,1036.79 811.595,1034.79 811.5,1032.5 Z"/></g>
<g><path style="opacity:1" fill="#959595" d="M 1096.5,1032.5 C 1096.57,1034.03 1095.91,1035.03 1094.5,1035.5C 1094.29,1033.82 1094.95,1032.82 1096.5,1032.5 Z"/></g>
<g><path style="opacity:1" fill="#bfc1bf" d="M 1241.5,1030.5 C 1241.6,1032.55 1240.93,1034.22 1239.5,1035.5C 1239.4,1033.45 1240.07,1031.78 1241.5,1030.5 Z"/></g>
<g><path style="opacity:1" fill="#6a6b6c" d="M 1238.5,1037.5 C 1237.92,1041.53 1236.58,1045.2 1234.5,1048.5C 1234.89,1045.12 1235.55,1041.79 1236.5,1038.5C 1237.18,1038.14 1237.85,1037.8 1238.5,1037.5 Z"/></g>
<g><path style="opacity:1" fill="#b6b6b6" d="M 814.5,1040.5 C 815.674,1041.51 816.34,1042.85 816.5,1044.5C 814.896,1043.71 814.229,1042.38 814.5,1040.5 Z"/></g>
<g><path style="opacity:1" fill="#a3a3a3" d="M 839.5,1044.5 C 840.931,1045.78 841.598,1047.45 841.5,1049.5C 839.787,1048.36 839.12,1046.7 839.5,1044.5 Z"/></g>
<g><path style="opacity:1" fill="#b7b8b8" d="M 1234.5,1048.5 C 1234.77,1050.38 1234.1,1051.71 1232.5,1052.5C 1232.66,1050.85 1233.33,1049.51 1234.5,1048.5 Z"/></g>
<g><path style="opacity:1" fill="#959595" d="M 841.5,1049.5 C 842.537,1050.93 843.204,1052.6 843.5,1054.5C 841.787,1053.36 841.12,1051.7 841.5,1049.5 Z"/></g>
<g><path style="opacity:1" fill="#838684" d="M 1090.5,1047.5 C 1090.24,1050.27 1089.24,1052.61 1087.5,1054.5C 1087.55,1051.65 1088.55,1049.32 1090.5,1047.5 Z"/></g>
<g><path style="opacity:1" fill="#c0c1c0" d="M 819.5,1053.5 C 820.931,1054.78 821.598,1056.45 821.5,1058.5C 820.069,1057.22 819.402,1055.55 819.5,1053.5 Z"/></g>
<g><path style="opacity:1" fill="#7b7c7e" d="M 843.5,1055.5 C 844.912,1057.6 845.912,1059.94 846.5,1062.5C 844.182,1060.81 843.182,1058.48 843.5,1055.5 Z"/></g>
<g><path style="opacity:1" fill="#a3a8a3" d="M 1084.5,1063.5 C 1084.34,1065.15 1083.67,1066.49 1082.5,1067.5C 1082.23,1065.62 1082.9,1064.29 1084.5,1063.5 Z"/></g>
<g><path style="opacity:1" fill="#d8d8d8" d="M 850.5,1073.5 C 852.104,1074.29 852.771,1075.62 852.5,1077.5C 851.326,1076.49 850.66,1075.15 850.5,1073.5 Z"/></g>
<g><path style="opacity:1" fill="#8e918e" d="M 852.5,1077.5 C 853.537,1078.93 854.204,1080.6 854.5,1082.5C 852.787,1081.36 852.12,1079.7 852.5,1077.5 Z"/></g>
<g><path style="opacity:1" fill="#d8d9d8" d="M 1224.5,1074.5 C 1224.27,1077.54 1223.27,1080.21 1221.5,1082.5C 1221.73,1079.46 1222.73,1076.79 1224.5,1074.5 Z"/></g>
<g><path style="opacity:1" fill="#979897" d="M 1078.5,1079.5 C 1078.25,1081.97 1077.25,1083.97 1075.5,1085.5C 1075.46,1082.91 1076.46,1080.91 1078.5,1079.5 Z"/></g>
<g><path style="opacity:1" fill="#1d1d1e" d="M 1238.5,1036.5 C 1238.5,1036.83 1238.5,1037.17 1238.5,1037.5C 1237.85,1037.8 1237.18,1038.14 1236.5,1038.5C 1235.55,1041.79 1234.89,1045.12 1234.5,1048.5C 1233.33,1049.51 1232.66,1050.85 1232.5,1052.5C 1230.79,1060.29 1228.13,1067.62 1224.5,1074.5C 1222.73,1076.79 1221.73,1079.46 1221.5,1082.5C 1220.5,1085.17 1219.5,1087.83 1218.5,1090.5C 1217.07,1091.78 1216.4,1093.45 1216.5,1095.5C 1215.12,1098.91 1213.79,1102.24 1212.5,1105.5C 1209.9,1107.39 1208.9,1110.05 1209.5,1113.5C 1208.49,1116.25 1207.49,1118.92 1206.5,1121.5C 1205.07,1122.78 1204.4,1124.45 1204.5,1126.5C 1203.33,1127.51 1202.66,1128.85 1202.5,1130.5C 1202.41,1132.79 1201.74,1134.79 1200.5,1136.5C 1199.98,1133.63 1199.65,1130.97 1199.5,1128.5C 1196.63,1127.41 1193.97,1126.74 1191.5,1126.5C 1194.17,1125.83 1196.83,1125.17 1199.5,1124.5C 1199.71,1123.91 1200.04,1123.41 1200.5,1123C 1199.9,1121.17 1199.23,1119.34 1198.5,1117.5C 1197.83,1118.17 1197.17,1118.83 1196.5,1119.5C 1195.65,1118.48 1194.65,1117.64 1193.5,1117C 1194.65,1116.09 1194.49,1115.25 1193,1114.5C 1191.46,1115.82 1190.29,1115.49 1189.5,1113.5C 1190.52,1110.97 1191.68,1110.97 1193,1113.5C 1194.96,1113.22 1197.12,1113.22 1199.5,1113.5C 1199.66,1112.13 1199.49,1110.79 1199,1109.5C 1196.88,1112.32 1195.05,1112.15 1193.5,1109C 1194.54,1107.38 1195.7,1107.22 1197,1108.5C 1198.49,1107.75 1198.65,1106.91 1197.5,1106C 1199.33,1105.73 1200.83,1104.89 1202,1103.5C 1202.19,1101.94 1201.35,1101.27 1199.5,1101.5C 1199.5,1099.17 1199.5,1096.83 1199.5,1094.5C 1193.42,1094.26 1193.58,1092.93 1200,1090.5C 1201.91,1092.1 1203.41,1091.77 1204.5,1089.5C 1204.32,1091.49 1204.98,1093.49 1206.5,1095.5C 1207.17,1093.5 1207.83,1091.5 1208.5,1089.5C 1209.43,1090.69 1209.76,1092.02 1209.5,1093.5C 1210.87,1093.66 1212.21,1093.49 1213.5,1093C 1213.17,1092.67 1212.83,1092.33 1212.5,1092C 1213.5,1090.33 1214.83,1089 1216.5,1088C 1215.69,1087.69 1215.03,1087.19 1214.5,1086.5C 1215.33,1085.55 1215.49,1084.55 1215,1083.5C 1213.48,1083.94 1212.31,1083.28 1211.5,1081.5C 1213.5,1080.17 1215.5,1078.83 1217.5,1077.5C 1217.83,1078.17 1218.17,1078.83 1218.5,1079.5C 1219.31,1079.19 1219.97,1078.69 1220.5,1078C 1219.58,1075.96 1219.24,1073.79 1219.5,1071.5C 1216.11,1071.13 1213.44,1069.46 1211.5,1066.5C 1213.5,1065.83 1215.5,1065.17 1217.5,1064.5C 1216.83,1063.83 1216.17,1063.17 1215.5,1062.5C 1215.62,1060.62 1215.62,1058.79 1215.5,1057C 1217.65,1055.76 1219.81,1055.26 1222,1055.5C 1223.57,1056.86 1225.4,1057.52 1227.5,1057.5C 1227.74,1055.53 1227.41,1053.7 1226.5,1052C 1228,1049.83 1229.17,1050 1230,1052.5C 1230.96,1050.02 1231.79,1047.52 1232.5,1045C 1231.19,1038.56 1231.19,1032.06 1232.5,1025.5C 1235.46,1028.75 1237.46,1032.42 1238.5,1036.5 Z"/></g>
<g><path style="opacity:1" fill="#d9dbd9" d="M 1218.5,1090.5 C 1218.6,1092.55 1217.93,1094.22 1216.5,1095.5C 1216.4,1093.45 1217.07,1091.78 1218.5,1090.5 Z"/></g>
<g><path style="opacity:1" fill="#cacaca" d="M 836.5,1096.5 C 837.931,1097.78 838.598,1099.45 838.5,1101.5C 837.069,1100.22 836.402,1098.55 836.5,1096.5 Z"/></g>
<g><path style="opacity:1" fill="#727272" d="M 1212.5,1105.5 C 1212.27,1108.54 1211.27,1111.21 1209.5,1113.5C 1208.9,1110.05 1209.9,1107.39 1212.5,1105.5 Z"/></g>
<g><path style="opacity:1" fill="#b3b8b3" d="M 1066.5,1110.5 C 1066.07,1113.16 1065.07,1115.49 1063.5,1117.5C 1063.55,1114.65 1064.55,1112.32 1066.5,1110.5 Z"/></g>
<g><path style="opacity:1" fill="#dbdcdc" d="M 843.5,1114.5 C 844.931,1115.78 845.598,1117.45 845.5,1119.5C 844.069,1118.22 843.402,1116.55 843.5,1114.5 Z"/></g>
<g><path style="opacity:1" fill="#bcbdbd" d="M 868.5,1119.5 C 870.539,1120.91 871.539,1122.91 871.5,1125.5C 869.992,1123.82 868.992,1121.82 868.5,1119.5 Z"/></g>
<g><path style="opacity:1" fill="#c9c9c9" d="M 1206.5,1121.5 C 1206.6,1123.55 1205.93,1125.22 1204.5,1126.5C 1204.4,1124.45 1205.07,1122.78 1206.5,1121.5 Z"/></g>
<g><path style="opacity:1" fill="#aeaeae" d="M 1204.5,1126.5 C 1204.77,1128.38 1204.1,1129.71 1202.5,1130.5C 1202.66,1128.85 1203.33,1127.51 1204.5,1126.5 Z"/></g>
<g><path style="opacity:1" fill="#c5c7c5" d="M 849.5,1129.5 C 850.931,1130.78 851.598,1132.45 851.5,1134.5C 850.069,1133.22 849.402,1131.55 849.5,1129.5 Z"/></g>
<g><path style="opacity:1" fill="#bdbcb5" d="M 874.5,1134.5 C 876.104,1135.29 876.771,1136.62 876.5,1138.5C 875.326,1137.49 874.66,1136.15 874.5,1134.5 Z"/></g>
<g><path style="opacity:1" fill="#cdcdcd" d="M 1200.5,1136.5 C 1200.58,1139.65 1199.58,1142.32 1197.5,1144.5C 1197.98,1141.56 1198.98,1138.89 1200.5,1136.5 Z"/></g>
<g><path style="opacity:1" fill="#d8d8d8" d="M 854.5,1142.5 C 855.931,1143.78 856.598,1145.45 856.5,1147.5C 855.069,1146.22 854.402,1144.55 854.5,1142.5 Z"/></g>
<g><path style="opacity:1" fill="#d1d1d1" d="M 1194.5,1152.5 C 1194.45,1155.35 1193.45,1157.68 1191.5,1159.5C 1191.93,1156.84 1192.93,1154.51 1194.5,1152.5 Z"/></g>
<g><path style="opacity:1" fill="#d8d9d8" d="M 860.5,1157.5 C 861.931,1158.78 862.598,1160.45 862.5,1162.5C 861.069,1161.22 860.402,1159.55 860.5,1157.5 Z"/></g>
<g><path style="opacity:1" fill="#7b7b7d" d="M 1049.5,1155.5 C 1048.92,1158.95 1047.58,1161.95 1045.5,1164.5C 1045.69,1160.9 1047.03,1157.9 1049.5,1155.5 Z"/></g>
<g><path style="opacity:1" fill="#dfdfdf" d="M 888.5,1168.5 C 889.931,1169.78 890.598,1171.45 890.5,1173.5C 889.069,1172.22 888.402,1170.55 888.5,1168.5 Z"/></g>
<g><path style="opacity:1" fill="#d2d2d2" d="M 1188.5,1167.5 C 1188.74,1169.9 1188.07,1171.9 1186.5,1173.5C 1186.59,1171.21 1187.26,1169.21 1188.5,1167.5 Z"/></g>
<g><path style="opacity:1" fill="#1d1d20" d="M 684.5,652.5 C 685.167,652.833 685.833,653.167 686.5,653.5C 687.697,657.095 688.697,660.761 689.5,664.5C 689.755,666.967 690.755,668.967 692.5,670.5C 693.681,674.228 695.015,677.895 696.5,681.5C 696.12,683.698 696.787,685.365 698.5,686.5C 702.393,694.831 705.727,703.497 708.5,712.5C 708.12,714.698 708.787,716.365 710.5,717.5C 712.032,720.765 713.365,724.098 714.5,727.5C 714.12,729.698 714.787,731.365 716.5,732.5C 717.696,735.421 718.696,738.421 719.5,741.5C 719.66,743.153 720.326,744.486 721.5,745.5C 723.405,749.216 724.739,753.216 725.5,757.5C 725.932,758.71 726.599,759.71 727.5,760.5C 731.612,769.086 734.946,778.086 737.5,787.5C 737.66,789.153 738.326,790.486 739.5,791.5C 741.278,794.902 742.611,798.569 743.5,802.5C 743.66,804.153 744.326,805.486 745.5,806.5C 749.926,815.427 753.592,824.76 756.5,834.5C 756.12,836.698 756.787,838.365 758.5,839.5C 762.219,847.651 765.552,855.985 768.5,864.5C 768.402,866.553 769.069,868.22 770.5,869.5C 771.696,872.421 772.696,875.421 773.5,878.5C 773.66,880.153 774.326,881.486 775.5,882.5C 777.072,885.215 778.072,888.215 778.5,891.5C 778.992,893.819 779.992,895.819 781.5,897.5C 783.204,900.939 784.538,904.605 785.5,908.5C 784.29,911.52 785.29,913.853 788.5,915.5C 789.786,918.756 791.12,922.089 792.5,925.5C 792.402,927.553 793.069,929.22 794.5,930.5C 795.5,933.167 796.5,935.833 797.5,938.5C 797.166,941.491 798.166,943.824 800.5,945.5C 801.5,948.167 802.5,950.833 803.5,953.5C 803.12,955.698 803.787,957.365 805.5,958.5C 805.12,960.698 805.787,962.365 807.5,963.5C 807.833,964.833 808.167,966.167 808.5,967.5C 808.66,969.153 809.326,970.486 810.5,971.5C 812.56,975.349 814.227,979.349 815.5,983.5C 815.12,985.698 815.787,987.365 817.5,988.5C 819.013,992.88 820.68,997.213 822.5,1001.5C 822.12,1003.7 822.787,1005.36 824.5,1006.5C 828.079,1013.9 831.079,1021.56 833.5,1029.5C 833.12,1031.7 833.787,1033.36 835.5,1034.5C 837.01,1037.68 838.343,1041.02 839.5,1044.5C 839.12,1046.7 839.787,1048.36 841.5,1049.5C 841.12,1051.7 841.787,1053.36 843.5,1054.5C 843.5,1054.83 843.5,1055.17 843.5,1055.5C 843.182,1058.48 844.182,1060.81 846.5,1062.5C 848.601,1065.8 849.935,1069.46 850.5,1073.5C 850.66,1075.15 851.326,1076.49 852.5,1077.5C 852.12,1079.7 852.787,1081.36 854.5,1082.5C 859.319,1094.78 863.986,1107.11 868.5,1119.5C 868.992,1121.82 869.992,1123.82 871.5,1125.5C 872.958,1128.33 873.958,1131.33 874.5,1134.5C 874.66,1136.15 875.326,1137.49 876.5,1138.5C 881.068,1148.19 885.068,1158.19 888.5,1168.5C 888.402,1170.55 889.069,1172.22 890.5,1173.5C 895.504,1186.18 900.504,1198.85 905.5,1211.5C 905.12,1213.7 905.787,1215.36 907.5,1216.5C 908.825,1219.76 910.158,1223.09 911.5,1226.5C 911.12,1228.7 911.787,1230.36 913.5,1231.5C 917.26,1239.1 920.26,1247.1 922.5,1255.5C 922.66,1257.15 923.326,1258.49 924.5,1259.5C 924.402,1261.55 925.069,1263.22 926.5,1264.5C 929.813,1270.44 932.147,1276.77 933.5,1283.5C 932.903,1283.74 932.57,1284.24 932.5,1285C 933.078,1286.81 933.578,1288.64 934,1290.5C 934.333,1289.83 934.667,1289.17 935,1288.5C 935.424,1291.03 936.59,1293.03 938.5,1294.5C 942.147,1301.44 944.814,1308.77 946.5,1316.5C 946.427,1318.03 947.094,1319.03 948.5,1319.5C 950.405,1323.22 951.738,1327.22 952.5,1331.5C 952.66,1333.15 953.326,1334.49 954.5,1335.5C 955.931,1336.78 956.598,1338.45 956.5,1340.5C 955.85,1340.2 955.183,1339.86 954.5,1339.5C 953.514,1343.37 952.347,1343.37 951,1339.5C 950.259,1340.64 949.425,1340.64 948.5,1339.5C 947.543,1337.08 946.209,1334.92 944.5,1333C 944.833,1332.67 945.167,1332.33 945.5,1332C 943.521,1331.32 941.854,1331.82 940.5,1333.5C 939.833,1329.5 939.167,1325.5 938.5,1321.5C 937.978,1326.61 937.644,1331.61 937.5,1336.5C 935.388,1337.28 933.388,1337.28 931.5,1336.5C 930.542,1334.7 929.875,1332.7 929.5,1330.5C 929.34,1328.85 928.674,1327.51 927.5,1326.5C 921.595,1312.8 916.262,1298.8 911.5,1284.5C 911.068,1283.29 910.401,1282.29 909.5,1281.5C 909.975,1278.92 909.308,1276.92 907.5,1275.5C 906.349,1273.22 905.349,1270.89 904.5,1268.5C 904.598,1266.45 903.931,1264.78 902.5,1263.5C 897.112,1250.34 892.112,1237.01 887.5,1223.5C 887.068,1222.29 886.401,1221.29 885.5,1220.5C 883.595,1216.78 882.261,1212.78 881.5,1208.5C 881.068,1207.29 880.401,1206.29 879.5,1205.5C 877.796,1202.06 876.462,1198.39 875.5,1194.5C 875.34,1192.85 874.674,1191.51 873.5,1190.5C 869.339,1181.49 865.672,1172.15 862.5,1162.5C 862.598,1160.45 861.931,1158.78 860.5,1157.5C 859.214,1154.24 857.88,1150.91 856.5,1147.5C 856.598,1145.45 855.931,1143.78 854.5,1142.5C 853.195,1139.95 852.195,1137.28 851.5,1134.5C 851.598,1132.45 850.931,1130.78 849.5,1129.5C 847.99,1126.32 846.657,1122.98 845.5,1119.5C 845.598,1117.45 844.931,1115.78 843.5,1114.5C 841.658,1110.32 839.992,1105.99 838.5,1101.5C 838.598,1099.45 837.931,1097.78 836.5,1096.5C 831.5,1083.83 826.5,1071.17 821.5,1058.5C 821.598,1056.45 820.931,1054.78 819.5,1053.5C 817.928,1050.78 816.928,1047.78 816.5,1044.5C 816.34,1042.85 815.674,1041.51 814.5,1040.5C 813.662,1040.16 813.328,1039.49 813.5,1038.5C 813.975,1035.92 813.308,1033.92 811.5,1032.5C 810.833,1031.17 810.167,1029.83 809.5,1028.5C 809.975,1025.92 809.308,1023.92 807.5,1022.5C 805.99,1019.32 804.657,1015.98 803.5,1012.5C 803.598,1010.45 802.931,1008.78 801.5,1007.5C 797.399,998.724 793.566,989.724 790,980.5C 788.523,976.57 787.356,972.57 786.5,968.5C 786.34,966.847 785.674,965.514 784.5,964.5C 782.833,960.5 781.167,956.5 779.5,952.5C 779.33,951.178 779.663,950.011 780.5,949C 779.309,948.302 778.309,947.469 777.5,946.5C 775.99,943.317 774.657,939.984 773.5,936.5C 773.598,934.447 772.931,932.78 771.5,931.5C 767.412,923.59 764.079,915.257 761.5,906.5C 761.598,904.447 760.931,902.78 759.5,901.5C 757.968,898.235 756.635,894.902 755.5,891.5C 755.598,889.447 754.931,887.78 753.5,886.5C 751.928,883.785 750.928,880.785 750.5,877.5C 750.34,875.847 749.674,874.514 748.5,873.5C 748.598,871.447 747.931,869.78 746.5,868.5C 745.061,866.412 744.394,864.079 744.5,861.5C 744.068,860.29 743.401,859.29 742.5,858.5C 740.657,854.316 738.99,849.982 737.5,845.5C 737.598,843.447 736.931,841.78 735.5,840.5C 733.99,837.317 732.657,833.984 731.5,830.5C 731.598,828.447 730.931,826.78 729.5,825.5C 727.99,822.317 726.657,818.984 725.5,815.5C 725.598,813.447 724.931,811.78 723.5,810.5C 721.968,807.235 720.635,803.902 719.5,800.5C 719.975,797.918 719.308,795.918 717.5,794.5C 713.345,787.048 710.345,779.048 708.5,770.5C 707.87,768.25 706.87,766.25 705.5,764.5C 703.928,761.785 702.928,758.785 702.5,755.5C 703.303,754.577 703.47,753.577 703,752.5C 702.667,752.833 702.333,753.167 702,753.5C 701.392,751.934 700.558,750.6 699.5,749.5C 697.981,745.073 696.314,740.739 694.5,736.5C 694.598,734.447 693.931,732.78 692.5,731.5C 684.043,711.333 676.043,690.999 668.5,670.5C 668.414,669.504 668.748,668.671 669.5,668C 668.692,667.692 668.025,667.192 667.5,666.5C 668.641,665.575 668.641,664.741 667.5,664C 668.025,663.308 668.692,662.808 669.5,662.5C 670.197,664.385 671.197,664.718 672.5,663.5C 673.262,664.628 673.929,665.795 674.5,667C 673.106,670.093 673.773,672.759 676.5,675C 676.167,675.333 675.833,675.667 675.5,676C 679.068,680.961 680.068,680.627 678.5,675C 679.025,674.308 679.692,673.808 680.5,673.5C 682.276,674.315 682.943,675.482 682.5,677C 683.5,677.5 684.5,678 685.5,678.5C 686.642,676.622 687.642,674.788 688.5,673C 688.043,672.586 687.709,672.086 687.5,671.5C 688.441,671.511 689.108,671.011 689.5,670C 688.765,666.8 686.765,665.3 683.5,665.5C 683.383,663.516 684.05,661.85 685.5,660.5C 685.154,659.304 684.654,659.304 684,660.5C 683.199,657.633 683.366,654.966 684.5,652.5 Z"/></g>
<g><path style="opacity:1" fill="#999b9a" d="M 1037.5,1186.5 C 1036.92,1189.95 1035.58,1192.95 1033.5,1195.5C 1033.79,1191.93 1035.13,1188.93 1037.5,1186.5 Z"/></g>
<g><path style="opacity:1" fill="#dddddd" d="M 873.5,1190.5 C 874.674,1191.51 875.34,1192.85 875.5,1194.5C 873.896,1193.71 873.229,1192.38 873.5,1190.5 Z"/></g>
<g><path style="opacity:1" fill="#d1d1d1" d="M 1176.5,1199.5 C 1176.45,1202.35 1175.45,1204.68 1173.5,1206.5C 1173.93,1203.84 1174.93,1201.51 1176.5,1199.5 Z"/></g>
<g><path style="opacity:1" fill="#d1d1d3" d="M 879.5,1205.5 C 880.401,1206.29 881.068,1207.29 881.5,1208.5C 879.952,1208.18 879.285,1207.18 879.5,1205.5 Z"/></g>
<g><path style="opacity:1" fill="#7e7f7f" d="M 1031.5,1202.5 C 1030.92,1205.95 1029.58,1208.95 1027.5,1211.5C 1027.69,1207.9 1029.03,1204.9 1031.5,1202.5 Z"/></g>
<g><path style="opacity:1" fill="#9a9a9a" d="M 905.5,1211.5 C 906.931,1212.78 907.598,1214.45 907.5,1216.5C 905.787,1215.36 905.12,1213.7 905.5,1211.5 Z"/></g>
<g><path style="opacity:1" fill="#d3d3d3" d="M 1170.5,1214.5 C 1170.74,1216.9 1170.07,1218.9 1168.5,1220.5C 1168.59,1218.21 1169.26,1216.21 1170.5,1214.5 Z"/></g>
<g><path style="opacity:1" fill="#d8d8d8" d="M 885.5,1220.5 C 886.401,1221.29 887.068,1222.29 887.5,1223.5C 885.952,1223.18 885.285,1222.18 885.5,1220.5 Z"/></g>
<g><path style="opacity:1" fill="#a0a0a0" d="M 911.5,1226.5 C 912.931,1227.78 913.598,1229.45 913.5,1231.5C 911.787,1230.36 911.12,1228.7 911.5,1226.5 Z"/></g>
<g><path style="opacity:1" fill="#d4d4d4" d="M 1163.5,1233.5 C 1163.71,1235.18 1163.05,1236.18 1161.5,1236.5C 1161.93,1235.29 1162.6,1234.29 1163.5,1233.5 Z"/></g>
<g><path style="opacity:1" fill="#a4a4a4" d="M 1018.5,1234.5 C 1018.74,1236.9 1018.07,1238.9 1016.5,1240.5C 1016.59,1238.21 1017.26,1236.21 1018.5,1234.5 Z"/></g>
<g><path style="opacity:1" fill="#c5c5c5" d="M 1158.5,1246.5 C 1158.6,1248.55 1157.93,1250.22 1156.5,1251.5C 1156.4,1249.45 1157.07,1247.78 1158.5,1246.5 Z"/></g>
<g><path style="opacity:1" fill="#999c99" d="M 1013.5,1249.5 C 1013.34,1251.15 1012.67,1252.49 1011.5,1253.5C 1011.23,1251.62 1011.9,1250.29 1013.5,1249.5 Z"/></g>
<g><path style="opacity:1" fill="#cacaca" d="M 922.5,1255.5 C 924.104,1256.29 924.771,1257.62 924.5,1259.5C 923.326,1258.49 922.66,1257.15 922.5,1255.5 Z"/></g>
<g><path style="opacity:1" fill="#dadcdc" d="M 924.5,1259.5 C 925.931,1260.78 926.598,1262.45 926.5,1264.5C 925.069,1263.22 924.402,1261.55 924.5,1259.5 Z"/></g>
<g><path style="opacity:1" fill="#d6d6d7" d="M 1152.5,1261.5 C 1152.74,1263.9 1152.07,1265.9 1150.5,1267.5C 1150.59,1265.21 1151.26,1263.21 1152.5,1261.5 Z"/></g>
<g><path style="opacity:1" fill="#cecece" d="M 902.5,1263.5 C 903.931,1264.78 904.598,1266.45 904.5,1268.5C 903.069,1267.22 902.402,1265.55 902.5,1263.5 Z"/></g>
<g><path style="opacity:1" fill="#9a9a9a" d="M 1007.5,1265.5 C 1007.34,1267.15 1006.67,1268.49 1005.5,1269.5C 1005.23,1267.62 1005.9,1266.29 1007.5,1265.5 Z"/></g>
<g><path style="opacity:1" fill="#76797c" d="M 1005.5,1269.5 C 1005.74,1271.9 1005.07,1273.9 1003.5,1275.5C 1003.26,1273.1 1003.93,1271.1 1005.5,1269.5 Z"/></g>
<g><path style="opacity:1" fill="#6c6c6d" d="M 907.5,1275.5 C 909.308,1276.92 909.975,1278.92 909.5,1281.5C 908.262,1279.79 907.595,1277.79 907.5,1275.5 Z"/></g>
<g><path style="opacity:1" fill="#babdbd" d="M 1146.5,1277.5 C 1146.61,1280.22 1145.61,1282.22 1143.5,1283.5C 1144.13,1281.25 1145.13,1279.25 1146.5,1277.5 Z"/></g>
<g><path style="opacity:1" fill="#dbdbdb" d="M 909.5,1281.5 C 910.401,1282.29 911.068,1283.29 911.5,1284.5C 909.952,1284.18 909.285,1283.18 909.5,1281.5 Z"/></g>
<g><path style="opacity:1" fill="#4d4f50" d="M 1002.5,1278.5 C 1002.41,1279.5 1002.75,1280.33 1003.5,1281C 1001.4,1283.87 999.403,1286.7 997.5,1289.5C 998.399,1285.38 1000.07,1281.71 1002.5,1278.5 Z"/></g>
<g><path style="opacity:1" fill="#505253" d="M 933.5,1283.5 C 935.951,1286.74 937.618,1290.41 938.5,1294.5C 936.59,1293.03 935.424,1291.03 935,1288.5C 934.667,1289.17 934.333,1289.83 934,1290.5C 933.578,1288.64 933.078,1286.81 932.5,1285C 932.57,1284.24 932.903,1283.74 933.5,1283.5 Z"/></g>
<g><path style="opacity:1" fill="#c9d3c8" d="M 1140.5,1293.5 C 1140.6,1295.55 1139.93,1297.22 1138.5,1298.5C 1138.4,1296.45 1139.07,1294.78 1140.5,1293.5 Z"/></g>
<g><path style="opacity:1" fill="#a9a9a9" d="M 995.5,1296.5 C 995.34,1298.15 994.674,1299.49 993.5,1300.5C 993.229,1298.62 993.896,1297.29 995.5,1296.5 Z"/></g>
<g><path style="opacity:1" fill="#cdcfcd" d="M 1133.5,1311.5 C 1133.71,1313.18 1133.05,1314.18 1131.5,1314.5C 1131.93,1313.29 1132.6,1312.29 1133.5,1311.5 Z"/></g>
<g><path style="opacity:1" fill="#989b9a" d="M 989.5,1312.5 C 989.065,1315.16 988.065,1317.49 986.5,1319.5C 986.552,1316.65 987.552,1314.32 989.5,1312.5 Z"/></g>
<g><path style="opacity:1" fill="#b5b5b5" d="M 946.5,1316.5 C 947.906,1316.97 948.573,1317.97 948.5,1319.5C 947.094,1319.03 946.427,1318.03 946.5,1316.5 Z"/></g>
<g><path style="opacity:1" fill="#b6b6b6" d="M 1129.5,1321.5 C 1129.41,1323.79 1128.74,1325.79 1127.5,1327.5C 1127.26,1325.1 1127.93,1323.1 1129.5,1321.5 Z"/></g>
<g><path style="opacity:1" fill="#b0b0b0" d="M 927.5,1326.5 C 928.674,1327.51 929.34,1328.85 929.5,1330.5C 927.896,1329.71 927.229,1328.38 927.5,1326.5 Z"/></g>
<g><path style="opacity:1" fill="#d9d9d9" d="M 982.5,1329.5 C 982.598,1331.55 981.931,1333.22 980.5,1334.5C 980.402,1332.45 981.069,1330.78 982.5,1329.5 Z"/></g>
<g><path style="opacity:1" fill="#ababad" d="M 952.5,1331.5 C 954.104,1332.29 954.771,1333.62 954.5,1335.5C 953.326,1334.49 952.66,1333.15 952.5,1331.5 Z"/></g>
<g><path style="opacity:1" fill="#e0e0e0" d="M 932.5,1339.5 C 933.931,1340.78 934.598,1342.45 934.5,1344.5C 933.069,1343.22 932.402,1341.55 932.5,1339.5 Z"/></g>
<g><path style="opacity:1" fill="#dddddd" d="M 1122.5,1339.5 C 1122.74,1341.9 1122.07,1343.9 1120.5,1345.5C 1120.59,1343.21 1121.26,1341.21 1122.5,1339.5 Z"/></g>
<g><path style="opacity:1" fill="#717174" d="M 937.5,1351.5 C 940.295,1352.36 940.962,1354.36 939.5,1357.5C 938.262,1355.79 937.595,1353.79 937.5,1351.5 Z"/></g>
<g><path style="opacity:1" fill="#bbbbbd" d="M 1116.5,1355.5 C 1116.61,1358.22 1115.61,1360.22 1113.5,1361.5C 1114.13,1359.25 1115.13,1357.25 1116.5,1355.5 Z"/></g>
<g><path style="opacity:1" fill="#e8e8e8" d="M 964.5,1361.5 C 966.048,1361.82 966.715,1362.82 966.5,1364.5C 965.599,1363.71 964.932,1362.71 964.5,1361.5 Z"/></g>
<g><path style="opacity:1" fill="#6c6c70" d="M 971.5,1360.5 C 971.245,1362.97 970.245,1364.97 968.5,1366.5C 968.386,1363.78 969.386,1361.78 971.5,1360.5 Z"/></g>
<g><path style="opacity:1" fill="#cdcece" d="M 966.5,1365.5 C 967.167,1365.83 967.833,1366.17 968.5,1366.5C 967.699,1368.79 967.032,1368.46 966.5,1365.5 Z"/></g>
<g><path style="opacity:1" fill="#cccbd5" d="M 944.5,1369.5 C 945.931,1370.78 946.598,1372.45 946.5,1374.5C 945.069,1373.22 944.402,1371.55 944.5,1369.5 Z"/></g>
<g><path style="opacity:1" fill="#d3d5d4" d="M 1110.5,1370.5 C 1110.74,1372.9 1110.07,1374.9 1108.5,1376.5C 1108.59,1374.21 1109.26,1372.21 1110.5,1370.5 Z"/></g>
<g><path style="opacity:1" fill="#acaead" d="M 950.5,1384.5 C 951.931,1385.78 952.598,1387.45 952.5,1389.5C 951.069,1388.22 950.402,1386.55 950.5,1384.5 Z"/></g>
<g><path style="opacity:1" fill="#d0d1d1" d="M 1103.5,1389.5 C 1103.71,1391.18 1103.05,1392.18 1101.5,1392.5C 1101.93,1391.29 1102.6,1390.29 1103.5,1389.5 Z"/></g>
<g><path style="opacity:1" fill="#d9d8e0" d="M 956.5,1399.5 C 957.738,1401.21 958.405,1403.21 958.5,1405.5C 956.926,1403.9 956.259,1401.9 956.5,1399.5 Z"/></g>
<g><path style="opacity:1" fill="#cccccc" d="M 1098.5,1402.5 C 1098.6,1404.55 1097.93,1406.22 1096.5,1407.5C 1096.4,1405.45 1097.07,1403.78 1098.5,1402.5 Z"/></g>
<g><path style="opacity:1" fill="#bbbbbf" d="M 961.5,1412.5 C 962.931,1413.78 963.598,1415.45 963.5,1417.5C 962.069,1416.22 961.402,1414.55 961.5,1412.5 Z"/></g>
<g><path style="opacity:1" fill="#cbcbcb" d="M 968.5,1430.5 C 969.931,1431.78 970.598,1433.45 970.5,1435.5C 969.069,1434.22 968.402,1432.55 968.5,1430.5 Z"/></g>
<g><path style="opacity:1" fill="#cacaca" d="M 1086.5,1433.5 C 1086.61,1436.22 1085.61,1438.22 1083.5,1439.5C 1084.13,1437.25 1085.13,1435.25 1086.5,1433.5 Z"/></g>
<g><path style="opacity:1" fill="#bebfc0" d="M 974.5,1445.5 C 975.87,1447.25 976.87,1449.25 977.5,1451.5C 975.386,1450.22 974.386,1448.22 974.5,1445.5 Z"/></g>
<g><path style="opacity:1" fill="#c3c3c3" d="M 980.5,1460.5 C 981.931,1461.78 982.598,1463.45 982.5,1465.5C 981.069,1464.22 980.402,1462.55 980.5,1460.5 Z"/></g>
<g><path style="opacity:1" fill="#bfc0c0" d="M 1074.5,1464.5 C 1074.61,1467.22 1073.61,1469.22 1071.5,1470.5C 1072.13,1468.25 1073.13,1466.25 1074.5,1464.5 Z"/></g>
<g><path style="opacity:1" fill="#cccccc" d="M 987.5,1478.5 C 988.401,1479.29 989.068,1480.29 989.5,1481.5C 987.952,1481.18 987.285,1480.18 987.5,1478.5 Z"/></g>
<g><path style="opacity:1" fill="#c6c7c7" d="M 1069.5,1477.5 C 1069.6,1479.55 1068.93,1481.22 1067.5,1482.5C 1067.4,1480.45 1068.07,1478.78 1069.5,1477.5 Z"/></g>
<g><path style="opacity:1" fill="#bbbdbf" d="M 1062.5,1495.5 C 1062.61,1498.22 1061.61,1500.22 1059.5,1501.5C 1060.13,1499.25 1061.13,1497.25 1062.5,1495.5 Z"/></g>
<g><path style="opacity:1" fill="#c7cac7" d="M 998.5,1506.5 C 999.931,1507.78 1000.6,1509.45 1000.5,1511.5C 999.069,1510.22 998.402,1508.55 998.5,1506.5 Z"/></g>
<g><path style="opacity:1" fill="#b5b5b5" d="M 1055.5,1513.5 C 1055.77,1515.38 1055.1,1516.71 1053.5,1517.5C 1053.66,1515.85 1054.33,1514.51 1055.5,1513.5 Z"/></g>
<g><path style="opacity:1" fill="#797c7c" d="M 1003.5,1518.5 C 1004.31,1519.47 1005.31,1520.3 1006.5,1521C 1005.66,1522.01 1005.33,1523.18 1005.5,1524.5C 1004.26,1522.79 1003.59,1520.79 1003.5,1518.5 Z"/></g>
<g><path style="opacity:1" fill="#b9b9b9" d="M 1050.5,1526.5 C 1050.6,1528.55 1049.93,1530.22 1048.5,1531.5C 1048.4,1529.45 1049.07,1527.78 1050.5,1526.5 Z"/></g>
</svg>
